<svg width="170" height="48" viewBox="0 0 170 48" fill="none" xmlns="http://www.w3.org/2000/svg">
<path d="M52.194 28.504C52.626 28.504 52.842 28.876 52.842 29.62C52.842 30.34 52.65 31.12 52.266 31.96C51.906 32.8 51.342 33.616 50.574 34.408C49.83 35.176 48.87 35.836 47.694 36.388C46.518 36.94 45.126 37.216 43.518 37.216C41.934 37.216 40.542 36.748 39.342 35.812C38.142 34.852 37.542 33.484 37.542 31.708C37.542 29.908 37.818 28.288 38.37 26.848C38.946 25.384 39.69 24.124 40.602 23.068C41.538 22.012 42.594 21.196 43.77 20.62C44.946 20.02 46.062 19.72 47.118 19.72C48.966 19.72 49.89 20.452 49.89 21.916C49.89 22.756 49.71 23.428 49.35 23.932C49.014 24.436 48.666 24.688 48.306 24.688C47.826 24.688 47.406 24.52 47.046 24.184C46.686 23.848 46.29 23.68 45.858 23.68C45.426 23.656 45.006 23.86 44.598 24.292C44.214 24.724 43.89 25.276 43.626 25.948C43.098 27.292 42.834 28.864 42.834 30.664C42.858 31.528 43.254 32.176 44.022 32.608C44.55 32.896 45.174 33.052 45.894 33.076C46.614 33.076 47.298 32.836 47.946 32.356C48.618 31.876 49.23 31.36 49.782 30.808C50.334 30.232 50.814 29.704 51.222 29.224C51.654 28.744 51.978 28.504 52.194 28.504ZM64.9825 28.504C65.4145 28.504 65.6305 28.876 65.6305 29.62C65.6305 30.34 65.4385 31.12 65.0545 31.96C64.6945 32.8 64.1305 33.616 63.3625 34.408C62.6185 35.176 61.6585 35.836 60.4825 36.388C59.3065 36.94 57.9145 37.216 56.3065 37.216C54.7225 37.216 53.3305 36.748 52.1305 35.812C50.9305 34.852 50.3305 33.484 50.3305 31.708C50.3305 29.908 50.6065 28.288 51.1585 26.848C51.7345 25.384 52.4785 24.124 53.3905 23.068C54.3265 22.012 55.3825 21.196 56.5585 20.62C57.7345 20.02 58.8505 19.72 59.9065 19.72C61.7545 19.72 62.6785 20.452 62.6785 21.916C62.6785 22.756 62.4985 23.428 62.1385 23.932C61.8025 24.436 61.4545 24.688 61.0945 24.688C60.6145 24.688 60.1945 24.52 59.8345 24.184C59.4745 23.848 59.0785 23.68 58.6465 23.68C58.2145 23.656 57.7945 23.86 57.3865 24.292C57.0025 24.724 56.6785 25.276 56.4145 25.948C55.8865 27.292 55.6225 28.864 55.6225 30.664C55.6465 31.528 56.0425 32.176 56.8105 32.608C57.3385 32.896 57.9625 33.052 58.6825 33.076C59.4025 33.076 60.0865 32.836 60.7345 32.356C61.4065 31.876 62.0185 31.36 62.5705 30.808C63.1225 30.232 63.6025 29.704 64.0105 29.224C64.4425 28.744 64.7665 28.504 64.9825 28.504ZM71.8669 33.076C73.7389 33.076 75.5509 32.332 77.3029 30.844C77.9509 30.292 78.4789 29.788 78.8869 29.332C79.2949 28.852 79.6069 28.612 79.8229 28.612C80.1589 28.612 80.3269 28.948 80.3269 29.62C80.3269 30.292 80.1469 31.048 79.7869 31.888C79.4269 32.704 78.8269 33.508 77.9869 34.3C75.9229 36.244 73.0909 37.216 69.4909 37.216C66.6349 37.216 64.6909 36.184 63.6589 34.12C63.2989 33.4 63.1189 32.368 63.1189 31.024C63.1189 29.68 63.3829 28.288 63.9109 26.848C64.4389 25.384 65.1349 24.124 65.9989 23.068C66.8869 22.012 67.9069 21.196 69.0589 20.62C70.2109 20.02 71.4349 19.72 72.7309 19.72C74.0509 19.72 75.0589 20.044 75.7549 20.692C76.4749 21.34 76.8349 22.18 76.8349 23.212C76.8349 24.244 76.5709 25.096 76.0429 25.768C75.5389 26.416 74.8789 26.968 74.0629 27.424C73.2469 27.856 72.3349 28.252 71.3269 28.612C70.3429 28.948 69.3709 29.332 68.4109 29.764V30.664C68.4349 31.528 68.7949 32.14 69.4909 32.5C70.1869 32.86 70.9789 33.052 71.8669 33.076ZM71.2549 22.924C70.0069 22.924 69.1429 24.376 68.6629 27.28C69.1669 26.944 69.6349 26.644 70.0669 26.38C70.5229 26.116 70.9189 25.864 71.2549 25.624C71.9749 25.096 72.3469 24.496 72.3709 23.824C72.3709 23.224 71.9989 22.924 71.2549 22.924ZM86.1938 37.108C82.7618 37.132 80.4218 35.848 79.1738 33.256C78.7418 32.344 78.5258 31.204 78.5258 29.836C78.5258 28.444 78.6458 26.968 78.8858 25.408C79.3658 22.288 80.2898 19.408 81.6578 16.768C82.3538 15.424 83.1338 14.272 83.9978 13.312C85.8938 11.2 88.0058 10.156 90.3338 10.18C91.3658 10.18 92.1698 10.468 92.7458 11.044C93.3458 11.596 93.6458 12.4 93.6458 13.456C93.6458 14.512 93.3338 15.58 92.7098 16.66C92.0858 17.716 91.2818 18.82 90.2978 19.972C89.3378 21.1 88.2698 22.288 87.0938 23.536C85.9178 24.784 84.7658 26.14 83.6378 27.604V29.044C83.6378 30.388 83.9258 31.372 84.5018 31.996C85.0778 32.62 85.7498 32.932 86.5178 32.932C88.5818 32.932 90.4058 31.912 91.9898 29.872C92.6378 29.032 93.1298 28.612 93.4658 28.612C93.8018 28.612 93.9698 29.02 93.9698 29.836C93.9698 30.652 93.7418 31.492 93.2858 32.356C92.8538 33.196 92.2778 33.976 91.5578 34.696C90.8378 35.392 90.0098 35.968 89.0738 36.424C88.1378 36.88 87.1778 37.108 86.1938 37.108ZM88.1378 17.776C88.6418 17.152 89.0378 16.588 89.3258 16.084C89.6138 15.58 89.7578 15.064 89.7578 14.536C89.7578 13.984 89.5658 13.708 89.1818 13.708C88.3418 13.708 87.4058 14.572 86.3738 16.3C85.3658 18.028 84.6098 20.296 84.1058 23.104C84.9218 21.856 85.6658 20.812 86.3378 19.972C87.0338 19.132 87.6338 18.4 88.1378 17.776ZM99.8696 33.076C101.742 33.076 103.554 32.332 105.306 30.844C105.954 30.292 106.482 29.788 106.89 29.332C107.298 28.852 107.61 28.612 107.826 28.612C108.162 28.612 108.33 28.948 108.33 29.62C108.33 30.292 108.15 31.048 107.79 31.888C107.43 32.704 106.83 33.508 105.99 34.3C103.926 36.244 101.094 37.216 97.4936 37.216C94.6376 37.216 92.6936 36.184 91.6616 34.12C91.3016 33.4 91.1216 32.368 91.1216 31.024C91.1216 29.68 91.3856 28.288 91.9136 26.848C92.4416 25.384 93.1376 24.124 94.0016 23.068C94.8896 22.012 95.9096 21.196 97.0616 20.62C98.2136 20.02 99.4376 19.72 100.734 19.72C102.054 19.72 103.062 20.044 103.758 20.692C104.478 21.34 104.838 22.18 104.838 23.212C104.838 24.244 104.574 25.096 104.046 25.768C103.542 26.416 102.882 26.968 102.066 27.424C101.25 27.856 100.338 28.252 99.3296 28.612C98.3456 28.948 97.3736 29.332 96.4136 29.764V30.664C96.4376 31.528 96.7976 32.14 97.4936 32.5C98.1896 32.86 98.9816 33.052 99.8696 33.076ZM99.2576 22.924C98.0096 22.924 97.1456 24.376 96.6656 27.28C97.1696 26.944 97.6376 26.644 98.0696 26.38C98.5256 26.116 98.9216 25.864 99.2576 25.624C99.9776 25.096 100.35 24.496 100.374 23.824C100.374 23.224 100.002 22.924 99.2576 22.924ZM130.792 28.504C131.2 28.504 131.404 29.056 131.404 30.16C131.404 30.76 131.152 31.492 130.648 32.356C130.144 33.196 129.484 33.976 128.668 34.696C127.876 35.392 126.988 35.968 126.004 36.424C125.02 36.88 124.084 37.108 123.196 37.108C122.308 37.108 121.612 36.94 121.108 36.604C120.604 36.268 120.208 35.812 119.92 35.236C119.512 34.42 119.176 32.872 118.912 30.592C118.648 28.288 118.384 26.68 118.12 25.768C117.496 25.648 116.944 25.408 116.464 25.048C116.008 24.664 115.78 24.208 115.78 23.68C115.78 23.128 116.02 22.732 116.5 22.492C117.004 22.252 117.568 22.132 118.192 22.132C118.84 22.132 119.416 22.288 119.92 22.6C120.592 22.048 121.132 21.4 121.54 20.656C121.972 19.888 122.188 18.868 122.188 17.596C122.188 16.3 121.756 15.268 120.892 14.5C120.028 13.732 118.756 13.348 117.076 13.348C115.42 13.348 114.148 13.48 113.26 13.744C112.372 14.008 111.604 14.296 110.956 14.608C110.332 14.92 109.768 15.208 109.264 15.472C108.784 15.736 108.328 15.868 107.896 15.868C107.464 15.868 107.248 15.736 107.248 15.472C107.248 15.184 107.476 14.728 107.932 14.104C108.388 13.48 109.06 12.856 109.948 12.232C112.18 10.672 114.7 9.904 117.508 9.928C120.316 9.928 122.632 10.456 124.456 11.512C126.592 12.76 127.66 14.632 127.66 17.128C127.684 19.192 127.144 20.908 126.04 22.276C124.936 23.644 123.568 24.628 121.936 25.228C122.296 26.02 122.584 26.872 122.8 27.784C123.04 28.696 123.268 29.536 123.484 30.304C123.7 31.072 123.94 31.708 124.204 32.212C124.492 32.716 124.828 32.968 125.212 32.968C125.62 32.968 126.1 32.74 126.652 32.284C127.228 31.804 127.792 31.288 128.344 30.736C128.896 30.184 129.388 29.68 129.82 29.224C130.276 28.744 130.6 28.504 130.792 28.504ZM115.132 15.544C115.444 15.544 115.6 15.952 115.6 16.768C115.6 17.584 115.552 18.352 115.456 19.072C115.24 20.464 114.964 21.76 114.628 22.96C113.764 26.224 113.332 28.132 113.332 28.684V33.976C113.332 35.272 112.84 36.16 111.856 36.64C111.4 36.856 110.956 37.06 110.524 37.252C110.116 37.444 109.648 37.54 109.12 37.54C108.112 37.54 107.608 36.388 107.608 34.084C107.608 31.756 108.148 28.828 109.228 25.3C110.308 21.772 111.436 19.084 112.612 17.236C112.852 16.876 113.2 16.504 113.656 16.12C114.112 15.736 114.604 15.544 115.132 15.544ZM140.454 21.808C140.454 20.2 141.702 19.396 144.198 19.396C144.822 19.396 145.206 19.6 145.35 20.008C145.518 20.416 145.602 21.04 145.602 21.88C145.602 23.056 145.338 24.88 144.81 27.352C144.282 29.824 144.03 31.492 144.054 32.356C144.054 32.764 144.186 32.968 144.45 32.968C144.81 32.968 145.254 32.74 145.782 32.284C146.31 31.828 146.838 31.336 147.366 30.808C147.894 30.256 148.374 29.752 148.806 29.296C149.262 28.84 149.574 28.612 149.742 28.612C150.078 28.612 150.246 29.02 150.246 29.836C150.246 31.516 149.418 33.136 147.762 34.696C144.978 36.328 143.214 37.144 142.47 37.144C142.398 37.144 142.338 37.132 142.29 37.108C141.378 37.108 140.73 36.808 140.346 36.208C139.986 35.608 139.758 34.852 139.662 33.94C139.182 34.828 138.522 35.596 137.682 36.244C136.842 36.868 135.882 37.18 134.802 37.18C132.906 37.18 131.442 36.82 130.41 36.1C129.402 35.38 128.898 34.312 128.898 32.896C128.898 32.272 128.982 31.696 129.15 31.168C129.342 30.64 129.642 29.992 130.05 29.224L131.094 20.368C131.838 19.792 132.906 19.504 134.298 19.504C135.402 19.504 136.026 20.224 136.17 21.664C136.29 22.84 136.23 23.896 135.99 24.832C135.774 25.744 135.474 26.908 135.09 28.324C134.706 29.716 134.514 30.952 134.514 32.032C134.514 32.896 135.054 33.328 136.134 33.328C137.31 33.328 138.33 32.296 139.194 30.232C139.866 28.648 140.322 26.884 140.562 24.94C140.538 24.748 140.514 24.508 140.49 24.22C140.49 23.908 140.478 23.608 140.454 23.32C140.454 23.032 140.454 22.744 140.454 22.456V21.808ZM152.881 19.036C153.745 19.036 154.561 19.864 155.329 21.52C156.457 20.344 157.849 19.756 159.505 19.756C161.185 19.756 162.445 20.128 163.285 20.872C164.125 21.592 164.545 22.624 164.545 23.968C164.545 25.288 164.365 26.632 164.005 28C163.669 29.368 163.417 30.352 163.249 30.952C163.105 31.528 163.033 32.008 163.033 32.392C163.033 32.776 163.165 32.968 163.429 32.968C163.789 32.968 164.233 32.74 164.761 32.284C165.289 31.828 165.817 31.336 166.345 30.808C166.873 30.256 167.353 29.752 167.785 29.296C168.241 28.84 168.553 28.612 168.721 28.612C169.057 28.612 169.225 29.02 169.225 29.836C169.225 31.516 168.397 33.136 166.741 34.696C163.957 36.328 162.181 37.144 161.413 37.144C161.341 37.144 161.293 37.132 161.269 37.108C159.349 37.108 158.389 35.572 158.389 32.5C158.389 31.18 158.509 29.968 158.749 28.864C159.013 27.76 159.205 26.956 159.325 26.452C159.445 25.948 159.505 25.432 159.505 24.904C159.505 24.04 159.001 23.608 157.993 23.608C157.009 23.608 156.061 24.352 155.149 25.84C154.261 27.304 153.661 28.828 153.349 30.412V30.664C153.349 31.48 153.469 32.32 153.709 33.184C153.973 34.048 154.105 34.648 154.105 34.984C154.105 35.8 153.085 36.604 151.045 37.396C150.733 37.516 150.457 37.576 150.217 37.576C149.617 37.576 149.197 37.264 148.957 36.64C148.741 36.016 148.633 35.044 148.633 33.724C148.633 30.316 148.765 27.856 149.029 26.344C149.389 24.088 150.205 21.988 151.477 20.044C151.909 19.372 152.377 19.036 152.881 19.036Z" fill="url(#paint0_linear)"/>
<path fill-rule="evenodd" clip-rule="evenodd" d="M29.8329 17.1421C28.9976 17.6596 28.0198 18.3039 26.9855 19.0049C25.3831 20.091 23.7022 21.2742 22.2612 22.2885C21.6922 22.689 21.1607 23.0631 20.6862 23.3946C16.6171 26.2366 13.0284 26.7926 10.1395 25.414C8.69022 24.7224 7.63795 23.6421 6.90182 22.502L3.67418 24.6065C2.59471 25.3104 1.14905 25.0059 0.445206 23.9264C-0.258636 22.8469 0.045874 21.4013 1.12535 20.6974L6.6383 17.1028L9.38002 15.3152L10.176 18.4899C10.4503 19.584 11.1606 20.7305 12.1493 21.2023C12.9508 21.5848 14.7104 21.8761 18.014 19.5687C18.4639 19.2544 18.9792 18.8918 19.5374 18.4989C20.9878 17.4779 22.7282 16.2529 24.3672 15.142C25.5054 14.3705 26.6223 13.6351 27.5876 13.0442C28.3491 12.578 29.1462 12.1194 29.8214 11.8306C30.3633 11.5357 30.9945 11.4728 31.5729 11.6364C32.134 11.7894 32.6307 12.1496 32.9463 12.6611C33.3875 13.2665 33.7131 14.022 33.961 14.7198C34.2921 15.6518 34.5945 16.8061 34.8423 18.1386C35.3388 20.8085 35.6385 24.315 35.4589 28.4149C35.3515 30.8669 35.0724 33.5379 34.5586 36.3762L36.6568 37.1613C37.8637 37.6129 38.476 38.9574 38.0244 40.1643C37.5728 41.3713 36.2283 41.9836 35.0214 41.532L31.0678 40.0527L29.1816 39.3469L29.6041 37.3778C30.1599 34.7871 30.5012 32.3368 30.6817 30.0709C28.8857 29.5069 26.4854 28.5345 23.8496 26.886C22.757 26.2027 22.4253 24.763 23.1086 23.6704C23.7919 22.5779 25.2316 22.2461 26.3241 22.9294C28.0001 23.9776 29.5505 24.6972 30.8371 25.1867C30.7929 22.7392 30.5618 20.6453 30.2543 18.9917C30.1221 18.2812 29.978 17.6635 29.8329 17.1421Z" fill="url(#paint1_linear)"/>
<defs>
<linearGradient id="paint0_linear" x1="30.9129" y1="48" x2="111.737" y2="-55.0851" gradientUnits="userSpaceOnUse">
<stop offset="0.00209505" stop-color="#05DFFC"/>
<stop offset="1" stop-color="#0BFFC4"/>
</linearGradient>
<linearGradient id="paint1_linear" x1="-1.66597" y1="41.6806" x2="44.2724" y2="14.3219" gradientUnits="userSpaceOnUse">
<stop offset="0.00209505" stop-color="#05DFFC"/>
<stop offset="1" stop-color="#0BFFC4"/>
</linearGradient>
</defs>
</svg>
