<svg width="128" height="120" viewBox="0 0 128 120" fill="none" xmlns="http://www.w3.org/2000/svg">
	<path fill-rule="evenodd" clip-rule="evenodd" d="M125.565 88.4304C124.321 88.5071 123.166 89.052 121.963 89.3328C120.687 89.6308 119.385 89.8138 118.102 90.0812C117.486 90.2098 116.863 90.3394 116.238 90.4231C115.617 90.5064 115.036 90.6628 114.426 90.7952C113.213 91.058 111.923 91.2492 110.745 91.638C109.591 92.0191 108.355 92.0956 107.156 92.2992C105.861 92.5194 104.556 92.6726 103.263 92.9059C101.988 93.136 100.714 93.3758 99.4391 93.6065C98.8286 93.717 98.2294 93.9408 97.6088 93.9684C96.913 93.9991 96.2592 94.0785 95.5753 94.2134C92.9528 94.7312 90.3437 95.3526 87.741 95.9639C87.1064 96.1129 86.4727 96.2657 85.8402 96.4225C85.1934 96.5827 84.5207 96.6758 83.8831 96.8656C82.7125 97.2141 81.534 97.5663 80.3154 97.6466C79.7057 97.6868 79.1455 97.9523 78.5539 98.0804C77.9322 98.2148 77.2905 98.2394 76.6606 98.316C75.3932 98.4705 74.1117 98.9297 72.8879 99.2866C71.6676 99.6425 70.4561 100.075 69.2226 100.378C67.9303 100.696 66.6209 100.938 65.3294 101.262C62.8218 101.889 60.3915 102.812 57.8472 103.267C57.6521 103.301 57.3351 103.403 57.1382 103.328C56.9316 103.251 56.837 102.988 56.7286 102.813C56.4114 102.302 56.1273 101.817 56.0596 101.206C55.9984 100.655 56.0081 100.123 55.6394 99.6719C55.5319 99.5405 55.3924 99.5159 55.5827 99.3691C55.7061 99.274 56.1133 99.2972 56.2688 99.2708C56.8229 99.1762 57.2917 98.9137 57.8356 98.7813C58.4421 98.6336 59.0345 98.473 59.6222 98.2611C60.8093 97.833 61.9964 97.4419 63.1995 97.0612C63.789 96.8747 64.3743 96.6754 64.9477 96.4438C65.2219 96.3331 65.4948 96.2019 65.7899 96.1574C66.1108 96.1088 66.3949 96.1169 66.7105 96.0145C67.9528 95.6118 69.2402 95.3242 70.5112 95.0255C71.7171 94.742 72.9616 94.434 74.1897 94.276C74.8027 94.197 75.3643 94.0502 75.9572 93.8817C76.5856 93.703 77.2414 93.6546 77.8799 93.524C79.0033 93.2942 80.2624 93.248 81.3269 92.8105C81.8297 92.6037 82.3033 92.5999 82.8329 92.504C83.4846 92.3857 84.134 92.2622 84.7873 92.1479C85.4129 92.0384 86.0318 91.8943 86.6556 91.775C87.2845 91.6549 87.9842 91.6491 88.5879 91.4309C89.6542 91.0451 90.8473 91.055 91.9609 90.8314C93.2698 90.5683 94.5971 90.4155 95.9058 90.149C97.1697 89.8918 98.4703 89.7134 99.7183 89.3912C100.302 89.2404 100.843 89.0671 101.447 88.9973C102.105 88.9211 102.75 88.7746 103.401 88.6511C104.611 88.4215 105.841 88.3662 107.054 88.1568C109.524 87.7303 111.917 86.9865 114.325 86.3027C115.562 85.9515 116.788 85.609 118.05 85.3608C118.643 85.2443 119.199 85.0327 119.781 84.8776C120.429 84.705 121.089 84.5856 121.748 84.4614C122.344 84.3491 122.939 84.2308 123.53 84.0959C123.815 84.0308 124.304 83.7685 124.58 83.8365C124.838 83.8999 124.829 84.3249 124.88 84.5517C125.01 85.1285 125.195 85.6948 125.368 86.2595C125.517 86.7437 125.668 87.2274 125.824 87.7093C125.922 88.0128 126.004 88.4034 125.565 88.4304ZM123.732 90.6161C123.084 91.0026 122.638 91.6471 122.109 92.1703C121.518 92.7554 120.885 93.3035 120.252 93.8432C119.597 94.402 118.925 94.9409 118.236 95.4565C117.595 95.9355 116.917 96.3822 116.337 96.9376C115.792 97.4596 115.383 98.1217 114.782 98.585C114.193 99.0397 113.47 99.2564 112.868 99.6973C112.588 99.9032 112.332 100.146 112.005 100.278C111.629 100.429 111.229 100.542 110.847 100.68C110.473 100.815 110.109 100.858 109.718 100.919C109.294 100.985 108.993 101.106 108.557 101.034C108.757 100.915 108.953 100.757 109.173 100.679C109.36 100.612 109.526 100.645 109.72 100.64C110.127 100.628 110.47 100.415 110.876 100.394C110.519 100.098 109.973 100.295 109.584 100.416C108.977 100.604 108.36 100.759 107.75 100.941C106.535 101.303 105.315 101.639 104.083 101.938C101.504 102.565 98.9169 103.156 96.3298 103.747C95.0594 104.037 93.7662 104.216 92.4968 104.505C91.2931 104.778 90.0415 104.879 88.8205 105.111C86.2464 105.6 83.6699 106.077 81.1002 106.59C78.5677 107.095 76.0019 107.607 73.5206 108.329C72.3592 108.666 71.2067 109.078 70.0357 109.333C68.8262 109.597 67.6659 110.003 66.4765 110.335C65.2408 110.681 63.9921 110.946 62.7693 111.341C61.5348 111.74 60.2982 112.117 59.0466 112.46C58.7849 112.531 58.5461 112.62 58.2936 112.717C57.981 112.837 57.71 112.838 57.3847 112.881C57.1348 112.914 56.9409 113.026 56.7091 113.113C56.4373 113.216 56.1655 113.163 55.9134 113.309C55.4081 113.601 54.902 113.669 54.3262 113.785C53.653 113.921 53.0024 114.126 52.3498 114.337C51.1489 114.725 49.9289 115.033 48.7256 115.406C48.5452 115.462 46.6162 116.242 46.5822 116.011C46.5605 115.863 47.0744 115.583 47.1905 115.498C47.7257 115.107 48.2565 114.707 48.7815 114.303C49.7325 113.57 50.5904 112.741 51.4876 111.946C52.4175 111.122 53.4375 110.414 54.3257 109.541C55.1737 108.707 55.8578 107.731 56.6447 106.843C56.9805 106.464 57.243 106.092 57.4647 105.638C57.7057 105.143 57.9975 105.034 58.5403 105.041C59.7359 105.055 61.0055 104.68 62.1411 104.327C63.2935 103.97 64.4903 103.549 65.6862 103.375C66.8975 103.199 68.0612 102.827 69.2596 102.574C70.5268 102.306 71.7436 101.905 72.9825 101.535C74.2156 101.166 75.4759 100.881 76.7189 100.546C77.2957 100.391 77.8678 100.225 78.4416 100.059C79.0747 99.8765 79.6665 99.8926 80.3129 99.8151C81.5161 99.6707 82.6353 99.303 83.8141 99.0558C84.3977 98.9335 84.9126 98.7846 85.4622 98.556C86.0239 98.3225 86.6194 98.2709 87.2108 98.1458C88.4916 97.8748 89.7519 97.4859 91.0237 97.1729C92.2383 96.8741 93.4798 96.6318 94.7061 96.3834C95.2922 96.2647 95.8822 96.2191 96.4728 96.1356C97.1297 96.0427 97.7658 95.8388 98.4194 95.7246C100.947 95.2822 103.467 94.7974 105.998 94.3742C107.299 94.1569 108.589 93.9174 109.844 93.5059C110.386 93.3282 110.954 93.3222 111.506 93.1685C112.083 93.0078 112.645 92.771 113.238 92.6727C113.548 92.6215 113.872 92.6281 114.172 92.5259C114.375 92.4567 114.549 92.3223 114.755 92.2614C115.354 92.0847 116.029 92.0745 116.641 91.9245C117.893 91.6177 119.168 91.4337 120.424 91.1479C121.642 90.8712 122.836 90.505 124.039 90.1749C123.942 90.3189 123.89 90.5217 123.732 90.6161ZM45.4022 113.222C44.4595 113.941 43.4877 114.625 42.5742 115.381C41.749 116.065 41.0341 116.869 40.3304 117.674C40.0921 117.947 39.8095 118.353 39.5271 117.906C39.2507 117.469 39.1178 116.887 38.9492 116.401C38.7603 115.858 38.5818 115.311 38.3817 114.772C38.2317 114.369 37.9529 113.954 38.2464 113.55C38.5192 113.175 38.9595 112.852 39.2893 112.525C39.7164 112.1 40.1426 111.674 40.5909 111.272C41.4501 110.501 42.3593 109.786 43.2442 109.045C44.1934 108.25 45.123 107.432 46.054 106.616C46.8648 105.906 47.644 105.156 48.5165 104.52C50.5628 103.03 52.2119 101.077 54.1248 99.431C54.4416 100.718 54.6614 102.037 55.0353 103.309C55.1868 103.825 55.4866 104.279 55.6245 104.8C55.7866 105.413 55.399 105.603 54.9457 105.932C55.1838 105.608 55.4587 105.414 55.4474 104.993C54.9677 105.103 54.5955 105.474 54.2227 105.771C53.8231 106.088 53.4279 106.41 53.0374 106.739C52.1692 107.471 51.3097 108.213 50.4501 108.954C48.782 110.393 47.1552 111.884 45.4022 113.222ZM41.5416 104.779C40.72 104.835 39.928 105.081 39.1043 105.132C38.7109 105.156 38.3211 105.238 37.9273 105.25C37.4785 105.264 37.0389 105.193 36.5882 105.218C35.7079 105.266 34.8403 105.191 33.9621 105.141C33.0893 105.092 32.2236 105.071 31.3576 104.939C31.0057 104.886 30.6555 104.831 30.3021 104.787C30.0144 104.751 29.5637 104.742 29.4439 104.43C29.332 104.139 29.429 103.654 29.4334 103.346C29.4376 103.067 29.4528 102.788 29.4537 102.51C29.455 102.121 29.4288 101.505 28.9297 101.446C28.6383 101.412 28.3432 101.615 28.0958 101.74C27.6827 101.949 27.2766 102.165 26.8823 102.409C26.4952 102.648 26.1101 102.897 25.7455 103.169C25.4565 103.385 25.1591 103.678 24.769 103.628C24.4345 103.585 24.1434 103.352 23.8388 103.226C23.4057 103.046 22.9123 102.96 22.4452 102.95C22.5043 102.248 22.5635 101.546 22.6226 100.845C22.6444 100.588 22.6661 100.331 22.6877 100.073C22.7106 99.802 22.6696 99.4446 22.7374 99.1817C22.8468 98.7584 23.6551 99.0169 24.008 99.0447C24.6917 99.0986 25.376 99.1479 26.0588 99.2104C26.3827 99.2403 27.0564 99.4411 27.338 99.2142C27.688 98.9322 27.5919 97.8836 27.6164 97.4867C27.635 97.1837 27.5283 96.3434 27.8084 96.1423C27.9908 96.0115 28.3754 96.1136 28.5772 96.1245C28.9043 96.1424 29.2318 96.1521 29.5595 96.1451C32.1417 96.0912 34.7128 95.5164 37.2253 94.9568C37.7835 94.8326 38.2521 94.6431 38.533 95.2583C38.8148 95.8756 39.0696 96.5077 39.3399 97.1304C39.5494 97.6131 39.9345 98.0754 39.6788 98.6043C39.3972 99.1867 39.0471 99.7514 38.7197 100.309C38.5061 100.673 37.8351 101.578 38.6735 101.654C39.2681 101.708 39.9836 101.486 40.5685 101.385C40.8211 101.342 41.0697 101.285 41.2623 101.482C41.4767 101.702 41.5779 102.13 41.7029 102.405C42.0236 103.111 42.3681 103.806 42.6598 104.525C42.2911 104.625 41.9254 104.754 41.5416 104.779ZM28.849 104.57C28.127 104.452 27.4052 104.334 26.6834 104.215C26.5004 104.185 25.4332 104.161 25.5929 103.849C25.6551 103.728 26.0354 103.59 26.1459 103.52C26.4577 103.323 26.77 103.127 27.0886 102.941C27.6795 102.596 28.2935 102.285 28.9463 102.076C28.9139 102.908 28.8814 103.739 28.849 104.57ZM22.808 97.7884C22.8332 97.3198 22.8028 96.7373 22.9206 96.2833C23.03 95.8617 23.3967 95.7824 23.7896 95.8227C24.2778 95.8728 24.7541 96.0289 25.2442 96.0854C25.8517 96.1552 26.4644 96.1648 27.075 96.1358C27.075 96.8331 27.1737 97.608 27.0041 98.2918C26.8649 98.8537 26.3049 98.6462 25.8693 98.6174C25.142 98.5693 24.4154 98.5472 23.6902 98.4667C23.2532 98.4183 22.7786 98.3386 22.808 97.7884ZM38.4645 92.3784C38.4519 92.3558 38.4402 92.3283 38.429 92.2951C38.4402 92.3283 38.4519 92.3558 38.4645 92.3784ZM37.3363 89.2249C37.2653 89.0173 37.142 88.8285 37.0807 88.6176C37.027 88.4319 37.0338 88.2479 36.9518 88.0695C36.7678 87.6688 36.4698 87.3346 36.3073 86.9146C36.1241 86.4415 36.0733 85.8747 35.7811 85.4489C35.6539 85.2639 35.5505 85.1668 35.4798 84.9526C35.4028 84.72 35.3079 84.5494 35.2033 84.3287C35.0392 83.982 34.9576 83.6578 34.7623 83.3151C34.522 82.8933 34.2937 82.45 34.0942 82.0074C34.0035 81.8065 33.9675 81.258 33.7461 81.1364C33.569 81.0393 33.5719 81.2224 33.4313 81.0201C33.3176 80.857 33.324 80.7606 33.5299 80.6824C33.4477 80.5654 33.2869 80.6224 33.1894 80.5211C33.0948 80.4231 33.1162 80.2548 33.0814 80.1338C33.2123 80.1753 33.3434 80.216 33.4748 80.2568C33.0928 79.4339 32.748 78.5943 32.3353 77.7859C31.9792 77.0876 31.7403 76.3274 31.2408 75.7259C30.9912 75.4254 31.1776 75.1156 31.0073 74.7949C30.9426 74.6724 30.8285 74.5856 30.772 74.4564C30.714 74.3228 30.7377 74.132 30.6565 74.0118C30.5427 73.8432 30.4476 73.9508 30.3053 73.8555C30.2037 73.7876 30.1509 73.6632 30.0919 73.5616C30.0612 73.509 29.9382 73.3348 29.9515 73.2716C29.9928 73.0731 30.1202 73.262 30.2152 73.1629C30.0064 72.6341 29.7771 72.1143 29.5479 71.5941C29.4427 71.3547 29.2587 70.4963 28.8812 70.7585C28.6738 70.2559 28.7197 69.8394 28.4982 69.3384C28.1851 68.63 27.8979 67.9104 27.599 67.1959C27.4538 66.8487 27.3236 66.4918 27.1684 66.1491C27.038 65.8617 26.8122 65.7209 26.6437 65.471C26.4882 65.2406 26.4858 64.8432 26.3918 64.552C26.01 63.3692 25.3635 62.3422 24.8299 61.2298C24.4965 60.535 24.1955 59.8273 23.8771 59.1258C23.7221 58.7843 23.5451 58.4549 23.3819 58.1177C23.3179 57.9848 23.261 57.8607 23.2359 57.7133C23.2213 57.6282 23.2568 57.4555 23.2188 57.3858C23.1657 57.2882 23.02 57.0391 22.9437 56.8838C22.8322 56.6565 22.5976 56.5226 22.5425 56.2878C22.5076 56.1393 22.5659 56.0707 22.4739 55.9265C22.3614 55.7505 22.2959 55.7325 22.2627 55.5039C22.2126 55.1594 22.1039 54.948 21.8923 54.6674C21.6899 54.3993 21.5804 54.1454 21.4501 53.8389C21.3522 53.6087 21.0711 53.2719 21.1679 53.0117C21.2495 52.7925 21.5034 52.7625 21.7018 52.7137C22.045 52.6294 22.3799 52.5343 22.7145 52.4191C23.4203 52.1764 24.0379 51.8201 24.655 51.4046C25.2197 51.0245 25.8043 50.5406 26.4195 50.2517C26.9655 49.9957 27.5335 49.4484 28.0585 49.0581C28.6751 48.5996 29.3155 47.9842 30.0421 47.7094C29.2994 49.3872 29.029 51.161 28.8663 52.9793C28.6967 54.8743 28.6905 56.7262 28.7344 58.6243C28.7768 60.4663 28.7158 62.3054 29.0193 64.1342C29.1651 65.0122 29.3871 65.8687 29.5018 66.7526C29.5551 67.1637 29.712 68.3023 30.2608 68.3732C30.6058 68.4176 30.8246 68.0791 31.1149 68.4286C31.3246 68.6813 31.3536 69.0236 31.4535 69.3205C31.5617 69.6431 31.9045 69.8082 31.8465 70.1658C31.8176 70.3432 31.7277 70.3951 31.8579 70.5565C31.9329 70.6493 32.1239 70.7734 32.2198 70.8823C32.2207 70.8244 32.1838 70.6793 32.219 70.6325C32.2664 70.5693 32.3624 70.6274 32.4218 70.572C32.3617 70.6279 32.2817 70.5946 32.2402 70.653C32.1458 70.7864 32.2806 71.0416 32.3285 71.1654C32.447 71.4704 32.6048 71.7315 32.8028 71.9924C32.9904 72.24 33.1534 72.5612 33.3724 72.7801C33.5904 72.9976 33.8596 73.0778 34.0547 73.3371C34.2233 73.5611 34.3368 73.8147 34.5789 73.9712C34.8535 74.1485 34.9956 74.3007 35.1909 74.5596C35.6202 75.1279 36.416 75.4636 37.0187 75.8237C37.664 76.2095 38.3999 76.5319 39.1665 76.4788C39.2825 76.4706 39.4071 76.4421 39.5228 76.4642C39.7223 76.5022 39.6907 76.5825 39.8158 76.6777C40.002 76.8194 40.2141 76.8063 40.4544 76.8244C41.2387 76.8833 42.0551 76.8964 42.8322 77.0063C43.2154 77.0605 44.347 77.4213 44.4975 76.8793C45.0264 77.2593 45.5282 77.0488 46.1101 76.9175C46.6861 76.7876 47.3903 76.9512 47.9052 76.6114C48.1719 76.4355 48.206 76.3742 48.5439 76.3588C48.8275 76.3459 49.1149 76.3527 49.379 76.2322C49.6377 76.1144 49.759 76.0196 50.0491 75.9725C50.3861 75.9177 50.6556 75.7697 50.967 75.6373C51.582 77.6561 52.6141 79.4729 52.8363 81.6029C52.9488 82.6803 52.8741 83.6953 52.6918 84.7601C52.6131 85.2193 52.5506 85.6494 52.2968 86.0494C52.035 86.4626 51.6708 86.8272 51.3113 87.1557C50.6096 87.7977 49.8038 88.3105 48.9776 88.7757C48.1076 89.2658 47.2255 89.7594 46.3023 90.1417C45.3614 90.5315 44.4368 90.9334 43.5121 91.36C42.5239 91.8158 41.5643 92.0365 40.4968 92.2128C40.2284 92.2571 39.963 92.3105 39.7015 92.3857C39.4938 92.4452 39.1667 92.5992 38.9543 92.4675C38.6981 92.3088 38.5899 91.7199 38.4772 91.449C38.2821 90.9802 38.1348 90.4484 37.8454 90.0269C37.7458 89.8817 37.6949 89.7943 37.6371 89.6338C37.5737 89.4572 37.5533 89.289 37.3363 89.2249C37.2984 89.3953 37.1909 89.7022 37.432 89.7798C37.246 89.7199 37.2528 89.6018 37.3363 89.2249ZM35.7665 86.5418C35.7733 86.5638 35.7803 86.5842 35.7884 86.6015C35.7803 86.5842 35.7733 86.5638 35.7665 86.5418ZM32.3416 78.395C32.3166 78.3568 32.2917 78.3185 32.2666 78.2802C32.3589 78.243 32.3738 78.271 32.4291 78.3444C32.3999 78.3613 32.3707 78.3781 32.3416 78.395ZM26.0716 64.2429C25.98 64.134 25.9875 64.1622 26.0477 64.0768C26.1555 64.1232 26.1637 64.1787 26.0716 64.2429ZM26.1381 64.4584C26.0956 64.432 26.096 64.4058 26.139 64.3801C26.1846 64.4067 26.1843 64.4329 26.1381 64.4584ZM26.0512 65.01C26.0646 65.0891 26.1039 65.1417 26.1597 65.1774C26.1039 65.1419 26.0646 65.0891 26.0512 65.01ZM25.4269 63.3812C25.4156 63.4515 25.4045 63.5217 25.3931 63.5919C25.4155 63.4529 25.4392 63.3196 25.4178 63.1782C25.4424 63.3405 25.3967 63.3478 25.5179 63.4814C25.4877 63.448 25.4571 63.4147 25.4269 63.3812ZM30.9381 65.4894C30.9504 65.4615 30.9634 65.4338 30.9755 65.4059C30.9634 65.4338 30.9504 65.4615 30.9381 65.4894ZM38.9482 75.6189L38.9676 75.5187L38.9482 75.6189ZM42.8581 76.4066C42.8581 76.4723 42.8647 76.5402 42.8681 76.6056C42.8647 76.5393 42.8614 76.473 42.8581 76.4066ZM41.6021 76.65C41.6083 76.6437 41.6149 76.6376 41.6225 76.6316C41.6149 76.6376 41.6083 76.6437 41.6021 76.65ZM44.7835 76.6816C44.6758 76.7234 44.591 76.8148 44.4975 76.8789C44.5136 76.8231 44.73 76.7023 44.7835 76.6816ZM79.261 86.0982C79.0728 86.0138 78.8435 85.8304 78.9968 85.605C78.774 85.5705 78.7761 85.3483 78.7144 85.1786C78.6119 84.8958 78.4318 84.6576 78.2838 84.3989C78.8384 84.1495 79.454 84.098 80.0452 83.9879L79.261 86.0982ZM78.7911 86.7905C78.9555 86.565 79.1062 86.33 79.261 86.0982C79.2084 86.3088 78.9165 86.6184 78.7911 86.7905ZM72.7014 73.8178L72.7583 73.7692C72.7047 73.7732 72.686 73.7895 72.7021 73.8178H72.7014ZM71.4272 70.9767C71.394 70.9689 71.3676 70.94 71.3519 70.8921C71.3676 70.94 71.394 70.9689 71.4272 70.9767ZM70.9239 69.8822C70.7135 69.736 70.5512 69.5407 70.4279 69.3099C70.5512 69.5405 70.7135 69.7358 70.9239 69.8822ZM70.3833 69.2218C70.3549 69.1619 70.3289 69.0998 70.305 69.0361C70.3289 69.0998 70.3549 69.1619 70.3833 69.2218ZM70.599 68.7812C70.519 68.7721 70.3994 68.7588 70.3222 68.7973C70.3735 68.7717 70.4636 68.7698 70.599 68.7812ZM71.9718 71.0524C71.9136 71.0281 71.914 70.9546 71.8734 70.9214C71.8243 70.8813 71.7484 70.8861 71.7154 70.8579C71.5971 70.7568 71.628 70.8141 71.6125 70.6171C71.593 70.3699 71.4438 70.2308 71.3913 70.0309C71.3256 69.7801 71.4201 69.6535 71.2176 69.4498C70.9737 69.2045 70.6582 68.9913 70.5743 68.629C70.5359 68.4639 70.5909 68.3206 70.591 68.1578C70.5912 68.0388 70.4727 67.7995 70.524 67.6928C70.6144 67.5052 71.1715 67.4836 71.3646 67.4388C72.2788 67.2272 73.1934 67.0176 74.1079 66.8072C73.5264 68.2801 72.9007 69.7597 71.9718 71.0524ZM72.3115 73.2021C72.3239 73.2188 72.3352 73.2337 72.3461 73.2477C72.312 73.203 72.2783 73.1579 72.2449 73.1126C72.27 73.1456 72.2919 73.1755 72.3115 73.2021ZM70.5929 90.1575C70.6295 89.6922 70.8011 89.2516 70.901 88.7988C71.0137 88.2896 71.054 87.7702 71.053 87.2495C71.051 86.2583 70.948 85.2647 70.8906 84.2754C70.7721 82.2332 70.4404 80.2075 70.1357 78.1869C69.8448 76.2584 69.463 74.3568 68.5831 72.6002C68.1852 71.806 67.6726 71.0072 67.455 70.1382C67.4064 69.9442 67.4135 69.726 67.3485 69.5385C67.2771 69.3321 67.1346 69.2326 67.0075 69.0679C66.71 68.6831 66.5359 68.1653 66.323 67.7292C66.1264 67.3269 65.9644 66.8988 65.7354 66.5137C65.6437 66.3592 65.5444 66.2236 65.4109 66.1038C65.3155 66.0184 65.114 65.9386 65.0568 65.8217C64.9403 65.5851 65.2554 65.4013 65.4135 65.2257C65.7927 64.8049 66.1363 64.3448 66.4959 63.9067C66.7644 65.3074 67.0365 66.677 67.5805 68.0015C68.1067 69.2825 68.67 70.5419 69.2855 71.7826C70.4844 74.1987 71.6603 76.6275 72.7965 79.0723C73.0627 79.6448 73.3763 80.1645 73.6819 80.7143C74.0236 81.3289 74.309 81.9764 74.6384 82.5983C75.2661 83.7836 75.7885 85.0229 76.4306 86.1986C77.068 87.3658 77.8486 88.4328 78.5571 89.5548C78.74 89.8442 79.4079 90.602 79.3007 90.9669C79.2522 91.1314 79.0987 91.1294 78.9562 91.1559C78.5808 91.2264 78.1954 91.249 77.819 91.3167C77.0854 91.4488 76.3756 91.668 75.636 91.7871C74.9958 91.8904 74.3458 91.9342 73.7287 92.1456C73.3648 92.2702 73.0311 92.2803 72.6549 92.3414C72.3028 92.3986 71.961 92.5156 71.6155 92.602C70.8516 92.7932 70.0705 92.9035 69.2981 93.0549C69.8521 92.1544 70.5072 91.2462 70.5929 90.1575ZM68.98 78.0562C69.1454 79.0567 69.311 80.0572 69.4764 81.0576C68.6138 80.7264 67.695 80.483 66.9265 79.9503C67.5071 79.2147 68.2724 78.6598 68.98 78.0562ZM66.1043 70.007C66.445 70.1293 66.3597 70.275 66.207 70.5756C66.0522 70.8806 65.9097 71.1775 65.7876 71.4992C65.467 72.342 65.1918 73.2034 64.9071 74.0588C64.6388 74.8651 64.3666 75.671 64.1128 76.4819C64.0819 76.5807 64.0107 77.0016 63.8594 76.9915C63.6881 76.9802 63.529 76.2377 63.4789 76.099C63.178 75.2663 62.8243 74.4499 62.4187 73.6625C62.2946 73.4216 62.0042 73.075 62.0348 72.7837C62.064 72.5045 62.3587 72.3692 62.5677 72.2383C63.3111 71.7737 64.056 71.3106 64.7951 70.8386C65.0498 70.6759 65.2929 70.5091 65.5292 70.3216C65.649 70.2263 65.9274 69.9434 66.1043 70.007ZM54.1304 84.182C54.1271 84.1435 54.1253 84.1052 54.1259 84.0675C54.1253 84.1052 54.1271 84.1435 54.1304 84.182ZM54.1259 84.0647C54.1266 84.0262 54.1301 83.9882 54.1379 83.951C54.1301 83.9882 54.1266 84.0262 54.1259 84.0647ZM39.8358 95.6899C39.8225 95.687 39.8079 95.685 39.7898 95.685C39.8079 95.685 39.8225 95.687 39.8358 95.6899ZM40.0858 98.8744C40.2518 99.232 40.4092 99.5962 40.5884 99.9472C40.6893 100.145 40.9414 100.468 40.8048 100.697C40.6799 100.906 40.3364 100.868 40.1305 100.888C39.7422 100.925 39.3545 100.982 38.9676 101.03C39.3403 100.312 39.713 99.5931 40.0858 98.8744ZM39.898 95.7286C39.9376 95.7885 39.904 95.8955 39.9356 95.9551C39.9038 95.8957 39.9376 95.7885 39.898 95.7286ZM41.9987 100.326C41.908 100.235 42.0097 100.004 42.0034 99.8972C41.9888 99.6467 41.9285 99.7253 41.7646 99.6029C41.4462 99.3649 41.9411 99.1859 41.7511 98.8586C41.7173 98.8002 41.6159 98.7896 41.59 98.7297C41.5676 98.6784 41.5821 98.6184 41.5636 98.5696C41.5102 98.4292 41.4649 98.2656 41.4097 98.1179C41.3222 97.8846 41.2002 97.3589 40.85 97.4296C41.1695 96.7644 41.489 96.0993 41.8086 95.4342C42.5295 97.2773 43.3219 99.1197 44.5088 100.718C43.6782 100.718 42.8435 100.761 42.0165 100.662C42.1749 100.554 41.9981 100.455 41.9987 100.326ZM43.9349 104.332C43.8682 104.361 43.8079 104.34 43.7465 104.287C43.8079 104.34 43.868 104.361 43.9349 104.332ZM53.0457 98.6766C52.0858 99.3716 51.1486 100.098 50.2401 100.859C49.8478 99.7537 49.8136 98.5694 49.764 97.41C50.8008 97.9724 51.9794 98.1833 53.0457 98.6766ZM60.9051 95.0909C60.618 95.1231 60.3832 94.964 60.1303 94.8609C59.8331 94.74 59.5207 94.7006 59.2062 94.6487C58.5397 94.5387 57.8744 94.4205 57.2082 94.3097C58.1826 93.0665 59.1569 91.8232 60.1313 90.58C60.1285 92.1188 60.6213 93.593 60.9051 95.0909ZM64.8661 90.6867C65.0528 91.0446 65.2403 91.4022 65.4285 91.7593C65.5501 91.9899 65.6673 92.4097 65.8536 92.5918C66.0809 92.8139 66.3356 92.6176 66.2784 92.3362C66.2167 92.0314 65.9455 91.6796 65.7977 91.4133C65.6415 91.1324 65.4125 90.9832 65.7139 90.7997C65.9616 90.6487 66.3033 90.5567 66.5804 90.4811C67.3973 90.2574 68.2527 90.2612 69.0925 90.2917C68.7882 90.9824 68.4024 91.6473 67.9864 92.2765C67.808 92.5463 67.609 92.7891 67.376 93.0137C67.1942 93.1891 67.1283 93.4201 66.9542 93.5922C66.7545 93.7896 66.4536 93.8464 66.1909 93.9103C65.8798 93.9861 65.6055 94.0998 65.3053 94.2098C64.9854 94.327 64.6109 94.2841 64.3154 94.4209C64.0378 94.5491 63.8103 94.6533 63.5021 94.7225C62.8918 94.8598 62.3487 95.2159 61.7399 95.3282C61.4454 95.3825 61.4485 95.3241 61.3594 95.0355C61.2832 94.7879 61.2524 94.535 61.2077 94.2808C60.9366 92.7321 60.7089 91.1767 60.4398 89.6277C59.7419 90.4305 59.1194 91.296 58.4203 92.0969C58.0697 92.4983 57.6922 92.8745 57.3335 93.2679C57.1143 93.508 56.6566 93.8791 56.6556 94.2375C56.6541 94.7534 57.4946 94.8832 57.8719 94.9449C58.8518 95.1055 59.8568 95.138 60.7602 95.5978C60.4841 95.9052 60.0478 95.9702 59.6773 96.1016C59.1752 96.2797 58.6835 96.4914 58.1877 96.6859C57.9371 96.7843 57.6876 96.9054 57.43 96.9826C57.1574 97.0642 56.8738 97.0383 56.6027 97.1125C56.3913 97.1702 56.2194 97.3096 56.0169 97.3866C55.7856 97.4747 55.5614 97.4741 55.3189 97.5049C54.8003 97.5708 54.3349 97.7666 53.8555 97.9609C53.3802 98.1534 52.9825 98.1048 52.5079 97.938C51.4911 97.5806 50.4397 97.2992 49.4487 96.8724C49.3138 97.8873 49.2642 99.0354 49.5426 100.032C49.6432 100.393 49.9567 100.86 49.7124 101.22C49.5149 101.51 49.0352 101.721 48.7584 101.929C47.9161 102.562 47.084 103.244 46.1386 103.72C45.6745 103.953 45.2003 104.104 44.6862 104.18C44.5136 104.205 44.1456 104.31 44.007 104.229C43.9768 104.211 43.9919 104.116 43.9584 104.096C43.8404 104.025 43.8031 104.021 43.6627 104.001C43.9317 103.651 43.5096 103.652 43.3511 103.426C43.9453 102.95 42.9484 102.456 42.8005 102.048C43.1583 102.085 43.0443 101.83 42.9182 101.619C42.7341 101.313 42.4491 101.32 42.1116 101.245C42.3651 101.302 42.6087 101.393 42.8707 101.401C43.1234 101.408 43.3765 101.348 43.6266 101.318C43.9199 101.282 44.7468 101.37 44.9089 101.079C45.0755 100.779 44.6409 100.282 44.4932 100.043C44.1859 99.5455 43.8404 99.0757 43.5653 98.5581C43.0425 97.5743 42.5964 96.5327 42.1836 95.4986C41.9853 95.0015 41.7337 94.773 41.3934 95.3277C41.1427 95.7364 41.0625 96.2393 40.7408 96.6064C40.5217 96.3633 40.4963 96.1657 40.3918 95.8645C40.2757 95.5301 40.0611 95.2509 39.9184 94.9313C39.6084 94.2378 40.451 94.4073 40.8807 94.3591C41.5912 94.2795 42.2279 93.9713 42.8948 93.737C43.6075 93.487 44.3041 93.218 44.9937 92.9089C46.3638 92.2946 47.7648 91.7354 49.0402 90.9337C50.211 90.198 51.4658 89.5288 52.4211 88.5086C52.9387 87.9557 53.3319 87.3203 53.5815 86.6048C53.7169 86.217 53.8093 85.8199 53.9197 85.425C54.0156 85.0825 54.1771 84.7228 54.1475 84.36C54.1487 84.38 54.15 84.3997 54.1513 84.4196C54.5829 84.1118 54.4445 83.5941 54.4359 83.1462C54.4344 83.0666 54.4011 82.9576 54.4434 82.8822C54.4971 82.7866 54.6002 82.8804 54.6456 82.7523C54.6921 82.622 54.4998 82.3944 54.4646 82.2706C54.5252 82.3016 54.5857 82.3323 54.6465 82.3627C54.7119 81.9686 54.8152 81.5831 54.8028 81.1807C54.7903 80.7807 54.6944 80.3764 54.6115 79.9865C54.5341 79.6233 54.451 79.2575 54.3518 78.8994C54.3315 78.8266 54.3554 78.7182 54.2839 78.6671C54.1643 78.582 54.0124 78.7031 53.9864 78.8233C54.0118 78.706 54.0685 78.6685 54.0682 78.54C54.068 78.4103 54.0141 78.2639 53.9919 78.1355C53.9321 77.7873 53.8687 77.4402 53.7994 77.0939C53.7383 76.7892 53.6851 76.4788 53.6051 76.1786C53.5782 76.0774 53.5213 75.9697 53.5153 75.8643C53.5063 75.7083 53.5463 75.7316 53.5961 75.6174C53.6086 75.5884 53.6736 75.5534 53.6914 75.5147C53.7229 75.4465 53.6618 75.3408 53.6962 75.2704C53.7401 75.1807 53.8082 75.1553 53.896 75.1231C54.1794 75.0195 54.2824 75.0965 54.5106 74.8576C54.6964 74.6629 54.9435 74.5926 55.1737 74.4494C55.4488 74.278 55.6778 74.1756 55.9257 73.9484C56.1862 73.7096 56.4836 73.4987 56.7175 73.2329C56.8778 73.0511 56.9269 72.7276 57.134 72.5966C57.2598 72.5166 57.4246 72.521 57.5572 72.4369C57.6919 72.3518 57.8115 72.2239 57.9406 72.1298C58.2616 71.8961 58.6011 71.6882 58.9276 71.4626C60.2357 70.5579 61.5076 69.5589 62.6276 68.4273C63.1923 67.8568 63.7225 67.2518 64.2589 66.6549C64.3154 66.5922 64.6467 66.1179 64.7734 66.1422C64.9126 66.1689 65.0276 66.7681 65.0896 66.8959C65.4006 67.5362 65.686 68.1646 65.9261 68.837C66.0194 69.0983 66.1339 69.253 65.9319 69.4425C65.6843 69.6749 65.277 69.8253 64.9821 69.9978C64.2765 70.411 63.5695 70.8225 62.8679 71.2434C62.4941 71.4677 61.5874 71.8065 61.4576 72.2702C61.2914 72.8637 61.9729 73.6906 62.2216 74.1829C62.5677 74.868 62.8213 75.5824 63.0752 76.3047C63.1819 76.6077 63.5267 77.91 64.0129 77.7927C64.2614 77.7326 64.3575 77.4248 64.4375 77.2167C64.5717 76.8677 64.7018 76.5169 64.8281 76.1652C65.4451 74.4437 65.9981 72.7001 66.6793 71.0023C67.2368 72.0025 67.6837 73.0638 68.1543 74.1066C68.3594 74.5611 68.511 75.0103 68.6096 75.4994C68.7045 75.9714 68.8836 76.5569 68.8588 77.0415C68.8096 78.0054 64.8807 79.4444 66.6713 80.6068C67.4539 81.1145 68.4725 81.1985 69.2649 81.6774C69.6842 81.9307 69.6706 82.3542 69.6565 82.7921C69.6389 83.3394 69.6811 83.8903 69.7113 84.4367C69.7771 85.6231 69.9812 86.8964 69.7322 88.0677C69.65 88.4542 69.6266 88.956 69.4886 89.3218C69.3031 89.8133 68.5559 89.6328 68.1352 89.623C67.7192 89.6134 64.4096 89.8112 64.8661 90.6867ZM79.978 89.0743C80.1313 88.9792 80.1371 89.016 80.0203 89.1574C80.0062 89.1297 79.992 89.102 79.978 89.0743ZM81.0717 90.6503C80.9902 90.7632 80.8294 90.7683 80.7528 90.7462C80.8294 90.7681 80.9901 90.7632 81.0717 90.6503ZM35.0689 63.8234C36.1656 62.8293 37.5108 62.1118 38.6704 61.1878C39.9269 60.1867 41.2377 59.2588 42.5486 58.3311C45.1593 56.4844 47.7159 54.5753 50.3647 52.7821C52.9855 51.0075 55.712 49.4091 58.4768 47.8712C59.7492 47.1633 60.9331 46.2922 62.2501 45.6716C62.9406 45.346 63.6247 45.0078 64.3232 44.6988C64.6613 44.5492 64.8583 44.4934 65.1132 44.7979C65.2941 45.0141 65.419 45.2765 65.5786 45.5083C66.0489 46.1913 66.5323 46.8592 67.1192 47.4474C67.3759 47.7046 68.2404 48.5839 68.6425 48.209C68.8029 48.0595 68.826 47.7517 68.8881 47.5503C69.0168 47.1318 69.165 46.7168 69.3095 46.3034C69.6039 45.4613 69.9444 44.6366 70.2693 43.8059C70.9491 44.1479 71.6554 44.4282 72.2464 44.9199C72.8138 45.3916 73.3335 45.8936 73.8407 46.4271C74.0408 46.6376 74.0946 46.6438 73.9879 46.9001C73.939 47.0176 73.8613 47.0681 73.9267 47.2073C73.9794 47.3201 74.15 47.3306 74.1474 47.489C74.1447 47.6444 73.8739 47.8836 73.7576 47.9633C73.4425 48.179 73.0348 48.3132 72.6905 48.479C72.308 48.6632 71.2918 48.9415 71.173 49.4175C71.0872 49.7609 71.4142 49.9728 71.6509 50.1545C71.9683 50.3982 72.292 50.6345 72.6023 50.8877C73.2228 51.3942 73.7826 51.9801 74.2625 52.6209C74.7059 53.2127 75.0053 53.8897 75.4282 54.4895C75.5683 54.6883 75.8842 55.1299 76.1545 54.8913C76.3761 54.6958 76.3898 54.0989 76.4487 53.8289C76.6445 52.9319 76.8619 52.0197 77.1772 51.1565C77.9947 52.4834 78.5754 53.89 79.1969 55.3151C79.8439 56.7983 80.5336 58.2616 81.162 59.7532C81.3179 60.123 81.8527 60.8342 81.5504 61.2109C81.4049 61.3923 81.1407 61.4922 80.9502 61.6189C80.6336 61.8298 80.3311 62.067 80.0265 62.2941C79.4334 62.7358 78.6601 63.1734 78.1907 63.7514C77.7595 64.2822 78.356 64.7744 78.7851 65.0525C79.4339 65.473 80.2052 65.6366 80.9285 65.8805C81.7213 66.1478 82.4909 66.5336 83.3286 66.6441C83.3024 66.287 83.3029 65.9598 82.9562 65.7673C82.5583 65.5466 82.0678 65.4663 81.637 65.3302C80.6532 65.0195 79.6851 64.6474 78.7249 64.2716C79.7417 63.3304 80.8211 62.4589 81.9281 61.6266C82.9814 63.9897 83.3506 66.5754 84.3942 68.934C85.4379 71.2935 86.4621 73.698 86.966 76.2438C86.8545 76.1582 86.743 76.0724 86.6315 75.9868C85.6686 77.3169 85.4243 79.0458 84.3438 80.3031C84.1737 79.495 83.7099 78.8321 83.3126 78.1255C83.1276 77.7965 82.711 77.1052 82.9861 76.734C83.1592 76.5004 83.6498 76.4798 83.9103 76.4162C84.3487 76.3092 84.7669 76.1325 85.1829 75.9597C85.4723 75.8396 85.8227 75.7646 86.0919 75.6056C86.3048 75.4802 86.5129 75.173 86.1367 75.1737C85.8128 75.1744 85.4277 75.3947 85.1232 75.4926C84.6798 75.6352 84.2331 75.7676 83.7822 75.8844C83.4914 75.9597 83.1726 75.9664 82.8888 76.059C82.5137 76.1813 82.4765 76.4642 82.5097 76.8267C82.583 77.6249 82.9469 78.3049 83.3565 78.9779C83.5679 79.3254 83.7744 79.6682 83.8966 80.059C83.9767 80.3159 84.0172 80.6605 84.2701 80.816C84.8602 81.1787 85.3918 79.6772 85.5664 79.3254C86.0604 78.3311 86.5246 77.3221 87.0012 76.3195C87.2395 76.5203 87.2954 76.8511 87.3859 77.1317C87.4864 77.4437 87.5958 77.7532 87.7005 78.0638C87.8223 78.4255 87.9298 78.7966 88.0707 79.1517C88.1624 79.3828 88.3392 79.6367 88.3068 79.8951C88.268 80.204 87.9527 80.4723 87.7697 80.7055C87.5705 80.9592 87.3895 81.2272 87.2027 81.4899C86.7756 82.0905 86.3333 82.6816 85.9261 83.2962C85.5164 83.914 85.1774 84.5741 84.7764 85.197C84.3935 85.7912 83.9736 86.3615 83.5637 86.9372C83.1726 87.4864 82.8759 88.0712 82.5127 88.634C82.0877 89.2921 81.5831 89.9031 81.1175 90.5323C81.1175 90.4759 80.9345 90.3657 80.8961 90.3145C80.8133 90.2043 80.8782 90.1331 80.7184 90.1049C80.5634 90.0775 80.553 90.2682 80.388 90.1112C80.2883 90.0163 80.2993 89.843 80.3379 89.751C80.389 89.6301 80.4863 89.6696 80.4742 89.5087C80.4698 89.4524 80.3741 89.4048 80.3542 89.3539C80.3213 89.2699 80.3474 89.1698 80.3273 89.0844C80.2498 88.7545 79.9173 88.5436 79.7143 88.8791C79.6913 88.8018 79.6682 88.7243 79.6453 88.6471C79.7095 88.6523 79.7741 88.6576 79.8386 88.6629C79.7915 88.3813 79.8487 88.1017 79.7474 87.8546C79.6563 87.6328 79.5585 87.4949 79.6256 87.2586C79.6976 87.0046 79.8766 86.6591 79.9898 86.3788C80.1368 86.0147 80.2662 85.6434 80.3935 85.2723C80.5722 84.7521 80.951 83.9691 80.5958 83.4474C80.4202 83.1894 80.2052 83.2061 79.9271 83.2722C79.5351 83.3653 79.1415 83.4746 78.7559 83.5911C78.5027 83.6676 78.1919 83.7967 77.9349 83.6625C77.6659 83.5217 77.5479 83.0956 77.4412 82.8391C77.2766 82.4433 77.1223 82.0511 76.9118 81.6764C76.7348 81.3613 76.6145 81.0008 76.379 80.7274C76.1894 80.507 76.0047 80.2804 75.9521 79.985C75.9342 79.8846 75.9766 79.759 75.9239 79.6654C75.8645 79.5602 75.7344 79.5421 75.67 79.4153C75.5185 79.1178 75.6393 78.7994 75.285 78.591C75.1488 78.5108 74.6269 78.3651 75.0744 78.2349C74.876 77.7115 74.6357 77.2057 74.3986 76.6991C74.28 76.4463 74.161 76.1934 74.0486 75.9375C73.9954 75.816 73.9569 75.6483 73.887 75.5374C73.8326 75.4508 73.7548 75.4219 73.7047 75.3501C73.5855 75.1797 73.6214 75.0761 73.5722 74.8805C73.5196 74.6704 73.3502 74.4982 73.2292 74.3249C72.8997 73.853 72.7796 73.298 72.6148 72.7547C72.5428 72.5171 72.4138 72.2459 72.385 71.9982C72.3587 71.772 72.4281 71.7277 72.5609 71.5138C72.8805 70.9996 73.1843 70.4756 73.4592 69.9361C73.6909 69.4818 73.8779 69.0085 74.0992 68.5499C74.2886 68.1578 74.5312 67.7836 74.6468 67.3598C74.7462 66.9946 74.7301 66.5927 74.4401 66.3149C74.0546 65.9454 73.4881 66.1943 73.0479 66.3126C72.4882 66.4628 71.9286 66.6134 71.3693 66.7648C71.0975 66.8383 70.3604 67.2161 70.1176 66.9594C70.0187 66.8547 70.0438 66.6793 70.0297 66.5484C70.0088 66.3546 69.9543 66.2024 69.8696 66.0258C69.7758 65.8307 69.6533 65.6515 69.5934 65.4413C69.5393 65.2521 69.5694 65.078 69.4313 64.9292C69.3011 64.7885 69.2793 64.862 69.2684 64.6461C69.2579 64.4455 69.3007 64.3225 69.1985 64.1214C69.1054 63.9384 68.9634 63.7832 68.8837 63.5926C68.822 63.4444 68.8418 63.3304 68.8179 63.1729C68.755 62.7596 68.3008 62.3373 68.3805 61.917C68.453 61.5338 68.8952 61.3417 68.9465 60.9222C69.0756 59.862 67.8319 60.5735 67.4497 60.8623C67.3286 60.9537 67.1915 61.1336 67.0208 61.0901C66.8877 61.0563 66.8515 60.8619 66.7299 60.8231C66.3935 60.7158 66.5507 61.3833 66.4614 61.5846C66.2575 62.0447 65.7653 62.4023 65.4378 62.774C65.0347 63.2313 64.673 63.724 64.282 64.1916C64.1579 64.3398 63.7781 64.9406 63.5429 64.9781C63.1601 65.0392 63.6697 64.4201 63.7326 64.3237C64.0134 63.8934 64.1879 63.3788 64.3817 62.9063C64.6031 62.3661 64.8568 61.8433 65.1177 61.3213C65.3674 60.8218 65.6203 60.3231 65.837 59.8081C65.9736 59.4837 66.3036 58.956 66.2394 58.5908C66.1684 58.1876 65.7394 58.2141 65.4154 58.2524C64.8777 58.3163 64.3406 58.4058 63.8058 58.4902C62.4624 58.7023 61.0971 58.803 59.7666 59.0826C59.527 59.1329 58.311 59.2957 58.4587 59.6282C58.5704 59.8794 59.5502 59.5789 59.7274 59.5537C60.3789 59.4608 61.0308 59.3805 61.6856 59.3171C62.3794 59.25 63.0712 59.1842 63.7578 59.0612C64.4332 58.9402 65.1003 58.7071 65.7879 58.6673C65.4242 59.8673 64.7163 60.9751 64.2223 62.1267C63.9785 62.6952 63.7187 63.2539 63.4595 63.8154C63.339 64.0759 63.2069 64.6074 62.8883 64.6906C62.5307 64.784 62.1864 64.2762 61.9968 64.0406C61.6242 63.5778 61.3149 63.074 61.0176 62.5608C60.8503 62.2719 59.4286 59.5949 59.1306 59.7804C59.0202 59.8491 61.0911 63.3415 61.3149 63.6641C61.6498 64.1471 62.1484 64.9881 62.7494 65.1691C62.8664 65.2045 63.2001 65.1595 63.2185 65.3062C63.2363 65.4487 62.8334 65.5906 62.7446 65.6452C62.1511 66.0096 61.6679 66.568 61.1641 67.0417C60.5901 67.5815 59.9571 68.0416 59.3207 68.5039C59.0809 68.678 58.84 68.8491 58.6176 69.0452C58.4401 69.2022 58.2285 69.4571 57.9917 69.5204C57.7707 69.5797 57.7188 69.4752 57.6098 69.2961C57.4015 68.9541 57.186 68.6163 56.9752 68.2759C56.1487 66.9418 55.2526 65.7079 54.1014 64.6305C53.9608 64.4992 53.7489 64.3049 53.6273 64.5369C53.468 64.8404 53.7962 64.9458 53.9761 65.0674C54.5687 65.4678 55.0472 66.1878 55.4713 66.7523C55.9637 67.4079 56.4066 68.0951 56.844 68.7878C57.0532 69.1195 57.6391 69.6466 57.0927 69.9092C56.5079 70.1903 55.7536 70.1998 55.1318 70.3936C54.389 70.6251 53.6854 70.9641 52.9412 71.1962C52.3041 71.3949 51.6535 71.5216 51.0107 71.6925C50.8499 71.7352 50.5034 71.8067 50.4428 71.9977C50.3727 72.2197 50.587 72.2501 50.7508 72.2557C51.3153 72.2756 51.992 72.1016 52.53 71.9642C52.9629 71.8535 53.3927 71.7189 53.8163 71.5775C54.0936 71.485 54.3073 71.2963 54.4658 71.6053C53.9968 71.8109 53.572 72.0481 53.0937 72.2222C52.9247 72.2838 52.83 72.4168 52.6795 72.5104C52.4686 72.6412 52.2031 72.689 51.9726 72.7784C51.477 72.9707 51.0152 73.2344 50.5079 73.3995C49.9711 73.5746 49.4142 73.6798 48.8744 73.8452C48.4556 73.9735 48.1282 74.2221 47.6779 74.2411C47.4399 74.2513 47.1971 74.2214 46.96 74.2581C46.7451 74.2913 46.5644 74.4182 46.354 74.4497C46.2037 74.4721 45.984 74.4462 45.836 74.434C45.7679 74.4283 45.7193 74.4446 45.6473 74.4373C45.5944 74.432 45.533 74.3497 45.4711 74.34C45.259 74.3074 44.9856 74.4217 44.7654 74.4205C44.5312 74.4194 44.2956 74.3933 44.0625 74.3727C43.6237 74.3342 43.14 74.3074 42.7592 74.0694C42.401 73.8454 42.038 73.9508 41.6433 73.787C41.2168 73.6101 40.8174 73.7559 40.3996 73.6209C40.227 73.565 40.155 73.625 39.9798 73.6137C39.7662 73.6 39.5213 73.3338 39.3277 73.2406C38.3901 72.79 37.5352 72.2967 36.7962 71.5507C36.4849 71.2365 36.253 70.8552 35.848 70.6641C35.4634 70.4824 35.3621 70.1001 35.0801 69.7899C34.8184 69.5017 33.7424 68.6078 34.0815 68.2024C34.195 68.0665 34.4789 68.0181 34.638 67.956C34.8939 67.8559 35.1444 67.7406 35.3978 67.6344C35.9749 67.3927 36.5602 67.1788 37.1574 66.9914C36.9498 67.6047 36.7664 68.232 36.5225 68.832C36.4503 69.0089 36.2945 69.2365 36.3111 69.4373C36.3317 69.6841 36.5594 69.7524 36.681 69.9421C36.8751 69.4335 37.0562 68.9193 37.2568 68.4135C37.4224 67.9958 37.6713 67.5252 37.6418 67.0621C37.5691 65.9196 36.3387 66.6685 35.7737 66.9131C35.3266 67.1068 34.8783 67.2981 34.4311 67.4914C34.175 67.6021 33.7984 67.8272 33.5141 67.696C33.1534 67.5296 33.1632 67.0107 33.2543 66.6924C33.4024 66.1749 33.3397 66.0175 32.9075 65.6902C33.6289 65.0692 34.3634 64.4627 35.0689 63.8234ZM63.6058 42.1202C63.7029 42.3737 64.1139 43.0654 63.9327 43.2934C63.8338 43.418 63.4095 43.5202 63.2612 43.5861C62.9779 43.7119 62.6947 43.8376 62.4113 43.9634C62.8097 43.3491 63.2078 42.7347 63.6058 42.1202ZM69.697 43.7313C69.3797 44.5578 69.0963 45.3949 68.832 46.2396C68.7382 46.5389 68.5686 47.7444 68.1193 47.6809C67.8807 47.6472 67.6402 47.3288 67.4738 47.1743C67.1987 46.9187 66.9458 46.6512 66.7045 46.3628C66.1918 45.7502 65.6404 45.1394 65.275 44.4229C66.6703 43.8355 68.2056 43.7832 69.697 43.7313ZM74.7905 47.4295C74.7564 47.395 74.723 47.3614 74.6903 47.3284C74.723 47.3614 74.7564 47.395 74.7905 47.4295ZM75.2195 48.25C75.5299 48.7384 75.831 49.2352 76.1437 49.7232C75.9413 49.4076 75.7455 49.087 75.5419 48.7722C75.3474 48.4715 75.367 48.4229 75.0185 48.5397C75.1777 48.9486 75.2487 49.3603 75.6567 49.5953C76.1311 49.8686 76.5579 49.9665 76.691 50.5834C76.8128 51.1491 76.5229 51.724 76.3714 52.254C76.1763 52.9367 76.0463 53.6393 75.8777 54.3289C75.4858 54.1641 75.3338 53.6934 75.1644 53.3419C74.9276 52.8509 74.6268 52.3797 74.2924 51.9496C73.5719 51.023 72.6266 50.305 71.7226 49.5695C72.4123 49.2153 73.1031 48.8625 73.7923 48.5066C74.2172 48.2874 74.873 47.7056 75.2195 48.25ZM89.7269 88.5574C90.5552 87.1776 91.3424 85.7687 92.2229 84.4211C92.649 83.7691 93.1222 83.1496 93.5888 82.5263C93.9736 82.0126 94.312 81.4122 94.773 80.965C95.2691 80.4836 95.7105 79.9409 96.1745 79.4278C96.3907 79.1887 96.5639 78.9145 96.7974 78.6914C97.0599 78.4406 97.3572 78.2279 97.6261 77.9836C98.1662 77.4931 98.6441 76.9351 99.1981 76.4602C99.7523 75.9851 100.358 75.5422 100.956 75.1237C101.418 74.8002 102.034 74.2624 102.626 74.2621C103.255 74.2617 103.172 75.0104 103.181 75.4701C103.198 76.2274 103.081 76.9831 102.986 77.7323C102.888 78.502 102.771 79.267 102.559 80.015C102.156 81.4429 101.727 82.928 101.173 84.3045C100.896 84.9943 100.54 85.6459 100.237 86.3239C100.035 86.7749 99.8929 87.3532 99.4457 87.6308C99.142 87.819 98.7272 87.837 98.3822 87.8983C97.9359 87.9776 97.4882 88.0491 97.0421 88.1303C96.2168 88.2804 95.38 88.3521 94.5553 88.5041C93.6879 88.6641 92.8385 88.7817 91.961 88.877C91.5014 88.9269 91.0607 89.0344 90.6073 89.1204C90.1922 89.1992 89.7569 89.18 89.3515 89.3072C89.4756 89.0568 89.5828 88.7973 89.7269 88.5574ZM83.345 90.1746C83.5063 90.0704 83.5141 89.8907 83.5753 89.7292C83.6427 89.5513 83.7587 89.4217 83.8516 89.2593C84.0355 88.9382 84.0506 88.6269 84.2968 88.3443C84.8553 87.7035 85.0468 86.7749 85.4733 86.0478C86.5064 84.2855 87.5269 82.5192 88.5185 80.7319C88.8394 81.3817 89.1506 82.0374 89.4851 82.6804C89.7561 83.2011 90.2409 83.7925 90.3549 84.3745C90.4509 84.8648 89.8679 85.4715 89.6432 85.8749C89.3104 86.4721 88.9737 87.0771 88.7115 87.7096C88.4936 88.2348 88.3775 88.8448 88.0406 89.3127C87.7054 89.7787 87.1519 89.7033 86.6426 89.7684C85.9776 89.8535 85.3231 90.0071 84.6647 90.1298C84.3637 90.1857 84.0806 90.2478 83.7922 90.3508C83.6511 90.4011 83.1017 90.5574 83.345 90.1746ZM79.6865 52.6929C81.2768 52.7945 82.4943 52.1107 83.8382 51.3744C84.5203 51.0009 85.1474 50.5497 85.801 50.1306C86.449 49.7152 87.1205 49.3175 87.7327 48.8494C88.0016 48.6436 88.2139 48.3805 88.4719 48.1631C88.7155 47.958 89.0079 47.8209 89.236 47.5959C89.6784 47.1597 90.1658 46.6453 90.4922 46.1181C91.2888 44.8314 92.2597 43.6609 93.1918 42.4735C93.7131 41.8094 94.1416 41.0806 94.5991 40.3729C95.0736 39.6386 95.5562 38.909 95.9783 38.1427C98.8717 44.2951 101.822 50.42 104.739 56.5609C106.23 59.6996 107.72 62.8384 109.208 65.9781C109.921 67.4823 110.679 68.9626 111.43 70.4477C112.163 71.8973 112.791 73.4169 113.463 74.8969C113.831 75.7095 114.318 76.4569 114.668 77.2796C115.014 78.0915 115.413 78.8809 115.841 79.652C116.263 80.4109 116.609 81.2076 117.033 81.9623C117.448 82.701 117.677 83.5365 118.151 84.2434C116.782 84.5247 115.407 84.7729 114.047 85.0991C113.373 85.2612 112.686 85.3669 112.012 85.5307C111.349 85.6923 110.716 85.967 110.039 86.0748C108.64 86.2975 107.237 86.5356 105.832 86.723C105.127 86.817 104.417 86.8381 103.71 86.9108C102.977 86.9865 102.263 87.1645 101.538 87.2916C101.578 86.8029 101.851 86.3634 102.04 85.922C102.26 85.4081 102.466 84.8851 102.636 84.3524C102.973 83.2922 103.249 82.1914 103.531 81.1147C104.078 79.0292 104.62 76.6591 104.135 74.5065C103.973 73.7888 103.586 73.023 102.888 72.6989C101.978 72.2768 101.103 72.9502 100.362 73.4237C99.416 74.0284 98.5535 74.7582 97.7177 75.5051C97.3141 75.8658 96.9228 76.2251 96.5729 76.6389C96.235 77.0385 95.8295 77.3161 95.4765 77.6919C93.7853 79.4928 92.3184 81.4915 91.0384 83.6022C90.8111 83.0201 90.6312 82.4387 90.2947 81.906C90.0378 81.4992 89.7533 81.112 89.4637 80.7284C89.2687 80.4702 88.9793 80.1363 89.135 79.8003C89.2961 79.453 89.8143 79.2874 89.7146 78.8301C89.5053 78.9525 89.2959 79.075 89.0864 79.1973C88.4711 77.2345 87.7282 75.3201 87.1135 73.358C86.8094 72.387 86.5177 71.4113 86.1938 70.4465C85.8934 69.5515 85.4476 68.721 85.0591 67.8633C84.2593 66.0989 83.9938 64.1612 83.3146 62.355C83.1769 61.9891 82.9711 61.6533 82.8362 61.2879C82.776 61.1243 82.7247 61.0035 82.806 60.8497C82.8557 60.7561 83.0291 60.7061 83.0498 60.5999C83.1004 60.3412 82.6458 60.4474 82.4966 60.3082C82.3766 60.1962 82.328 59.9626 82.2644 59.8139C82.1484 59.5431 82.0384 59.2698 81.9254 58.9977C81.0309 56.8432 80.0694 54.7159 79.0672 52.6095C79.2734 52.6379 79.4784 52.6795 79.6865 52.6929ZM95.0325 32.1999C94.9397 32.0602 94.9445 31.8465 94.8198 31.7267C94.6943 31.606 94.5495 31.6379 94.4378 31.5005C94.3968 31.4501 94.2425 31.1686 94.2217 31.1044C94.2119 31.0736 94.2413 30.9599 94.2206 30.8924C94.1827 30.7686 94.0681 30.7108 94.006 30.6066C93.7384 30.1573 94.188 30.0197 94.2898 29.6027C94.3488 29.3599 94.3214 29.2063 94.5166 29.0214C94.6656 28.8804 94.9036 28.7231 95.0816 28.6156C95.2084 28.5389 95.2142 28.5608 95.3446 28.5196C95.4035 28.5011 95.4336 28.5369 95.5056 28.5082C95.6435 28.4529 95.7742 28.2613 95.8733 28.1587C96.165 27.8564 96.3283 27.6264 96.2261 27.1973C96.1766 26.9897 96.0925 26.624 95.8218 26.6701C95.6728 26.6954 95.4825 26.9635 95.3771 27.0644C95.1745 27.2587 94.9737 27.4932 94.739 27.651C94.575 27.7613 94.3739 27.749 94.2171 27.8458C94.02 27.9676 94.0417 28.1672 93.9488 28.3577C93.7559 28.7529 93.2178 29.0694 92.8858 29.3409C92.5483 29.6168 92.2011 29.8871 91.8107 30.0852C91.4607 30.2628 90.8582 30.5195 90.4578 30.3927C89.7738 30.1758 90.8979 28.5953 91.1395 28.2958C91.6305 27.6871 92.7837 27.1938 92.6244 26.2735C92.5524 25.8572 92.3015 25.5723 91.8713 25.7545C91.3373 25.9807 90.866 26.4101 90.3422 26.6729C89.7947 26.9476 89.2282 27.183 88.666 27.4253C88.3582 27.558 88.0483 27.6863 87.7423 27.8227C87.5075 27.9274 87.2596 28.0807 86.9937 27.9941C87.8246 26.8445 88.6561 25.6893 89.5993 24.6276C90.0428 24.1282 90.5506 23.7069 91.0698 23.2892C91.4582 22.9766 91.8978 22.6515 91.8713 22.0981C91.8512 21.6781 91.6157 21.1166 91.1177 21.2128C90.798 21.2746 90.5242 21.5527 90.2237 21.673C89.9653 21.7764 89.7669 21.8726 89.5276 22.012C89.2616 22.1671 88.9198 22.1899 88.6274 22.2657C88.3066 22.3488 87.99 22.4499 87.6661 22.5203C86.9747 22.6708 86.2739 22.6293 85.5717 22.6293C86.1588 21.6186 87.0892 20.8889 87.9728 20.1522C88.4707 19.737 88.9322 19.2802 89.434 18.8697C89.9296 18.4645 90.4669 18.1133 90.9603 17.705L91.0711 18.1337C91.3036 18.0229 91.3638 17.7217 91.5911 17.5925C91.8704 17.4335 92.2132 17.4999 92.5088 17.5694C93.1514 17.7211 93.7216 18.0329 94.2178 18.4646C95.2397 19.3537 95.9851 20.5048 96.578 21.7123C96.8935 22.355 97.1729 23.0174 97.4142 23.6914C97.5316 24.0193 97.6427 24.362 97.6471 24.7138C97.6523 25.1009 97.4795 25.4326 97.3838 25.7988C97.2013 26.4972 97.1583 27.2411 97.062 27.9555C96.9597 28.714 96.9034 29.4738 96.8392 30.2359C96.8052 30.64 96.7547 31.0409 96.691 31.4413C96.6714 31.5637 96.6726 31.7361 96.6152 31.8462C96.5626 31.9475 96.4255 31.987 96.3777 32.0871C96.3228 32.2016 96.3656 32.1966 96.4013 32.3464C96.4473 32.5388 96.4209 32.6811 96.3658 32.8723C96.2456 33.2895 96.1204 33.7043 96.0065 34.1236C95.6889 33.9922 95.2899 33.6613 95.1662 33.3268C95.099 33.1451 95.1626 33.0362 95.189 32.8567C95.225 32.6119 95.1684 32.4049 95.0325 32.1999ZM86.3828 14.6465C86.3882 14.6539 86.3944 14.6612 86.4012 14.6684C86.3944 14.6612 86.3882 14.6539 86.3828 14.6465ZM83.1933 7.54127C83.1877 7.53546 83.1809 7.52998 83.1724 7.52534C83.1809 7.52998 83.1877 7.53546 83.1933 7.54127ZM83.1792 7.82634C83.1519 7.75018 83.2443 7.62772 83.2041 7.55604C83.2167 7.5786 83.1724 7.82634 83.1792 7.82634ZM102.115 49.1632C102.161 49.231 102.207 49.2986 102.252 49.3663C102.207 49.2987 102.161 49.231 102.115 49.1632ZM102.77 49.19C102.751 49.1544 102.732 49.1182 102.711 49.0822C102.732 49.1182 102.751 49.1544 102.77 49.19ZM103.164 49.8445C103.171 49.8314 103.178 49.8184 103.188 49.802C103.169 49.8671 103.139 49.8614 103.096 49.7851C103.119 49.8052 103.142 49.8244 103.164 49.8445ZM103.456 50.292C103.451 50.2633 103.446 50.2338 103.443 50.2037C103.446 50.2338 103.451 50.2633 103.456 50.292ZM17.8535 51.0104C17.6928 50.9322 17.4655 50.6952 17.2762 50.6941C17.1939 50.6936 17.0155 50.7487 17.1147 50.8472C17.162 50.8944 16.7877 50.8474 16.7824 50.8461C16.56 50.7907 16.3406 50.7062 16.1241 50.6317C15.7409 50.4999 15.361 50.3592 14.9791 50.2245C14.2122 49.9537 13.4945 49.5856 12.7475 49.268C11.3045 48.6547 10.0802 47.8056 8.85513 46.8358C6.3422 44.846 4.74458 41.9377 3.26609 39.1546C4.76914 39.2879 6.32876 39.3512 7.78402 38.8816C9.29818 38.3931 10.5078 37.5261 11.7962 36.6316C11.8796 36.8523 11.9633 37.0733 12.0469 37.294C12.168 37.056 12.2892 36.8177 12.4103 36.5798C14.6239 41.5165 16.8373 46.4534 19.0509 51.3903C18.643 51.2954 18.2318 51.1947 17.8535 51.0104ZM3.25846 43.4445C3.65836 43.6256 3.75411 43.8038 3.75627 44.285C3.75411 43.8041 3.65836 43.6257 3.25846 43.4445ZM3.53773 23.8544C3.53507 23.8753 3.53342 23.8967 3.53375 23.9193C3.53342 23.8967 3.53507 23.8753 3.53773 23.8544ZM1.9864 27.257C2.03751 27.0702 2.08911 26.8835 2.14055 26.6968C2.16926 27.0616 2.37419 27.1927 1.93064 27.3589C1.94923 27.3249 1.96781 27.2909 1.9864 27.257ZM2.32176 27.6671C2.2821 27.7303 2.26865 27.715 2.28143 27.6213C2.29487 27.6365 2.30832 27.6518 2.32176 27.6671ZM4.33571 22.6641C5.24388 21.5069 6.12483 20.3287 7.12625 19.249C7.91875 18.3948 8.82327 17.4408 10.0255 17.2326C9.92607 18.3344 9.16758 19.2256 8.56673 20.1016C8.23055 20.5916 7.90067 21.0643 7.50657 21.51C7.15014 21.9129 6.95168 22.3611 7.18681 22.8853C7.32769 23.1994 7.62986 23.6453 8.02163 23.5919C8.25428 23.56 8.469 23.3323 8.65136 23.2003C8.91154 23.0116 9.1865 22.8428 9.45548 22.6674C9.96225 22.3366 10.4705 22.0112 10.9871 21.6959C11.4504 21.4133 11.9392 20.9815 12.5034 20.9399C12.296 21.4916 12.0089 22.0063 11.7349 22.5264C11.4555 23.0566 11.2031 23.6099 10.8422 24.092C10.4894 24.5631 10.0417 24.8681 9.59918 25.2418C9.22101 25.5609 9.25005 26.0134 9.45681 26.4342C9.69841 26.9258 10.0572 27.2013 10.4934 26.7924C10.965 26.3505 11.4145 25.9679 11.9468 25.5998C12.3945 25.2907 12.8226 25.1025 13.3228 24.8876C13.5221 24.802 13.9261 24.5223 14.1528 24.6416C14.4641 24.8055 14.1963 25.6063 14.1345 25.8663C13.9903 26.4742 13.763 27.0647 13.46 27.611C12.9424 28.5447 12.3924 29.5138 11.5059 30.1365C10.7831 30.6441 9.10287 31.1827 9.65427 32.3227C9.89521 32.8209 10.1662 33.3075 10.4211 33.7989C10.5792 34.1039 11.1334 34.7779 10.9325 35.1431C10.7974 35.3887 10.3417 35.5593 10.1098 35.6987C9.79449 35.888 9.47705 36.0735 9.15481 36.2507C8.56242 36.5765 7.95526 36.8785 7.32537 37.1254C6.04568 37.6265 4.63854 37.6882 3.37329 38.2287C3.44812 38.198 3.52362 38.1691 3.60012 38.1422C3.37976 38.1041 3.29065 37.7578 3.21316 37.5832C3.17549 37.4981 3.09468 37.3829 3.07676 37.293C3.05585 37.1884 3.12887 37.1153 3.12239 37.0557C3.10796 36.9238 3.04191 36.9492 2.9928 36.8625C2.90784 36.7129 2.94517 36.7379 2.92194 36.5745C2.90535 36.4587 2.8481 36.3739 2.82006 36.2625C2.76978 36.0634 2.83765 35.8698 2.8725 35.6741C2.33155 35.7191 3.05618 35.083 2.99031 34.8947C2.92775 34.7162 2.72199 34.6813 2.69279 34.4625C2.66176 34.2313 2.69212 33.9809 2.66076 33.7415C2.62907 33.4987 2.57663 33.2456 2.62741 33.0026C2.67238 32.7873 2.79633 32.6378 2.64201 32.4341C2.54743 32.3089 2.36589 32.2741 2.27994 32.1374C2.14835 31.9278 2.26218 31.7021 2.47939 31.611C2.29421 31.5045 2.16395 31.34 2.17971 31.1167C2.19432 30.9098 2.29388 30.899 2.4102 30.7556C2.7794 30.3001 2.00681 30.2942 2.11118 29.8136C2.1608 29.5856 2.36838 29.4067 2.44554 29.1862C2.52751 28.9524 2.56303 28.6542 2.57497 28.4088C2.5841 28.2161 2.48122 28.0935 2.46711 27.9281C2.45152 27.7414 2.58626 27.6749 2.61646 27.5104C2.65014 27.3264 2.49333 27.1364 2.53482 26.9502C2.5768 26.7619 2.76248 26.6822 2.81774 26.4864C2.88096 26.2619 2.76729 26.105 2.77542 25.8977C2.78737 25.5901 2.91846 25.7716 3.07825 25.6448C3.18312 25.5617 3.12621 25.4691 3.1506 25.3556C3.18213 25.2099 3.21996 25.1568 3.31056 25.0382C3.43004 24.8818 3.57175 24.7466 3.65853 24.5672C3.76042 24.3563 3.78862 24.1275 3.89764 23.9227C4.05113 23.6343 4.02491 23.5422 3.88105 23.256C3.79791 23.4493 3.61058 23.5824 3.5515 23.7885C3.66401 23.3957 4.08814 22.9799 4.33571 22.6641ZM0.436563 32.4258C0.367368 32.3649 0.475891 32.3433 0.506091 32.3944C0.48286 32.4049 0.459794 32.4153 0.436563 32.4258ZM21.6912 18.6729C21.6995 18.6686 21.7062 18.6636 21.7115 18.6581C21.7062 18.6636 21.6995 18.6686 21.6912 18.6729ZM20.1807 0.260023C20.1721 0.26998 20.1651 0.282093 20.16 0.297027C20.1651 0.282093 20.1721 0.26998 20.1807 0.260023ZM20.2297 0.228662C20.2171 0.233142 20.2054 0.239116 20.1952 0.246915C20.2054 0.239116 20.2171 0.233142 20.2297 0.228662ZM20.3966 0.192156C20.3495 0.204435 20.3012 0.209911 20.2542 0.22136C20.3004 0.210077 20.3538 0.208584 20.3966 0.192156ZM16.9617 18.2232C17.0503 18.2363 17.1386 18.2688 17.2274 18.3335C17.1386 18.2688 17.0503 18.2363 16.9617 18.2232ZM50.7344 21.3386C50.794 20.241 50.7785 19.0987 51.1816 18.0579C51.307 17.7338 51.4504 17.2372 51.814 17.1081C52.3181 16.9294 53.0903 17.1614 53.6149 17.1939C54.7007 17.2613 55.782 17.1395 56.8456 16.9236C57.4148 16.8083 57.9436 16.5552 58.4925 16.3732C59.0479 16.189 59.5894 15.988 60.1069 15.7118C60.3216 16.3509 60.7268 16.9272 61.2009 17.4018C61.6216 17.8226 62.2193 18.1789 61.8267 18.8214C61.4747 19.3977 61.3068 20.0115 61.0254 20.6193C60.7086 21.3039 60.2071 21.8877 59.7535 22.4831C59.6974 22.2904 59.6846 22.0989 59.6888 21.8993C59.3755 21.9675 58.8919 22.3611 58.7331 21.9199C58.6759 21.7601 58.7879 21.4281 58.5548 21.398C58.204 21.3527 58.1824 21.9962 58.2191 22.1909C58.3032 22.6371 58.5879 22.8583 58.9791 23.0418C57.783 23.6918 56.7573 24.5853 55.5261 25.189C54.912 25.4902 54.2091 25.6028 53.5389 25.7211C53.1147 25.796 52.67 25.7781 52.2728 25.6002C50.7943 24.9388 50.6596 22.723 50.7344 21.3386ZM127.736 88.2301C127.372 87.6942 127.305 87.0333 127.201 86.4107C127.084 85.7048 126.922 85.0118 126.65 84.3483C126.402 83.7439 126.11 83.1432 125.791 82.5736C125.7 82.4118 125.59 82.1936 125.379 82.1772C125.142 82.1589 125.036 82.3945 124.88 82.5228C124.66 82.7038 124.366 82.7491 124.102 82.8396C123.775 82.9513 123.459 83.0915 123.131 83.1987C122.506 83.4029 121.819 83.4228 121.175 83.5649C120.873 83.6316 120.569 83.6946 120.266 83.76C120.064 83.8037 119.717 83.9661 119.511 83.9319C119.074 83.8597 118.757 82.8361 118.608 82.477C118.364 81.8893 117.995 81.3505 117.774 80.7591C117.543 80.1421 117.341 79.5333 117.061 78.934C116.769 78.3091 116.462 77.6891 116.186 77.0567C116.081 76.8156 116.007 76.5485 115.862 76.3271C115.705 76.088 115.504 76.0429 115.439 75.7505C115.417 75.6567 115.419 75.4945 115.351 75.4193C115.231 75.2882 115.188 75.4105 115.073 75.3692C114.954 75.326 114.976 75.3713 114.934 75.2557C114.926 75.2348 114.993 75.178 114.988 75.145C114.98 75.0876 114.942 75.0363 114.932 74.9817C114.884 74.7368 114.952 74.5642 114.845 74.3157C114.708 74.0009 114.6 73.674 114.481 73.3516C114.007 72.0642 113.312 70.8879 112.743 69.6568C112.674 69.5082 112.555 69.3987 112.502 69.2412C112.457 69.103 112.492 68.9377 112.425 68.8053C112.35 68.6587 112.228 68.666 112.131 68.5597C112.048 68.4686 112.041 68.3841 112.014 68.2642C111.884 67.6821 111.55 67.2022 111.394 66.6257C111.305 66.2988 111.126 66.0604 110.961 65.77C110.768 65.4301 110.641 65.054 110.48 64.6984C110.33 64.3662 110.179 64.0292 110.009 63.7066C109.853 63.4097 109.757 63.3672 109.528 63.6395C109.35 63.3813 109.154 63.1606 109.032 62.8693C108.928 62.6212 108.761 62.6104 108.523 62.4541C108.675 62.554 108.778 62.6872 108.936 62.519C109.007 62.8067 109.363 62.5349 109.302 62.3054C109.235 62.051 108.896 62.0052 108.686 61.9324C108.789 61.6634 108.955 61.9029 108.951 61.5997C108.947 61.3476 108.7 61.0518 108.588 60.8402C108.279 60.2568 108.039 59.6327 107.778 59.027C107.516 58.4187 107.279 57.7963 106.981 57.2037C106.859 56.9591 106.734 56.6998 106.581 56.472C106.515 56.3737 106.443 56.2611 106.343 56.192C106.282 56.1492 106.107 56.1344 106.072 56.0689C106.002 55.9371 106.153 55.6954 106.132 55.5301C106.1 55.2762 105.963 54.9804 105.856 54.7524C105.579 54.1643 105.312 53.5648 105.021 52.9835C104.739 52.4198 104.437 51.8812 104.212 51.2903C104.097 50.9875 103.941 50.724 103.795 50.4366C103.679 50.2096 103.613 49.9621 103.412 49.7896C103.43 49.9117 103.429 50.0355 103.439 50.1583C103.427 50.0196 103.465 49.8364 103.38 49.7162C103.278 49.5727 103.076 49.605 102.957 49.4786C103.054 49.581 103.198 49.6349 103.337 49.6382C103.058 48.8947 102.845 48.0713 102.339 47.4418C102.274 47.3609 102.187 47.2279 102.097 47.1801C102.041 47.1509 101.84 47.1663 101.815 47.1379C101.652 46.9571 101.917 46.6295 101.863 46.4128C101.807 46.1833 101.585 45.9759 101.504 45.7386C101.376 45.3647 101.283 45.1152 101.047 44.8022C100.898 44.6053 100.848 44.3744 100.761 44.1413C100.609 43.7348 100.452 43.3292 100.282 42.9303C99.9596 42.1773 99.5331 41.4888 99.1825 40.7522C99.0189 40.4086 98.9384 40.017 98.7456 39.6889C98.5973 39.4364 98.3613 39.2537 98.2458 38.98C98.1048 38.6454 98.0372 38.2894 97.8849 37.9547C97.7779 37.7196 97.6627 37.4909 97.566 37.2517C97.4354 36.9286 97.1915 36.1968 96.7088 36.461C96.882 35.8807 97.0781 35.3014 97.228 34.7148C97.2676 34.5594 97.2703 34.3582 97.3833 34.234C97.5018 34.1037 97.5723 34.1264 97.6548 33.9608C97.8763 33.5166 97.7571 32.7842 97.7938 32.3048C97.839 31.7109 97.9432 31.1235 97.9563 30.527C97.9694 29.9326 97.9666 29.3485 98.006 28.7546C98.0425 28.2067 98.0792 27.6623 98.0218 27.1172C97.9679 26.6039 98.3519 26.2867 98.4542 25.7947C98.5651 25.2622 98.4987 24.6915 98.4217 24.1587C98.1396 22.206 97.254 20.1397 96.0352 18.5839C95.1065 17.3982 93.3828 15.8734 91.7617 16.5937C91.5389 16.6928 91.4294 16.7976 91.2093 16.6393C91.0334 16.5127 91.0205 16.31 90.7678 16.2972C90.522 16.2847 90.2682 16.5116 90.0702 16.631C89.7961 16.7963 89.5113 16.9448 89.2307 17.099C88.7175 17.3811 88.2608 17.7002 87.8971 17.0628C87.7987 16.8906 87.719 16.4867 87.5239 16.4016C87.3649 16.3324 87.2904 16.4892 87.1842 16.3425C87.1708 16.3587 87.1574 16.375 87.1438 16.3913C87.2259 16.2917 87.1359 16.1921 87.1529 16.0851C87.1456 16.0474 87.1383 16.0099 87.131 15.9723C87.173 15.9358 87.2096 15.8948 87.241 15.8492C87.2604 15.6862 87.1141 15.4708 87.043 15.3351C86.8114 14.8922 86.6596 14.415 86.4276 13.9733C86.151 13.4467 85.9426 12.9161 85.7054 12.373C85.4597 11.8096 85.1072 11.2947 84.8464 10.7362C84.3078 9.5821 83.8151 8.40529 83.2635 7.25752C83.1495 7.0199 82.5326 5.31358 82.1209 5.50541C82.2143 5.08824 81.9372 4.83818 81.6988 4.52008C81.5564 4.33009 81.4706 4.14109 81.3591 3.93599C81.2658 3.76425 81.1171 3.64228 81.0219 3.47651C80.9369 3.32867 80.9507 3.17982 80.9038 3.02152C80.8505 2.84148 80.7373 2.72466 80.6243 2.57963C80.3548 2.23349 80.1517 1.83359 79.7945 1.56428C79.5728 2.44871 80.0824 3.32916 80.4137 4.1157C80.8181 5.07597 81.1767 6.05614 81.56 7.02504C82.3164 8.93778 83.1721 10.809 84.0643 12.6615C84.5316 13.6314 85.0267 14.5887 85.455 15.5767C85.6271 15.9733 85.8022 16.3558 86.0152 16.7324C86.2497 17.1469 86.3647 17.6056 86.5636 18.035C86.707 18.3445 86.9848 18.6593 86.8754 19.021C86.7697 19.3706 86.2947 19.8016 86.0353 20.0488C85.4441 20.6123 84.6449 20.7788 84.4218 21.6376C84.2109 22.4496 84.3151 23.6036 85.0151 24.1774C85.7439 24.775 87.0528 24.438 87.8714 24.3251C87.3704 25.074 86.8529 25.8121 86.36 26.5664C85.9041 27.2647 85.506 28.0016 85.6205 28.8625C85.8984 30.9513 88.6037 29.1396 89.5701 28.6763C89.314 29.5163 89.1408 30.701 89.7114 31.4663C90.1261 32.0227 90.9901 31.9713 91.5819 31.8161C92.0344 31.6976 92.166 31.7395 92.4358 32.152C92.6653 32.5031 92.9329 32.7784 93.2187 33.0865C93.898 33.8185 94.3128 34.5995 94.7525 35.4816C94.995 35.9683 95.1377 36.2957 94.884 36.8244C94.6571 37.2971 94.39 37.7674 94.119 38.2162C93.6025 39.0723 92.919 39.814 92.3296 40.6187C91.135 42.25 90.0979 43.9783 88.7293 45.4817C87.3781 46.9657 85.6434 48.0756 84.0021 49.2143C83.1469 49.8075 82.3272 50.438 81.3671 50.8575C80.8797 51.0706 80.3751 51.2408 79.8677 51.3993C79.6264 51.4748 79.3815 51.5414 79.1414 51.6205C79.0053 51.6653 78.7874 51.7886 78.6419 51.7229C78.5364 51.6754 78.4295 51.3394 78.3867 51.2576C78.2778 51.0502 78.1718 50.8431 78.0425 50.6476C77.7721 50.2381 77.4611 49.8576 77.1916 49.4466C76.5946 48.5363 76.0453 47.5918 75.3886 46.7219C74.769 45.9012 74.0669 45.1401 73.3398 44.4141C72.6412 43.7168 71.8795 43.0712 70.95 42.7081C70.0156 42.3431 69.0396 42.2817 68.0486 42.3558C67.1159 42.4257 66.2646 42.7174 65.3687 42.9613C65.0525 43.0473 64.6295 43.185 64.3318 42.9861C64.1866 42.889 64.1211 42.7232 64.0165 42.5905C63.9097 42.4544 63.7226 42.3492 63.6486 42.1926C63.5287 41.9377 63.7523 41.6128 63.794 41.3509C63.8768 40.8286 63.7986 40.2793 63.6833 39.7686C63.198 37.617 62.5186 35.5342 62.1871 33.3452C62.1098 32.8356 62.0158 32.3149 62.0007 31.7992C61.9909 31.4778 62.1483 31.1635 62.1327 30.8577C62.1171 30.5525 61.7985 30.4576 61.5421 30.6227C61.266 30.8006 61.2663 31.2207 61.2497 31.5101C61.1211 33.7536 61.6304 35.8958 62.1755 38.0503C62.3079 38.5735 62.4322 39.0984 62.5692 39.6204C62.688 40.0731 62.8219 40.5319 62.6422 40.9852C62.4801 41.3937 62.2082 41.7646 62.0202 42.1633C61.8215 42.5845 61.6597 43.1069 61.3529 43.464C61.0657 43.7983 60.7841 43.8708 60.9137 44.3842C60.9431 44.5005 61.0227 44.6058 60.9855 44.7234C60.9331 44.8905 60.57 45.0488 60.4321 45.1376C59.5198 45.7247 58.5451 46.2095 57.6151 46.7662C57.2105 47.0085 56.8104 47.3465 56.3737 47.5224C55.9536 47.6915 55.6001 47.8611 55.2223 48.1221C54.3621 48.716 53.4554 49.2451 52.5721 49.8043C51.661 50.3811 50.7516 50.9609 49.8473 51.5483C48.9987 52.0996 48.2074 52.7585 47.3282 53.2591C46.4488 53.7602 45.5458 54.2405 44.656 54.726C44.4529 54.8368 44.2768 54.9513 44.0417 54.9508C43.86 54.9507 43.719 54.8843 43.5379 54.9533C43.1141 55.1148 42.7146 55.5912 42.3639 55.8718C41.5271 56.5418 40.618 57.1063 39.7169 57.6838C39.2822 57.9624 38.8607 58.2584 38.4529 58.575C38.1031 58.8462 37.7818 59.1707 37.397 59.3936C36.9933 59.6274 36.6428 59.8119 36.2907 60.1302C35.9242 60.4615 35.549 60.7798 35.1607 61.0856C34.7538 61.4059 34.3403 61.7177 33.956 62.0651C33.6047 62.3827 33.3067 62.7546 32.9494 63.0654C32.5937 63.3749 32.2007 63.6299 31.8888 63.9887C31.5506 64.3776 31.2997 64.8331 31.0219 65.2649C31.0219 65.2191 30.8142 65.0725 30.7908 65.0387C30.6783 64.8771 30.712 64.6866 30.6245 64.5137C30.324 64.8187 30.5656 65.5564 30.5869 65.9231C30.5417 65.1432 30.5709 64.3607 30.4675 63.5848C30.3657 62.8203 30.2133 62.0636 30.1972 61.2902C30.1808 60.508 30.2331 59.7238 30.2571 58.9421C30.2673 58.607 30.2918 58.2732 30.3585 57.944C30.3861 57.8084 30.4544 57.6645 30.4644 57.5273C30.4778 57.3398 30.4154 57.3212 30.3431 57.1559C30.2304 56.8987 30.3333 56.8682 30.4649 56.6576C30.6189 56.4116 30.4656 56.3327 30.3927 56.093C30.299 55.783 30.5792 55.7106 30.5786 55.432C30.5782 55.3167 30.4704 55.2027 30.4709 55.0939C30.4722 54.8614 30.5769 54.99 30.6532 54.8481C30.7287 54.7076 30.523 54.5939 30.4725 54.4432C30.4259 54.3052 30.4289 54.1905 30.4959 54.0594C30.5137 54.0246 30.5581 53.9859 30.5709 53.9521C30.5983 53.8805 30.5817 53.8694 30.5958 53.8172C30.7138 53.3787 30.8993 52.9579 31.0408 52.5157C31.1688 52.1153 31.0701 51.6997 31.0793 51.2905C31.0873 50.9388 31.263 50.6649 31.3336 50.329C31.4114 49.9588 31.1786 49.809 31.0309 49.5063C30.8587 49.1534 30.8895 48.6967 31.0392 48.3423C31.0951 48.5263 31.1512 48.7102 31.207 48.8942C31.2483 48.7506 31.3256 48.5942 31.3108 48.441C31.2941 48.2661 31.1995 48.249 31.1447 48.1169C31.0478 47.8835 31.1578 47.9872 31.2494 47.7764C31.2966 47.6683 31.2396 47.5232 31.2473 47.4087C31.2569 47.2617 31.3176 47.1437 31.3463 47.0025C31.3926 46.7757 31.3488 46.6068 31.5043 46.4203C31.6442 46.2522 31.8566 46.1405 32.024 46.0029C32.336 45.7469 32.6313 45.4645 32.933 45.196C33.3545 44.8206 33.9265 44.5152 33.9016 43.8944C33.2644 44.1284 32.8018 44.667 32.2981 45.0963C31.7369 45.5745 31.0938 45.9432 30.5236 46.4101C29.309 47.4051 27.9891 48.2845 26.6356 49.08C25.9624 49.4756 25.2789 49.8525 24.5979 50.2343C23.9811 50.5799 23.3982 51.0031 22.7298 51.247C22.1227 51.4683 21.3589 51.7391 20.7228 51.4888C20.4704 51.3894 20.219 51.211 20.1182 50.9516C20.0335 50.7334 20.117 50.3924 19.9029 50.2339C19.8206 50.1727 19.6587 50.2363 19.629 50.1042C19.6057 50.0003 19.7956 49.8866 19.8105 49.7833C19.8473 49.5271 19.537 49.0858 19.439 48.8487C19.3829 48.7132 19.3364 48.5358 19.2224 48.4342C19.1803 48.3967 19.0965 48.3946 19.0678 48.3557C19.0333 48.3088 19.0638 48.2686 19.0406 48.2253C18.9709 48.0947 18.9916 48.0013 18.8725 47.875C18.744 47.7388 18.5663 47.647 18.4176 47.5352C18.4245 47.5284 18.5426 47.6044 18.556 47.6118C18.5421 47.3976 18.4269 47.2116 18.3961 47.002C18.3637 46.7822 18.4337 46.5913 18.3254 46.3857C18.215 46.1767 17.999 46.0318 17.879 45.8255C17.7566 45.615 17.7073 45.3651 17.6085 45.1426C17.4207 44.7197 17.1127 44.4557 17.0308 43.9935C17.0123 43.8896 17.02 43.7983 16.9561 43.7075C16.9015 43.6302 16.7928 43.6448 16.7475 43.5519C16.6805 43.4148 16.7706 43.3111 16.645 43.1716C16.4077 42.9081 16.0164 42.991 16.2168 42.5367C16.42 42.0759 16.29 42.0621 16.0074 41.712C15.7197 41.3556 15.6429 40.8214 15.5138 40.395C15.463 40.2267 15.4328 40.0487 15.3069 39.9257C15.1016 39.7253 15.041 39.8512 15.1394 39.5467C14.7641 39.5656 14.7414 38.8642 14.6961 38.5951C14.6663 38.4202 14.6277 38.1797 14.4984 38.0467C14.4093 37.9549 14.2145 37.9698 14.2105 37.967C14.1272 37.9079 13.979 37.6092 13.9651 37.525C13.9493 37.4287 14.0419 37.3632 14.0258 37.248C14.0094 37.1297 13.8869 37.0116 13.8114 36.9321C13.5151 36.6204 13.0277 35.9577 13.2071 35.4916C13.9717 36.2803 14.7034 37.1003 15.4675 37.8897C16.0735 38.5159 16.74 39.0766 17.5865 39.3383C18.5453 39.6345 19.5926 39.679 20.5897 39.6461C21.1126 39.629 21.63 39.5193 22.1542 39.5462C22.697 39.5739 23.2089 39.5465 23.7428 39.4279C23.9725 39.3768 24.1998 39.2811 24.434 39.2596C24.6145 39.2432 24.7907 39.2752 24.9711 39.2435C25.4283 39.1634 25.8403 38.8735 26.246 38.6643C27.1268 38.2099 27.9634 37.6984 28.7128 37.0449C30.1544 35.7881 31.0926 34.0972 31.9923 32.4377C33.0072 30.5658 33.9052 28.6607 35.0309 26.8477C35.5863 25.9531 36.1258 25.0396 36.7719 24.2062C37.3675 23.4377 38.0958 22.8062 38.882 22.2398C39.6232 21.7058 40.3809 21.0816 41.2966 20.8911C41.7931 20.7876 42.3039 20.752 42.804 20.6671C43.34 20.5762 43.8439 20.5134 44.3762 20.6624C44.8482 20.7944 45.3091 20.9653 45.7807 21.0992C46.2943 21.245 46.8281 21.3156 47.3097 21.5588C47.7398 21.7764 48.1221 22.077 48.5404 22.3155C48.9146 22.5287 49.4754 22.6356 49.6742 23.0514C49.8752 23.4717 49.8465 23.9858 50.0084 24.4252C50.1934 24.9275 50.4536 25.3964 50.757 25.8366C51.2647 26.5737 51.9276 27.2152 52.8547 27.3224C53.9613 27.4504 55.0695 27.0332 56.0765 26.6237C57.1168 26.2009 57.9464 25.4206 58.9578 24.9459C58.9578 25.3119 59.0036 25.6763 58.9653 26.0421C58.923 26.4453 58.8111 26.8407 58.7179 27.234C58.5348 28.0064 58.3498 28.7843 58.0336 29.5154C57.7282 30.2216 57.2985 30.8431 56.8574 31.4688C56.4326 32.0715 56.0334 32.7082 55.5221 33.2433C54.615 34.193 53.3218 34.7603 52.0345 34.9554C50.7123 35.1559 49.2171 35.1114 48.1783 34.1827C47.1756 33.286 46.3935 32.1249 46.1629 30.7843C45.8944 29.2239 45.9553 27.6203 46.0558 26.0472C46.1068 25.2502 46.18 24.4539 46.3116 23.6657C46.4255 22.9825 46.7423 22.2546 46.4947 21.5733C46.4378 21.416 46.4126 21.2643 46.2556 21.2555C45.9825 21.2404 45.7527 21.6494 45.6432 21.8363C45.2769 22.4615 45.1792 23.1651 45.0501 23.8665C44.7383 25.5637 44.6738 27.3224 44.7735 29.0407C44.8229 29.8899 44.8545 30.7525 45.0891 31.5757C45.3227 32.3952 45.6773 33.1939 46.0768 33.9449C45.9133 33.9125 45.8224 34.006 45.8707 34.1669C45.941 34.0962 46.0114 34.0254 46.0819 33.9547C46.8895 34.9926 47.8425 36.2395 49.1427 36.6689C49.9067 36.921 50.6421 37.1279 51.455 37.1046C52.2559 37.0817 52.9989 36.8622 53.7365 36.5632C54.4037 36.2926 55.0928 36.0581 55.6484 35.5842C56.2156 35.1006 56.6792 34.4578 57.1299 33.8684C58.1056 32.592 58.9273 31.2007 59.4078 29.6601C59.6441 28.9023 59.7448 28.1292 59.8708 27.3486C59.9332 26.9618 59.9934 26.5734 59.9967 26.1808C59.9996 25.8619 59.9181 25.5506 59.9204 25.233C59.9246 24.6303 60.5086 24.4169 61.0337 24.3404C61.7095 24.2418 62.0523 24.8404 62.4018 25.3166C62.8677 25.9516 63.3153 26.5946 63.7346 27.2615C63.9199 27.5566 64.0253 27.9429 64.2223 28.2176C64.3592 28.4085 64.5953 28.5034 64.7546 28.7002C65.2396 29.299 65.7492 29.9452 66.1402 30.6084C66.5153 31.245 67.0626 31.8153 67.5436 32.3773C68.075 32.9979 68.6577 33.572 69.1901 34.1915C69.6087 34.679 70.1661 34.9622 70.5897 35.437C71.0187 35.9177 71.7204 36.2141 72.2418 36.5999C72.5433 36.8227 72.8375 37.0562 73.1219 37.3003C73.4033 37.5417 73.635 37.8552 73.93 38.0764C75.016 38.8903 76.1019 39.6302 77.5193 39.6806C77.8267 39.6916 78.0895 39.5874 78.382 39.5706C78.699 39.5525 78.9985 39.7078 79.3345 39.6793C80.0829 39.6156 80.8679 39.447 81.5864 39.2319C83.0362 38.798 84.5671 38.271 85.8018 37.3736C86.4239 36.9214 86.9237 36.3541 87.4411 35.7911C87.7151 35.4931 88.3576 34.7908 87.8938 34.3624C87.5015 34.0002 86.7865 35.0124 86.5398 35.245C85.997 35.7572 85.3397 36.1094 84.6522 36.3888C83.958 36.6709 83.237 36.8795 82.5308 37.1285C81.7904 37.3896 81.0709 37.6857 80.2853 37.7808C79.8828 37.8294 79.4779 37.855 79.0747 37.897C78.6623 37.9398 78.2463 38.0545 77.8321 37.9936C77.0789 37.8829 76.2725 37.7928 75.6 37.4144C74.2917 36.6784 73.297 35.4221 72.1015 34.5232C71.5004 34.0712 70.8517 33.6905 70.2857 33.1912C69.7013 32.676 69.2055 32.0675 68.7005 31.4768C67.5881 30.1753 66.4951 28.8586 65.4228 27.5237C64.9466 26.9308 64.4118 26.3545 63.9825 25.7268C63.8103 25.4749 63.6802 25.1905 63.7285 24.8785C63.7859 24.5067 64.0276 24.196 64.0733 23.817C64.1601 23.0959 63.7852 22.3905 63.4908 21.7558C63.3767 21.5095 63.2136 21.2301 63.4097 20.9847C63.6053 20.7399 63.9249 20.5491 64.1421 20.3117C64.6643 19.7408 65.1746 19.1586 65.6545 18.5516C65.8685 18.2809 66.096 18.0143 66.2693 17.7146C66.4812 17.348 66.5683 16.9312 66.6897 16.5293C67.161 14.9697 67.3288 13.3628 67.1461 11.7411C66.979 10.2561 66.8681 8.58019 66.204 7.22134C65.5687 5.92124 64.5447 4.89078 63.4515 3.96868C62.8213 3.43719 62.1821 2.91598 61.5454 2.39279C60.9266 1.88436 60.2554 1.56759 59.5791 1.15641C58.2365 0.340336 56.7656 0.210077 55.2254 0.337847C54.4256 0.404055 53.622 0.376344 52.8477 0.622758C52.1128 0.856561 51.4333 1.25481 50.7875 1.66881C49.4927 2.49916 48.2188 3.36434 46.9101 4.17361C44.2622 5.81106 40.9354 7.16924 37.7974 6.37773C36.2443 5.98579 34.7039 5.36419 33.2913 4.61068C31.874 3.85468 30.555 2.988 29.0501 2.40192C28.2769 2.10091 27.4902 1.83458 26.7217 1.52063C26.39 1.38523 26.0522 1.18827 25.6931 1.13815C25.5622 1.1199 25.3858 1.16935 25.2648 1.10845C25.1571 1.05419 25.1946 0.989143 25.1098 0.934053C24.9328 0.818562 24.6226 0.83864 24.4044 0.757332C24.202 0.681831 23.8348 0.411356 23.6152 0.439234C23.4971 0.454168 23.453 0.570986 23.3235 0.566506C23.2046 0.562358 23.094 0.426125 22.9945 0.373689C22.6641 0.199291 22.2534 0.156978 21.889 0.104708C21.1828 0.00348752 20.5561 -0.0901001 19.8741 0.158471C19.2342 0.39161 18.5703 0.590733 17.9195 0.802798C17.5787 0.913809 17.3754 1.01636 17.0887 1.21631C16.9176 1.33528 16.7064 1.35802 16.5084 1.43999C15.9336 1.67827 15.3148 2.20296 15.0565 2.76366C14.9245 3.05006 14.7397 2.9802 14.5711 3.18812C14.3962 3.4035 14.4654 3.7138 14.251 3.93599C14.0735 4.12018 14.0111 4.30868 13.8272 4.49602C13.5873 4.74061 13.456 5.0748 13.3175 5.38245C12.6489 6.86624 12.1854 8.47399 11.9775 10.0889C11.8747 10.8885 11.866 11.6833 11.9301 12.4863C11.9901 13.2411 11.9594 14.0537 12.2122 14.7769C12.2371 14.7208 12.2611 14.6644 12.284 14.6075C12.3355 14.6763 12.4533 14.7528 12.4546 14.8484C12.4563 14.9884 12.3638 15.0653 12.2618 14.935C12.443 15.5754 12.6977 16.1689 13.0256 16.7507C13.1661 17.0001 13.2678 17.0615 13.4968 17.1509C13.728 17.241 13.6682 17.28 13.8161 17.4916C13.9389 17.6675 14.0129 17.6929 14.221 17.615C14.3117 17.5812 14.3157 17.4964 14.4203 17.5171C14.4959 17.5321 14.603 17.7083 14.6536 17.7584C14.7493 17.8532 14.8366 17.9477 14.9738 17.9813C15.1358 18.0209 15.2249 17.8981 15.3429 17.9122C15.5891 17.9418 15.7071 18.1804 15.9703 18.2164C16.2356 18.2527 16.3605 18.2624 16.6124 18.3627C16.9689 18.5046 17.3565 18.5534 17.7381 18.5473C18.0461 18.5423 18.3924 18.523 18.689 18.4333C18.8492 18.3848 18.9727 18.3088 19.1421 18.2874C19.2863 18.2692 19.43 18.3028 19.5752 18.27C19.8764 18.2016 20.1401 18.0767 20.4532 18.0234C20.7409 17.9743 21.0129 17.8834 21.291 17.7972C21.4571 17.7458 21.6939 17.6242 21.7949 17.8268C21.9152 18.0685 21.5947 18.4854 21.5077 18.689C21.5644 18.6857 21.621 18.6823 21.6778 18.679C21.4407 18.768 21.4543 18.765 21.3406 19.0047C21.2254 19.2477 21.0675 19.4694 20.9764 19.7237C20.7673 20.3075 20.6988 20.9583 20.57 21.564C20.2912 22.8742 20.0018 24.1394 20.0767 25.4882C20.1417 26.6597 20.2466 27.9138 21.0834 28.8132C21.2565 28.9992 21.4514 29.1758 21.5734 29.4024C21.6954 29.6294 21.7385 29.8667 21.9016 30.0753C22.2164 30.4775 22.732 30.8091 23.2306 30.9245C23.7928 31.0548 24.4091 31.1859 24.9857 31.1074C25.5461 31.0312 26.121 30.9514 26.6763 30.8431C27.8866 30.6069 28.8193 29.6757 29.6009 28.7802C30.0077 28.3139 30.4362 27.8566 30.8202 27.3712C30.9274 27.236 31.0458 26.973 31.2182 26.9091C31.4328 26.8296 31.5976 27.0055 31.7927 27.0823C32.0945 27.2008 32.4543 27.2539 32.7714 27.3198C33.0059 27.3686 33.2025 27.3279 33.1899 27.5992C33.1784 27.8468 32.8655 28.25 32.7526 28.474C32.5998 28.7772 32.4495 29.0813 32.299 29.3855C31.7072 30.5819 31.0895 31.7575 30.4131 32.9085C29.7748 33.9952 29.0695 35.0192 28.0769 35.8127C27.1314 36.5688 26.0094 37.2118 24.8951 37.6867C24.2767 37.9504 23.6247 38.0306 22.9611 38.1019C22.6702 38.1331 22.3782 38.155 22.0875 38.1875C21.963 38.2015 21.8319 38.2325 21.707 38.2323C21.5799 38.232 21.447 38.1572 21.332 38.1607C21.1483 38.1663 21.022 38.2919 20.8161 38.2899C20.5249 38.2871 20.2283 38.2524 19.9366 38.241C19.2765 38.2152 18.6032 38.1998 17.9524 38.08C16.6858 37.8472 15.8667 37.0957 14.9566 36.2464C14.5696 35.8853 14.1475 35.5195 13.8003 35.1194C13.6994 35.0029 13.6326 34.9465 13.6815 34.8018C13.7033 34.7374 13.8121 34.675 13.8553 34.6211C13.978 34.4674 14.1138 34.2491 14.1744 34.0611C14.2764 33.7449 14.0215 33.0445 13.5818 33.1806C13.2833 33.2729 13.2458 33.7444 12.9559 33.8578C12.6979 33.9585 12.6378 33.7577 12.586 33.5551C12.5186 33.2924 12.5022 33.0976 12.3001 32.8892C12.1134 32.6969 11.8776 32.6201 11.8733 32.3129C11.8718 32.1993 11.9289 32.0934 11.9185 31.9779C11.9078 31.8579 11.7719 31.7131 11.787 31.6006C11.8187 31.3643 12.3024 31.2362 12.4777 31.1203C12.7352 30.9499 12.9615 30.7417 13.1663 30.5114C13.6439 29.9739 14.0237 29.3339 14.3516 28.6969C14.9048 27.6221 15.3611 26.3895 15.2382 25.1613C15.1919 24.6991 15.0626 24.2128 14.7518 23.8549C14.2679 23.2973 13.6278 23.3994 12.9629 23.3994C13.4919 22.3961 14.2439 20.9266 13.5003 19.8412C12.8971 18.9604 11.7125 19.4478 10.8905 19.6537C11.0534 18.8393 11.2819 18.0086 11.1306 17.1736C11.0332 16.6357 10.7838 15.9666 10.2384 15.7385C9.62275 15.4809 8.85679 15.8593 8.34587 16.1948C7.73424 16.5962 7.20639 17.1755 6.77181 17.7599C6.56157 18.0425 6.09513 18.9203 5.74766 18.3027C5.63548 18.1032 5.61109 17.8465 5.53095 17.6323C5.38376 17.2394 5.19078 16.9498 4.94735 16.6217C4.78756 16.4064 4.83816 16.1746 4.70608 15.9386C4.62676 15.7966 4.50165 15.6844 4.42465 15.5395C4.32725 15.3563 4.29523 15.1526 4.23433 14.9566C4.1273 14.6128 3.91739 14.3491 3.74233 14.0413C3.53856 13.6834 3.55449 13.2823 3.41112 12.9045C3.07112 12.0089 2.58692 11.153 2.191 10.2807C1.85813 9.54726 1.51481 8.81698 0.823193 8.35435C0.645476 8.87705 0.679161 9.19315 0.850738 9.71668C1.02066 10.2356 1.19323 10.7539 1.38704 11.2645C1.75691 12.2381 2.20709 13.1766 2.63438 14.1254C3.06514 15.0819 3.42373 16.067 3.84737 17.0265C4.05329 17.4927 4.26585 17.9562 4.47128 18.4228C4.61747 18.7552 5.02102 19.324 4.81012 19.6766C4.72417 19.8205 4.55906 19.9308 4.45004 20.0603C4.29572 20.2441 4.1711 20.4477 4.0357 20.6453C3.76589 21.0391 3.47418 21.4168 3.1959 21.8046C2.60816 22.624 2.0765 23.4948 1.53788 24.3472C0.455481 26.0597 -0.0949273 28.1823 0.165923 30.1928C0.303318 31.2518 0.280583 32.3206 0.430755 33.3796C0.579433 34.4288 0.808923 35.4718 1.10578 36.489C1.37559 37.4134 1.93977 38.2947 1.88153 39.2759C1.8349 40.0626 1.81499 40.8528 1.96417 41.6317C2.02523 41.9508 2.116 42.2677 2.26633 42.5568C2.34283 42.704 2.4326 42.8442 2.54162 42.9698C2.65877 43.1047 2.86918 43.1948 2.96758 43.3282C3.03047 43.4135 3.0215 43.5625 3.04905 43.6603C3.09418 43.8197 3.16803 43.9609 3.24967 44.1043C3.49691 44.5389 3.77452 45.0058 4.10805 45.3792C4.72218 46.0665 5.33796 46.7823 6.01083 47.4139C6.70046 48.0612 7.38295 48.7631 8.12202 49.352C8.3243 49.513 8.53686 49.663 8.7622 49.7899C8.85413 49.8418 8.97029 49.923 9.07566 49.9446C9.14834 49.9597 9.24806 49.9286 9.31228 49.95C9.48336 50.0064 9.32489 49.9613 9.48502 50.1102C9.62308 50.2384 9.75549 50.2625 9.92674 50.3478C10.877 50.8214 11.7246 51.4219 12.7345 51.768C13.8395 52.1467 14.9645 52.5702 16.1231 52.7484C16.6324 52.8269 17.8565 52.5497 17.9578 53.2842C18.3124 52.9321 18.7132 53.2219 19.1048 53.3208C19.1048 53.2209 19.0319 52.9556 19.1048 52.877C19.1987 52.7756 19.6124 52.8806 19.7055 52.9482C19.9001 53.0897 19.9662 53.4116 20.0554 53.6209C20.2079 53.9783 20.3788 54.3287 20.5388 54.6828C21.1685 56.0779 21.7963 57.4739 22.4331 58.8657C23.7062 61.6491 24.9157 64.4612 26.1398 67.2664C26.4242 67.9178 26.6801 68.5799 26.954 69.2355C27.2029 69.8317 27.5497 70.3787 27.8259 70.9616C28.1343 71.6132 28.3544 72.303 28.6549 72.959C28.9627 73.6312 29.2693 74.304 29.5742 74.9776C30.8203 77.7314 32.0126 80.5092 33.2114 83.2838C34.5728 86.4344 35.9655 89.5712 37.3613 92.7066C35.8682 93.032 34.3767 93.4276 32.8615 93.64C32.1525 93.7394 31.429 93.7231 30.7234 93.8504C30.354 93.9168 30.0341 94.004 29.6565 93.9928C29.2901 93.982 28.9293 93.9851 28.5628 93.9991C27.0974 94.0541 25.5834 94.0349 24.1313 93.8164C23.5444 93.7281 22.8991 93.5532 22.3447 93.8564C21.8598 94.1214 21.7125 94.6167 21.6247 95.1288C20.6576 94.9003 19.8329 94.3042 18.8863 94.018C17.9846 93.7452 16.9609 93.664 16.0595 93.981C15.1535 94.2996 14.1695 94.7576 13.3963 95.3302C12.5981 95.9211 12.0383 96.7577 11.5476 97.6073C11.0032 98.5502 10.5185 99.526 9.98216 100.474C9.42893 101.451 8.87786 102.419 8.40843 103.441C7.46857 105.487 6.73066 107.662 6.23053 109.857C6.04103 110.688 5.93732 111.587 6.49204 112.31C7.06485 113.056 7.99658 113.064 8.82476 112.792C9.28274 112.642 9.69559 112.404 10.1149 112.172C10.5176 111.949 10.9243 111.77 11.2784 111.471C12.0414 110.826 12.8855 110.265 13.66 109.626C15.1217 108.421 16.7477 107.503 17.9461 106.003C18.5512 105.246 19.3232 104.52 19.7523 103.64C19.888 103.362 19.9743 102.792 19.5102 102.782C19.2133 102.775 18.9394 103.143 18.7586 103.337C17.9281 104.226 17.015 105.053 16.0426 105.785C15.5828 106.131 15.088 106.425 14.6048 106.736C14.1203 107.048 13.6943 107.415 13.2322 107.754C12.7763 108.089 12.2885 108.354 11.8479 108.713C11.4037 109.074 10.9491 109.407 10.4655 109.714C9.49514 110.331 8.50849 110.966 7.40004 111.306C7.40004 110.551 7.82102 109.924 8.06179 109.239C8.31468 108.52 8.52243 107.824 8.83405 107.122C9.16825 106.369 9.50311 105.616 9.85821 104.873C10.1931 104.173 10.6169 103.52 10.9502 102.82C11.2532 102.183 11.7027 101.657 11.9679 101.016C12.1046 100.685 12.3368 100.398 12.5113 100.087C12.7047 99.7426 12.882 99.3896 13.0795 99.0473C13.8486 97.7149 14.9119 96.8281 16.2809 96.1353C17.0215 95.7606 17.8412 95.5389 18.672 95.5155C19.626 95.4888 20.5569 95.7629 21.5094 95.7629C21.4795 96.3631 21.5567 97.0637 21.3676 97.6413C21.3004 97.8459 21.179 97.9508 21.2138 98.1587C21.2278 98.2415 21.3381 98.3275 21.3575 98.4338C21.3849 98.5837 21.3393 98.7664 21.3316 98.9187C21.2658 100.24 21.2938 101.558 21.363 102.878C21.3856 103.307 21.3861 103.895 21.8235 104.14C22.01 104.244 22.041 104.19 22.2202 104.126C22.4778 104.035 22.6425 104.095 22.8901 104.209C23.0514 104.283 23.2115 104.354 23.3741 104.423C23.4541 104.457 23.6161 104.486 23.6581 104.581C23.6793 104.629 23.6366 104.741 23.6566 104.771C23.7566 104.922 23.7034 104.853 23.9265 104.831C24.2212 104.803 24.3902 104.916 24.6454 105.066C26.8498 106.363 29.4592 106.493 31.9445 106.78C33.2541 106.932 34.5388 107.161 35.8613 107.184C37.1738 107.206 38.4955 107.219 39.8029 107.093C40.3809 107.037 40.9568 106.943 41.5316 106.863C41.7226 106.836 42.4866 106.532 42.2597 107.027C42.1618 107.241 41.869 107.372 41.7037 107.525C41.5178 107.697 41.3874 107.924 41.1788 108.073C40.9055 108.267 40.6374 108.411 40.3805 108.638C39.4865 109.427 38.6696 110.273 37.7312 111.016C37.3471 111.321 36.8972 111.629 36.6481 112.063C36.4017 112.493 36.3976 113.052 36.449 113.531C36.5068 114.067 36.7324 114.528 36.9423 115.017C37.2032 115.623 37.3882 116.265 37.6079 116.887C37.8158 117.477 38.0334 118.063 38.2771 118.638C38.4339 119.009 38.5735 119.521 38.8695 119.811C39.0026 119.942 39.1871 120.055 39.3789 119.971C39.5664 119.889 39.5769 119.669 39.7103 119.547C39.902 119.372 40.0194 119.499 40.2589 119.546C40.5909 119.61 40.7033 119.455 40.9908 119.355C41.1938 119.284 41.4004 119.371 41.6078 119.277C41.7956 119.193 41.9184 119.007 42.0966 118.907C42.5729 118.64 43.3186 118.663 43.8527 118.569C46.4901 118.108 49.0571 117.319 51.6568 116.688C52.9561 116.372 54.267 116.097 55.5596 115.755C56.1643 115.595 56.7648 115.419 57.3622 115.234C57.6808 115.135 58.0108 115.048 58.3195 114.921C58.6087 114.802 58.8534 114.643 59.1679 114.6C59.7639 114.516 60.2833 114.28 60.8692 114.143C61.5018 113.995 62.0898 113.717 62.7099 113.531C63.3393 113.341 63.9875 113.219 64.6189 113.036C65.2635 112.849 65.8896 112.604 66.5346 112.419C67.7833 112.061 69.0809 111.872 70.295 111.392C70.5456 111.293 70.7855 111.16 71.0513 111.105C71.3749 111.039 71.6967 111.046 72.0192 110.956C72.6686 110.774 73.2913 110.525 73.9464 110.358C75.1855 110.043 76.4338 109.751 77.6692 109.426C78.8407 109.117 80.0439 108.975 81.231 108.721C82.522 108.444 83.8146 108.164 85.0998 107.862C85.6883 107.723 86.2638 107.566 86.8632 107.48C87.4882 107.39 88.0498 107.12 88.6742 107.032C91.1581 106.685 93.6234 106.291 96.0653 105.715C97.3435 105.414 98.6238 105.124 99.9068 104.844C100.49 104.717 101.132 104.651 101.686 104.429C102.268 104.195 102.845 104.141 103.442 103.963C104.692 103.59 105.99 103.43 107.256 103.12C108.497 102.816 109.775 102.608 111.001 102.255C111.229 102.189 111.607 101.961 111.846 102.034C112.031 102.091 112.069 102.299 112.213 102.397C112.608 102.665 113.026 102.144 113.281 101.893C113.645 101.536 114.011 101.402 114.428 101.15C114.941 100.84 115.434 100.297 115.834 99.8511C117.494 97.9986 119.763 96.9061 121.558 95.1953C122.482 94.3142 123.311 93.3745 124.125 92.393C124.503 91.9373 124.917 91.513 125.336 91.0952C125.565 90.8667 125.796 90.6409 126.025 90.4125C126.167 90.2713 126.41 89.8927 126.614 89.8465C126.804 89.8039 127.011 89.9771 127.22 89.9333C127.41 89.8932 127.548 89.7586 127.653 89.6024C127.91 89.2208 128.007 88.6296 127.736 88.2301Z" fill="url(#paint0_linear)" />
	<defs>
		<linearGradient id="paint0_linear" x1="-5.70712" y1="120" x2="161.052" y2="36.367" gradientUnits="userSpaceOnUse">
			<stop offset="0.00209505" stop-color="#05DFFC" />
			<stop offset="1" stop-color="#0BFFC4" />
		</linearGradient>
	</defs>
</svg>
