<svg width="154" height="120" viewBox="0 0 154 120" fill="none" xmlns="http://www.w3.org/2000/svg">
<path fill-rule="evenodd" clip-rule="evenodd" d="M147.486 80.9276C147.39 84.016 147.457 88.0253 145.767 90.7408C145.494 91.179 144.57 92.5442 144.466 91.3432C144.365 90.1642 144.655 88.9966 144.368 87.8039C144.214 87.1657 143.697 85.7717 142.813 86.3481C142.363 86.642 142.244 87.3674 142.068 87.8253C141.807 88.5027 141.515 89.1695 141.241 89.8418C140.282 92.1886 139.289 94.9893 137.158 96.5424C137.437 94.5187 138.197 92.3579 137.686 90.3122C137.512 89.615 136.985 88.342 136.076 88.7505C135.191 89.1485 134.617 90.9244 134.2 91.7152C132.933 94.113 131.638 96.4655 130.212 98.7737C129.495 99.9346 128.72 100.996 127.782 101.989C127.195 102.61 126.463 103.66 125.538 103.752C125.538 101.982 126.121 100.272 126.653 98.6048C127.225 96.8123 127.746 95.0044 128.308 93.2086C128.795 91.6507 129.194 90.1048 129.519 88.5073C129.653 87.8466 129.759 87.1626 130.322 86.7358C130.829 86.3524 131.628 86.1699 132.193 85.888C133.675 85.1475 135.199 84.3486 136.576 83.4282C137.141 83.0503 137.628 82.5621 138.22 82.2231C138.895 81.8369 139.524 81.5119 140.148 81.0413C142.841 79.0104 145.268 76.5122 146.903 73.5384C147.169 74.7332 147.521 75.9006 147.559 77.1322C147.599 78.3949 147.526 79.6656 147.486 80.9276ZM125.327 95.1235C124.896 94.3963 124.24 94.6942 123.662 95.0448C122.765 95.5888 121.866 96.1289 120.964 96.6661C119.129 97.7592 117.329 98.9095 115.536 100.07C111.887 102.432 108.111 104.365 104.264 106.365C100.546 108.297 96.9744 110.596 93.4907 112.92C92.6534 113.479 91.8221 114.05 91.0182 114.656C90.3046 115.194 89.7338 115.949 88.9827 116.428C88.2003 116.926 87.6626 116.522 86.9143 116.154C85.9786 115.694 85.0035 115.309 84.0469 114.894C80.187 113.221 76.316 111.484 72.5612 109.585C68.829 107.697 65.2928 105.522 61.7167 103.361C60.0136 102.333 58.3396 101.238 56.6597 100.172C54.872 99.0369 53.021 98.1867 51.1457 97.2217C50.316 96.7946 49.581 96.2148 48.7288 95.8266C47.8329 95.4186 46.8865 95.1259 46.0842 94.5373C45.7246 94.2733 45.4211 93.9579 45.0101 93.7712C44.6725 93.618 44.2895 93.5922 43.9562 93.4294C43.2782 93.0984 43.0841 92.4264 42.9528 91.7276C42.1083 87.2413 41.6595 82.6307 41.1701 78.0944C40.895 75.5435 40.5881 73.0026 40.208 70.4651C40.0365 69.3211 40.3813 68.4348 40.5623 67.3219C40.7735 66.0221 40.857 64.695 40.9986 63.3864C41.6667 64.6241 42.2444 65.9229 43.0944 67.0524C43.721 67.8847 44.7913 69.065 45.945 69.0372C47.7383 68.9939 47.6563 65.9181 47.7285 64.6973C48.5454 65.4263 48.7931 66.614 49.4711 67.4609C50.0901 68.234 50.9326 69.1933 51.8832 69.5395C53.8848 70.2686 53.6922 66.5532 53.5821 65.4995C53.5268 64.971 53.2284 64.1348 53.9364 64.3758C54.5884 64.5977 55.2229 65.5178 55.771 65.9397C56.7183 66.6693 57.7575 67.2756 58.7293 67.9721C59.9351 68.8363 61.2362 69.4608 62.4655 70.2656C63.2344 70.7691 64.0732 70.8821 64.9114 71.2523C66.1395 71.7948 67.2243 72.6033 68.3932 73.2536C70.708 74.5409 73.2759 75.6952 75.8078 76.4713C76.627 76.7224 77.7187 77.4303 78.3401 76.7029C78.7228 76.2553 78.9742 75.5715 79.299 75.0698C79.7099 74.4345 80.1463 73.8161 80.5994 73.2101C82.2101 71.0568 83.9977 69.0236 85.9829 67.2074C88.2925 65.0947 90.818 63.1934 93.5193 61.6099C94.6799 60.9295 99.5262 57.8799 100.592 60.0262C99.7161 59.9717 98.9574 60.2919 98.2087 60.6928C98.0261 60.7907 97.0839 61.4635 97.3044 60.8705C97.0306 60.9218 96.7906 61.2786 96.5834 61.4374C96.2252 61.7117 95.682 62.0284 95.2672 62.2555C94.8572 62.4798 94.3507 62.5348 93.977 62.8068C93.8406 62.9062 93.7578 63.0673 93.6277 63.1748L93.2546 63.1777C93.1987 63.3844 93.1429 63.5908 93.087 63.7975C92.8761 63.1215 92.5753 64.0006 92.223 64.2862C92.0112 64.4578 91.6759 64.6346 91.4265 64.7454C91.2401 64.8281 91.2113 64.6357 91.0303 64.7821C90.8696 64.912 90.7671 65.1983 90.5942 65.3613C90.382 65.5607 90.1105 65.7157 89.8739 65.8861C89.4208 66.2124 88.9415 66.4686 88.4825 66.7779C87.865 67.1942 87.5411 67.91 86.9416 68.3452C86.6576 68.5513 86.2164 68.5754 86.0627 68.7074C85.6772 69.0389 85.8042 69.541 85.0853 69.5631C85.1507 69.6678 85.19 69.7814 85.2035 69.904C85.0322 69.8745 84.88 69.8035 84.7467 69.6909C84.7765 70.408 84.0714 70.664 83.6487 71.1055C83.405 71.3599 83.1014 71.7177 82.9296 72.0239C82.901 72.0751 82.8465 72.4838 82.8347 72.4894C82.7694 72.5207 82.3722 72.1717 82.4098 72.2009C82.299 72.8634 81.6579 73.4898 81.3771 74.1031C81.2293 74.4262 81.079 74.9457 80.7876 75.173C80.7083 75.2348 80.4644 75.1702 80.2629 75.385C80.1151 75.5424 79.9446 75.8335 79.8845 76.0424C79.8445 76.1819 79.8926 76.5428 79.8351 76.6265C79.7296 76.7795 79.5656 76.6258 79.4004 76.739C79.0951 76.948 79.0874 77.2747 78.6407 77.3176C78.9486 78.0657 80.8075 78.2963 81.4831 78.509C83.3938 79.1104 85.3983 79.7109 87.1844 80.6319C87.6464 80.8701 88.0834 81.0664 88.1653 81.6152C88.2794 82.3787 87.8903 83.3941 87.816 84.1654C87.6148 86.2482 87.5737 88.3925 87.6158 90.4842C87.6556 92.4655 87.7197 94.4654 87.8121 96.4443C87.8976 98.2791 88.2676 100.078 88.4672 101.899C88.522 102.399 88.4855 104.654 89.3452 104.541C90.0631 104.446 89.6098 102.906 89.5963 102.464C89.5663 101.487 89.772 100.49 89.7633 99.5036C89.7593 99.0297 89.9665 98.6214 89.9864 98.1679C90.0061 97.7198 89.7834 97.3657 89.8502 96.9011C89.9143 96.4554 91.232 93.8916 89.9665 94.1919C90.0406 93.8254 90.1055 93.4558 90.2034 93.0947C90.3387 93.2163 90.4478 93.3585 90.53 93.5207C90.6426 92.7332 90.605 91.9471 90.6749 91.1593C90.7062 90.8022 90.851 90.4112 90.8016 90.0514C90.811 89.9022 90.792 89.7559 90.7448 89.6125C90.667 89.5301 90.5706 89.4867 90.4561 89.4825C90.3958 89.2854 90.3803 89.2312 90.4872 89.0379C90.5331 88.9068 90.6242 88.825 90.7604 88.7925C91.02 88.7617 91.0497 88.6126 90.8493 88.3451C90.9538 87.8172 90.9673 87.4839 90.8919 86.957C90.8285 86.5144 91.0617 85.6574 90.824 85.2633C90.5466 84.8026 90.4087 85.2495 90.3571 84.6109C90.346 84.4758 90.3372 84.1941 90.3916 84.0594C90.4511 83.9126 90.6301 83.9727 90.653 83.9205C90.8084 83.5657 90.8187 82.867 90.2688 82.9277C90.2904 82.6742 90.3119 82.4207 90.3333 82.1673C90.7306 82.6246 90.5918 82.2375 90.817 81.9833C91.1205 81.6408 91.4173 81.5818 91.851 81.4463C93.007 81.0857 94.1208 80.5432 95.2504 80.103C97.6424 79.1708 100.079 78.3385 102.401 77.2369C107.285 74.9195 112.071 72.4046 116.985 70.1484C116.634 69.4969 116.852 69.4652 117.109 68.8536C117.451 69.0914 117.379 68.9255 117.623 68.9109C117.601 68.7069 117.664 68.6453 117.813 68.7262C117.932 68.7625 118.053 68.7754 118.178 68.7647C118.482 68.8169 118.731 68.9843 119.007 69.0479C119.098 69.1148 119.197 69.1649 119.306 69.1987C119.404 69.1764 119.487 69.1281 119.556 69.0536C120.004 69.1366 120.155 69.4737 120.174 69.9619C120.178 70.0468 119.918 70.1339 119.992 70.248C120.122 70.4474 120.472 70.3998 120.672 70.4253C120.628 70.6325 120.584 70.8395 120.541 71.0465C121.419 70.6412 121.19 71.91 121.456 72.3268C121.531 72.4431 121.696 72.3502 121.782 72.4849C121.894 72.6608 121.86 72.9098 121.956 73.085C122.172 73.4811 122.389 73.433 122.604 73.8867C123.73 76.2553 125.229 78.462 126.31 80.8815C126.824 82.0331 127.288 83.2044 127.826 84.3458C128.32 85.3964 128.603 86.2895 128.25 87.4367C127.433 90.098 126.559 92.8078 125.488 95.3785C125.434 95.2935 125.381 95.2085 125.327 95.1235ZM68.3115 114.989C68.2349 115.119 68.1582 115.25 68.0815 115.38C67.9112 114.4 68.365 114.855 68.3115 114.989ZM64.7062 113.154C64.4605 113.08 64.5667 112.679 64.5746 112.507C64.73 112.701 64.8824 112.899 65.0118 113.111C64.9099 113.126 64.808 113.14 64.7062 113.154ZM54.8249 109.387C55.083 109.243 55.2687 109.139 55.5612 108.975C55.2639 109.554 55.2639 109.554 54.8249 109.387ZM39.2796 58.3366C38.8853 59.3044 40.0876 65.28 38.9683 65.475C38.8077 64.9505 38.7876 63.5064 38.1231 63.3341C37.2985 63.12 37.3798 64.6067 37.2672 65.0665C35.5744 63.8887 34.8224 61.6143 34.0137 59.8118C32.9829 57.5144 32.1718 55.1248 31.3972 52.7309C30.7349 50.6842 30.1872 48.6013 29.5178 46.5579C29.0974 45.2745 28.6441 43.988 28.3613 42.6652C28.2999 42.3778 28.0582 41.6491 28.2636 41.3759C28.562 40.9786 29.6364 41.4336 29.9826 41.5379C32.2284 42.2137 34.5581 42.5046 36.8655 42.8972C39.4291 43.3332 41.987 43.7839 44.5662 44.122C45.2106 44.2064 45.8555 44.2864 46.5006 44.3642C46.9191 44.4147 47.5525 44.3642 47.9499 44.5519C48.7544 44.9314 48.9257 46.3841 49.2245 47.1376C50.3392 49.9492 51.6511 52.6719 52.8248 55.4581C53.8822 57.9679 54.6837 60.6381 56.2036 62.9233C55.0701 62.4208 53.6336 59.7641 52.3669 61.2954C51.8224 61.9539 51.9597 62.8214 52.0032 63.6095C52.0663 64.7487 52.086 65.8964 52.086 67.0375C50.8465 66.7154 50.0136 65.3083 49.3629 64.3116C48.474 62.9503 47.9142 61.6674 47.5206 60.1068C47.3501 59.431 46.8981 59.4142 46.4964 59.0098C46.2383 58.7499 46.1086 58.3996 45.7384 58.7777C45.2731 59.2529 45.5826 60.5689 45.663 61.1301C45.8538 62.4653 46.4796 64.5201 45.8713 65.7747C45.0503 67.4679 42.8501 63.2076 42.5924 62.5923C42.4614 62.2791 40.1206 56.2723 39.2796 58.3366ZM37.7426 29.3194C37.8812 29.3406 38.0197 29.3618 38.1583 29.383C38.0466 29.4816 37.8141 29.8274 37.6242 29.736C37.6637 29.5972 37.7031 29.4584 37.7426 29.3194ZM45.0849 27.7438C45.0416 27.7916 44.9979 27.8391 44.9544 27.8869C44.7557 27.6384 44.8261 27.2762 44.8261 26.9888C45.0888 27.1475 45.1529 27.4649 45.0849 27.7438ZM45.6783 30.5008V31.313C45.1279 31.0745 45.117 30.9514 45.6783 30.5008ZM46.3467 31.5335C45.9611 31.4277 45.915 31.3424 45.9692 30.7497C46.129 31.0817 46.2343 31.3005 46.3467 31.5335ZM48.5666 37.5486C48.4049 37.9645 47.4601 36.9734 47.4948 36.6768C47.5278 36.3939 47.6729 36.3094 47.8731 36.4914C47.9393 36.5517 47.841 36.7694 47.8832 36.8449C48.0357 37.1185 48.343 37.3423 48.5666 37.5486ZM48.5771 40.0541C48.3404 40.6451 47.9184 39.7144 48.5369 39.689C48.5774 39.8079 48.5909 39.9295 48.5771 40.0541ZM48.1179 39.1223C48.0263 39.0001 47.9372 38.8762 47.8508 38.7501C48.1693 38.8144 48.4222 39.2786 48.7583 38.9689C48.7185 39.4412 48.383 39.4543 48.1179 39.1223ZM27.5187 31.4456C27.0064 30.8865 30.3468 30.494 30.7498 30.398C33.6742 29.7006 36.4352 28.6915 39.1696 27.4533C40.474 26.8627 41.7717 26.2649 43.0455 25.6101C43.5956 25.3275 44.3496 25.0878 44.8089 24.6635C45.1369 24.3606 45.1238 24.1315 45.55 23.951C45.9119 23.7982 45.9299 23.9425 46.0957 23.666C46.1952 23.5001 46.3078 22.8922 46.2496 22.7122C46.0909 22.2213 45.8562 22.6193 45.5268 22.2811C45.2895 22.0372 45.347 21.3437 45.4117 21.0565C45.4958 21.1933 45.5441 21.3418 45.557 21.5019C45.9144 21.3256 45.7703 20.7204 46.1613 20.6213C46.5733 20.5169 46.5307 20.8379 46.6382 21.166C46.9495 20.7088 46.6999 20.3189 46.5314 19.8725C47.3881 19.7121 48.3085 19.5567 49.1576 19.8417C49.7716 20.0476 50.2972 20.554 50.9455 20.6519C51.5804 20.7475 51.7024 20.4465 52.1704 20.141C52.5504 19.8931 52.8766 20.1851 53.0722 19.9978C52.9517 20.6301 51.9151 20.5436 52.0427 21.3337C52.1002 21.6893 52.536 22.0088 52.7343 22.2855C52.9834 22.6328 53.1819 23.0168 53.3515 23.4081C54.0113 24.9304 54.2933 26.697 54.5702 28.3249C55.2534 32.3431 55.3398 36.4407 55.9824 40.4719C56.2886 42.392 56.5956 44.3132 56.7546 46.2521C56.7945 46.7369 57.0905 47.8365 56.8483 48.3029C56.6435 48.6966 56.1878 48.6977 55.7878 48.793C55.0051 48.979 54.2701 49.2318 53.5193 49.5118C52.8462 49.7627 52.6506 49.9166 52.2186 49.2834C51.8006 48.6706 51.594 47.9403 51.295 47.2685C50.9142 46.4126 50.454 45.5868 50.0124 44.7611C50.88 44.7611 51.3794 44.2927 51.3564 43.411C51.3313 42.4344 50.5281 42.2026 50.1971 41.4C49.875 41.8183 49.8479 41.8301 49.6184 41.433C49.3559 40.979 49.1788 40.1482 49.0182 39.6331C49.133 39.7557 49.2479 39.8783 49.3627 40.0007C49.6523 39.6021 49.1987 38.9739 49.047 38.5986C48.8128 38.019 48.7715 37.3924 48.5494 36.8145C48.4283 36.4991 48.1477 36.2508 48.079 35.9218C48.0331 35.7015 48.2171 35.4919 48.1734 35.2683C48.0974 34.8789 47.657 34.4612 47.5201 34.0653C47.3094 33.4562 47.0806 32.92 46.8192 32.3266C46.4654 31.5234 46.5477 30.6806 46.483 29.8258C46.4159 28.9395 46.132 28.0915 46.0317 27.2091C45.9624 26.5994 46.1793 25.8318 45.7181 25.3435C45.6641 26.1552 45.8967 26.1426 45.1341 26.2886C44.2659 26.4547 43.6362 27.1016 42.8153 27.2946C42.6461 27.3344 42.5227 26.5952 42.5887 27.6035C42.195 27.3128 41.3546 27.6738 41.6681 27.8463C41.4305 28.1005 40.9625 27.9247 40.8843 28.3055C40.0767 27.5204 38.7817 30.1928 37.82 28.7988C37.6613 29.7436 36.9772 30.3021 36.0588 30.4271C35.597 30.4898 35.3124 30.6437 34.9026 30.7821C34.8195 30.81 34.7889 30.9296 34.6905 30.9619C34.54 31.0109 34.3192 30.8629 34.2108 30.8916C33.9901 30.9503 33.7448 31.2406 33.4367 31.2983C33.0835 31.3645 32.6983 31.3341 32.3447 31.2931C31.9027 31.2419 31.7082 31.1895 31.2753 31.3352C30.886 31.4662 30.469 31.8333 30.1077 31.4336C29.5401 32.4156 28.1869 32.1756 27.5187 31.4456ZM53.7585 19.5956C53.329 19.5441 53.6273 19.1747 53.8262 19.0638C54.3667 18.7625 54.2223 19.6513 53.7585 19.5956ZM29.9748 23.1194C32.4959 19.4824 36.808 16.9835 40.6021 14.8809C42.6745 13.7324 44.7898 12.6192 46.9657 11.6792C48.0476 11.2121 49.1421 10.7631 50.2468 10.3527C50.8367 10.1335 51.4338 9.93425 52.0313 9.7359C52.1964 9.68115 52.4969 9.51303 52.6698 9.52944C52.64 9.52649 53.0995 9.65147 53.0092 9.69074C53.3052 9.56188 53.4461 9.22583 53.7941 9.09144C54.1853 8.94028 54.6836 8.87779 55.1026 8.86415C55.4733 8.85198 55.7942 9.00517 56.1474 9.01716C56.3795 9.0249 56.5767 8.91466 56.804 8.89844C56.9204 8.89033 56.91 9.06435 56.9801 9.07448C57.0105 9.07891 57.3202 8.96259 57.3231 8.96462C57.436 9.03706 57.5359 9.31984 57.6378 9.43026C57.9302 9.74696 58.3593 9.96762 58.7492 10.1343C59.2237 10.337 60.3812 10.5409 59.8447 11.2912C60.2258 11.2364 60.4031 11.5808 59.926 11.668C59.6676 11.7154 59.5572 11.4787 59.3653 11.3172C58.9219 10.9448 57.8457 10.4146 57.2072 10.4386C56.8479 10.4521 56.5703 10.7247 56.239 10.8237C55.9129 10.921 55.7514 10.7701 55.4653 10.794C55.131 10.8219 54.9156 11.1048 54.5969 11.1551C54.2985 11.2023 54.1322 10.9988 53.8655 11.013C53.5484 11.0298 53.2413 11.3052 52.9386 11.3977C52.4571 11.5448 52.1035 11.6451 51.6334 11.889C50.7224 12.3618 49.7051 12.5414 48.7662 12.9484C48.0156 13.2738 47.1645 13.445 46.4699 13.8049C45.6975 14.2047 44.9216 14.6031 44.1652 15.0376C43.6188 15.3515 42.508 15.4595 41.9056 15.3797C41.8969 16.4891 41.3509 15.7113 40.8006 16.1972C40.9308 16.3121 41.0786 16.3965 41.2436 16.4505C40.6473 16.6887 40.0961 16.9851 39.5184 17.2589C38.9213 17.542 38.2842 17.6043 37.8919 18.1398C37.5306 18.6333 37.653 18.3787 37.1138 18.573C36.8664 18.6623 36.6513 18.9343 36.473 19.117C36.1667 19.4311 36.0988 19.9067 35.9239 19.2612C35.8728 19.3399 35.6719 19.8411 35.6328 19.8538C35.4136 19.6212 35.3821 19.897 35.2595 19.9956C35.324 20.21 35.2319 20.3505 34.983 20.417C34.8571 20.5106 34.7295 20.6024 34.6007 20.6922C34.1332 21.0165 33.5381 21.2947 33.2089 21.7778C32.9661 21.6346 32.8762 21.3874 33.024 21.135C32.56 21.5627 32.0064 22.002 31.8809 22.6603C31.8232 22.6046 31.7559 22.5644 31.6796 22.5397C31.4912 22.6669 31.7366 23.0459 31.856 23.1312C32.377 22.9288 31.7259 23.0022 32.0759 23.0348C32.1757 23.0441 32.2782 23.1187 32.3882 23.12C32.711 23.1242 33.0142 23.1088 33.3343 23.0595C34.0399 22.9508 34.7334 22.7482 35.4166 22.545C36.1606 22.3238 36.9048 22.103 37.6324 21.8316C38.2315 21.6082 38.8206 21.3592 39.4096 21.111C39.6448 21.0119 39.8798 20.9114 40.1154 20.813C40.5628 20.626 40.7988 20.3189 40.7363 20.845C41.0926 20.7859 41.4014 20.2823 41.675 20.0767C42.0599 19.7878 42.4927 19.5724 42.9488 19.4249C43.1335 19.3652 43.2691 19.2892 43.4601 19.2887C43.5538 19.2885 43.6098 19.5524 43.6688 19.5381C44.078 19.4389 43.8915 19.2121 44.0755 18.8855C44.4779 18.1715 45.5618 17.7767 46.2275 17.3711C46.65 17.1136 46.9499 16.7672 47.34 16.4821C47.5225 16.3488 47.655 16.2898 47.8462 16.2334C47.9925 16.1901 48.1721 16.5263 48.267 16.1884C47.9265 16.0492 47.6458 15.8776 47.3182 15.776C47.0865 15.704 47.3645 15.4575 46.9973 15.6042C46.8498 15.6632 46.7991 15.9486 46.7449 16.068C46.3347 15.7017 45.1815 16.0813 44.6948 16.2347C44.6613 16.2452 44.5111 16.1659 44.4403 16.1707C44.1593 16.1895 43.9637 16.5676 43.7788 16.7305C43.2872 17.1636 42.7539 17.3446 42.1485 17.5918C42.3096 16.7116 43.4937 16.351 44.1848 16.0138C45.195 15.5209 46.1355 14.8917 47.2415 14.6267C47.9781 14.4499 48.9542 14.3078 49.2724 15.1642C49.4628 15.6776 49.4868 16.953 48.8425 17.1899C48.7745 16.9503 48.9924 16.7455 49.058 16.5375C48.4167 16.7823 48.3111 17.5527 47.824 17.9548C47.5503 18.1806 47.4524 18.253 47.32 18.4713C47.1886 18.6881 47.1256 18.8903 46.8175 19.1209C46.3141 18.0515 46.3993 19.5163 46.1439 19.7001C46.2466 19.6262 45.7279 19.842 45.7898 19.8192C45.7659 19.828 45.5399 19.4619 45.3933 19.4697C45.1266 19.4837 45.1778 19.7773 45.0493 19.9252C44.6137 20.4255 44.0509 20.7536 43.3499 20.6749C43.3335 21.0309 43.4433 21.4561 42.9572 21.4886L42.8935 20.6994C42.6289 20.9671 42.2807 21.2213 42.0654 21.5312C41.8204 21.8838 41.8466 22.101 41.4401 22.336C41.0154 22.5817 40.1118 23.0658 39.6063 23.1077C39.7313 22.9303 39.7091 22.7701 39.5403 22.6274C39.2861 22.8896 38.9108 22.9154 38.6402 23.1521C39.5796 23.5445 37.9185 23.5243 37.7078 23.5687C37.5667 23.5986 37.4436 23.727 37.3007 23.756C37.111 23.7945 37.0865 23.595 36.9232 23.6583C36.6843 23.7508 36.7813 24.012 36.5313 24.1433C36.3517 24.2377 36.0472 24.2364 35.8446 24.326C35.3618 24.5398 34.3334 25.0134 34.0071 24.439C33.8417 25.4245 32.153 24.8246 31.5279 24.7582C30.6718 24.6674 29.1807 24.2655 29.9748 23.1194ZM33.5706 13.0363C33.6917 12.9329 33.813 12.9405 33.9343 13.0592C33.7654 12.1674 35.0715 11.7343 35.6413 11.3552C36.3971 10.8523 37.2867 9.87655 38.2757 9.95379C38.107 10.0788 37.9387 10.2038 37.7702 10.3287C38.0108 10.3599 38.2512 10.3911 38.4914 10.4222C38.3559 10.6213 38.2202 10.8202 38.0844 11.0191C37.8624 9.79581 36.7044 11.3402 36.3693 11.5653C36.0317 11.7919 35.6951 11.9607 35.3952 12.237C35.098 12.5108 34.8298 13.0037 34.3385 12.7574C34.2938 13.4561 33.7321 13.2666 33.3437 13.6535C33.3274 13.4107 33.4664 13.2391 33.5706 13.0363ZM38.7015 9.5488C39.897 9.10103 40.9378 8.27315 42.0643 7.68179C43.1403 7.11685 44.238 6.60955 45.3319 6.08252C45.8868 5.81504 46.9033 5.12339 47.5376 5.47585C48.3935 5.95182 47.2152 6.10537 46.9091 6.27017C46.796 5.53723 46.3994 6.20123 46.6363 6.60899C45.9832 6.32695 44.5588 7.43042 43.9357 7.73469C43.7947 7.80364 43.8579 7.84345 43.6976 7.92456C43.6581 7.94447 43.2492 8.03757 43.1322 8.07683C42.5456 8.27315 42.159 8.1172 41.9063 8.82526C41.8534 8.65861 41.8005 8.49178 41.7476 8.32495C41.3804 9.14951 40.2642 9.51045 39.5504 9.99804C39.3665 10.1238 38.8411 10.6113 38.6077 10.5105C38.2829 10.37 38.4132 9.65664 38.7015 9.5488ZM60.2671 12.0348C60.7718 12.0682 60.2851 12.3036 60.4238 12.4592C60.4081 12.4417 60.7277 12.7143 60.6859 12.6395C60.7423 12.7401 60.8778 12.7364 60.9471 12.941C61.1858 13.6447 60.1434 14.3717 59.7918 14.771C59.1083 15.5476 58.7133 16.5311 58.001 17.2828C57.6793 17.6224 57.3593 17.8569 56.9134 17.9835C56.6013 18.0722 56.2711 17.9772 55.9843 18.2774C55.7533 18.519 55.8056 18.6564 55.5503 18.7848C55.1005 19.0114 54.9024 18.8127 54.4647 19.3023C54.0881 18.2785 55.1702 18.2801 55.7349 17.7079C56.5143 16.918 57.3683 16.1211 58.0992 15.2761C58.7485 14.5253 59.0086 13.867 59.3168 12.9549C59.4139 12.6673 59.5198 12.0507 59.7876 11.8702C60.2048 11.5893 59.9544 12.014 60.2671 12.0348ZM62.749 38.6316C64.0728 37.151 65.7149 35.8215 67.4949 34.9296C68.1311 34.6107 69.0367 34.1923 69.6961 34.6832C70.3428 35.1643 70.2036 36.1242 69.943 36.7771C69.6932 36.679 69.929 35.7614 69.7994 35.5346C69.5166 35.0399 68.9064 35.3026 68.4913 35.4685C68.005 35.6628 67.571 35.8773 67.186 36.23C67.0296 36.3728 66.7304 36.501 66.6303 36.5992C66.4799 36.5367 66.3913 36.5823 66.3647 36.7356C66.3957 36.8296 66.392 36.9222 66.3535 37.0133C66.3315 37.0422 66.1359 36.9235 66.1081 36.9473C65.9813 37.0558 65.8626 37.1836 65.7378 37.2844C65.4873 37.487 65.2742 37.5829 65.0435 37.8653C64.5982 38.4111 64.009 38.7309 63.5616 39.251C63.4606 39.3686 63.3395 39.67 63.3168 39.6963C63.0906 39.9603 62.7553 40.1692 62.5002 40.4486C62.0591 40.9314 61.5881 41.2555 61.0791 41.6695C60.8599 41.8476 60.6042 42.0395 60.4584 42.2873C60.3921 42.4003 60.3546 43.0196 60.3522 43.0222C59.853 43.5693 59.9502 42.4696 59.9878 42.3317C60.3932 40.8479 61.7637 39.7339 62.749 38.6316ZM60.0243 48.6647C60.0864 48.8977 60.1375 49.0904 60.2005 49.3269C59.8047 49.0023 59.8047 49.0023 60.0243 48.6647ZM59.5968 49.4279C59.4514 49.5744 59.3052 49.7201 59.1579 49.8648C58.834 49.5225 59.6562 49.3693 59.5968 49.4279ZM59.3913 43.536C59.2364 44.1624 58.6696 44.9217 58.2799 45.4161C58.3228 45.3615 57.9473 45.4712 57.9046 45.4961C57.7657 45.5765 58.0981 46.0974 57.6172 45.8646C57.4465 45.9612 57.7825 46.3546 57.5506 46.5306C56.8804 45.0033 58.7105 43.6801 59.4191 42.5464C59.7657 42.8646 59.4783 43.1848 59.3913 43.536ZM55.0377 51.7934C55.5264 51.9191 55.7806 51.84 56.1105 51.36C56.3089 51.0717 56.3813 50.561 56.835 50.9924L56.915 50.4377C57.5626 50.7034 57.5082 51.6634 57.7912 52.1954C57.9289 51.5935 58.255 49.9122 59.2536 50.1819C60.3745 50.4847 58.5088 52.4126 58.3355 52.8849C57.9545 52.2935 58.1044 52.8436 57.8137 52.9269C57.5643 52.9986 57.1746 52.815 56.8715 52.8316C55.9494 52.8817 55.1394 53.2965 54.2972 53.6477C54.0839 53.0727 53.8708 52.4977 53.6575 51.9228C54.1534 51.9609 55.1787 50.641 55.3243 51.6004C54.9566 51.5364 54.853 51.5526 54.6738 51.8874C54.7883 51.8293 54.9096 51.798 55.0377 51.7934ZM57.1075 59.2981C57.106 59.2935 58.0612 59.3525 58.1464 59.3213C58.8001 59.0826 58.5584 58.3412 58.6921 57.8171C58.9616 58.0648 58.8187 58.517 58.9018 58.8376C58.9994 59.2144 59.2818 59.5355 59.3079 59.9385C59.3675 60.8489 58.6203 60.6469 58.0541 60.9415C57.5702 61.1933 57.5165 61.51 57.1078 60.8314C56.9972 60.6478 56.7594 60.1695 56.7838 59.9346C56.8077 59.702 57.1762 59.5086 57.1075 59.2981ZM57.8773 63.2378L57.6131 62.942C58.4002 63.1829 57.9361 62.8207 58.1171 62.3253C58.7212 62.7276 59.2139 63.141 59.6919 62.3357L60.5178 65.6667C59.9631 65.7972 59.2475 64.9402 58.867 64.6458C58.6473 64.4757 57.4278 63.8203 58.1601 63.6294C58.0657 63.4989 57.9715 63.3683 57.8773 63.2378ZM63.2681 52.7779C62.8097 53.2139 62.3479 53.458 61.8487 53.8007C61.4109 54.1015 61.5617 54.4468 61.1821 54.7823C60.9301 55.0053 60.3393 55.2324 60.028 55.4026C59.4733 55.7056 58.9765 55.7633 58.406 55.4242C58.5612 56.6742 57.7051 56.7721 56.6394 57.0196C56.1312 57.1378 55.8303 57.3183 55.4641 56.8528C55.2132 56.5343 55.1149 55.9574 55.427 55.666C55.9227 55.2029 57.2433 55.3628 57.8793 55.0715C58.3619 54.8507 58.8535 53.6062 59.449 54.0591C59.1417 53.5697 59.4995 53.4379 59.7666 53.0889C60.0591 52.7064 60.2389 52.2592 60.5416 51.8798C61.1167 51.1587 61.9997 50.4333 62.8165 49.9984C63.5353 49.6159 63.9126 49.8867 64.0203 50.6901C64.0745 51.094 64.0724 51.6957 63.8462 52.054C63.7742 52.1683 63.5362 52.1696 63.4641 52.2769C63.3386 52.4644 63.4538 52.6013 63.2681 52.7779ZM71.7023 43.0829C72.2758 43.5268 72.2199 44.4595 72.3103 45.0948C72.4377 45.9901 72.3453 46.8565 72.3317 47.7685C72.3173 48.7239 71.8485 49.3462 71.6278 50.2418C71.3827 51.2379 71.0662 51.7655 70.5161 52.6015C71.1126 52.6953 70.2248 54.4768 70.0785 54.7074C69.9195 54.9578 68.6382 56.1114 69.1875 56.1114C68.8845 56.511 68.5545 56.9212 68.2525 57.3098C68.1337 57.4628 67.9252 57.5229 67.8315 57.6309C67.6407 57.8505 67.6291 58.0462 67.4925 58.3025C67.2851 58.6912 67.2169 58.5874 66.9443 58.8695C66.7561 59.0643 66.6326 59.3215 66.4477 59.5082C65.8519 60.1097 65.7759 59.617 65.4428 59.1537C65.3918 59.2778 65.3011 59.3556 65.1707 59.3871C65.0664 58.8629 65.7846 58.3332 66.0865 58.0147C66.5811 57.4926 67.0331 56.9175 67.4704 56.3466C68.4068 55.1233 69.2484 53.8237 69.9124 52.4316C70.6188 50.95 71.183 49.3466 71.4761 47.7303C71.6995 46.4983 71.9119 44.3851 70.2657 44.0717C69.0685 43.8438 67.7486 44.5712 66.7616 45.1602C66.1601 45.5189 65.5553 45.8756 64.9823 46.2792C64.3604 46.7168 63.8228 47.3362 63.1478 47.6873C63.517 47.4953 62.2987 48.0734 62.4853 47.9108C62.3979 47.9867 62.4733 48.2188 62.4156 48.3235C62.3404 48.4597 62.079 48.5943 61.9617 48.6824C61.652 48.9151 61.1573 49.153 61.0164 49.5372C59.0521 48.1359 62.9585 45.648 63.9598 45.0144C65.9461 43.7577 69.4023 41.3023 71.7023 43.0829ZM77.001 29.454C76.9822 28.4449 77.804 27.0673 78.3591 26.2444C78.6306 25.8416 79.0644 25.8577 79.2234 25.3826C79.3152 25.109 79.1949 24.8222 79.2222 24.5475C79.259 24.1761 79.4201 23.8782 79.6059 23.5589C81.2858 20.6727 83.3269 18.1181 85.5008 15.6C86.5728 14.3586 87.589 13.0695 88.745 11.9034C89.228 11.4164 90.526 9.66548 91.2685 9.84061C91.6617 9.93333 91.8904 10.5334 92.068 10.8396C92.3614 11.3459 92.6842 11.8202 93.0409 12.2859C93.9824 13.5153 95.0683 14.5944 96.3508 15.4658C97.1515 16.0103 97.9606 16.5396 98.7437 17.1101C99.3883 17.5796 100.363 18.1164 100.823 18.7756C101.284 19.435 100.608 19.9934 100.238 20.5409C99.6636 21.3924 99.1352 22.2746 98.5584 23.1252C98.3293 22.9604 98.3885 22.6256 98.2314 22.4145C98.0921 22.2274 97.895 22.1513 97.7025 22.0357C97.3337 21.8147 96.9716 21.5444 96.6385 21.9148C96.0555 22.5629 96.8571 24.095 97.7213 23.9269C97.8231 24.5665 96.0975 25.62 95.665 25.9721C94.3378 27.052 92.9687 27.9908 91.2154 28.0886C90.5059 28.128 89.7676 28.0742 89.0934 27.8367C88.7705 27.723 88.4134 27.5669 88.1658 27.3189C87.8694 27.0221 87.7938 26.5805 87.5063 26.2866C87.2568 26.0317 86.9143 25.9924 86.6651 25.7365C86.4155 25.4805 86.2922 25.076 86.191 24.7444C85.993 24.0965 85.9556 23.4131 85.7653 22.7637C85.6509 22.373 85.5569 21.8508 85.1836 22.2261C84.6414 22.7714 84.9137 24.486 85.0525 25.1393C85.251 26.0713 85.7165 26.8227 86.2041 27.6246C86.7328 28.4945 86.928 29.3013 87.0227 30.3078C87.2001 32.192 87.7407 34 88.5821 35.6952C88.9362 36.409 89.3604 37.0802 89.7427 37.7775C89.9213 38.1029 90.3215 39.213 90.8073 39.2071C91.5833 39.1975 90.4778 36.9344 90.3245 36.5544C89.4743 34.4502 88.6623 32.2384 88.4801 29.96C89.6988 30.2739 91.0272 30.5718 92.2892 30.3729C91.4746 32.1946 92.3255 34.0083 92.2213 35.8834C92.1694 36.8237 92.1318 37.6913 92.1511 38.6288C92.1683 39.451 91.797 40.2728 91.4761 41.0162C90.8386 42.4926 90.0362 44.3139 88.8523 45.4448C87.8626 46.3903 86.5387 46.4642 85.2455 46.2465C82.3038 45.751 80.371 43.4897 79.1364 40.9215C78.3432 39.2716 77.7369 37.5104 77.3605 35.7186C76.9247 33.645 77.0397 31.5573 77.001 29.454ZM80.8213 15.4789C78.0761 13.4926 82.0652 11.237 84.0958 11.5441C84.5721 11.616 85.4485 11.8129 85.4039 12.4345C85.3674 12.9425 84.5199 13.5088 84.1946 13.8224C83.2668 14.7172 82.3226 16.5648 80.8213 15.4789ZM100.792 59.6133C100.698 59.5289 99.9292 59.7361 100.234 59.2815C100.486 58.9038 101.188 59.3772 101.442 59.4743C101.232 59.6194 101.05 59.8441 100.792 59.6133ZM89.3609 83.6365C89.125 83.6656 88.8783 83.0293 89.7289 83.5047C89.6063 83.5486 89.4835 83.5926 89.3609 83.6365ZM89.3366 94.0077C89.3659 94.2929 89.4531 94.4809 89.2505 94.6883C89.0792 94.4772 89.0571 94.1795 89.3366 94.0077ZM89.6819 98.2929C89.6568 98.4481 89.6317 98.6033 89.607 98.7584C89.4105 98.659 89.2144 98.5596 89.0179 98.4601C89.2391 98.4044 89.4606 98.3487 89.6819 98.2929ZM89.9222 94.6794C90.215 94.7889 90.0787 94.4389 90.2913 94.3897C90.3674 94.7541 90.2736 95.0662 90.0644 95.3669C90.0445 95.2957 89.9372 94.6848 89.9222 94.6794ZM97.4035 68.821C96.9928 68.7686 96.9307 69.2026 96.6245 69.3709C96.4269 69.4796 95.8252 69.398 95.713 69.6061C95.8612 69.6488 96.0096 69.6918 96.1578 69.7346C95.8184 69.9174 95.479 70.1005 95.1396 70.2833C95.9559 70.2833 96.8065 69.8935 97.6172 70.0079C97.9599 70.0564 98.2111 70.1722 98.4261 70.4509C98.5566 70.6201 98.6713 70.8924 98.6923 71.0996C98.7149 71.3238 98.5402 71.4786 98.5712 71.5855C98.9365 71.5955 98.8934 72.1948 98.8114 72.439C98.6335 72.9687 97.9269 73.798 97.2937 73.4621C97.5586 73.838 97.4911 74.0526 97.0994 74.2707C97.135 74.1464 97.1611 73.9291 96.9609 73.9506C96.9095 74.1589 96.9292 74.4893 96.7591 74.6463C96.5687 74.822 96.3987 74.6167 96.2166 74.7309C96.0007 74.8666 96.0656 75.0795 95.8958 75.2266C95.6713 75.4209 95.6392 75.2829 95.3708 75.3207C94.9643 75.3782 95.2237 75.1256 94.8982 75.4549C94.7855 75.5684 94.8045 75.8639 94.622 76.0302C94.2714 76.3493 93.3359 76.6818 93 76.2726C92.1924 77.5525 89.7718 77.8596 88.6451 76.8492C86.8482 75.2379 90.1988 71.9609 91.305 70.9223C92.4153 69.88 93.6485 68.9797 94.8963 68.1107C95.6053 67.617 96.3329 67.1689 97.0758 66.7291C97.5341 66.4575 98.1096 65.9618 98.6727 66.0094C99.1778 66.0522 99.6094 66.4441 100.141 66.5217C100.526 66.5777 101.273 66.6703 100.788 67.1919C100.561 67.4356 99.6696 67.8298 99.3662 67.8891C99.188 67.924 99.0001 67.8572 98.8235 67.8934C98.5245 67.9548 98.3192 68.2071 97.9938 68.175C98.0968 68.6578 97.9088 68.8851 97.4035 68.821ZM102.722 50.8975C102.722 51.2752 102.032 51.181 101.888 51.0527C101.651 50.8416 101.643 50.2104 101.555 49.9234C101.956 50.0242 102.721 50.3933 102.722 50.8975ZM97.1678 38.4364C98.616 37.2461 100.139 36.1548 101.748 35.1936C102.325 34.8494 103.139 34.1552 103.855 34.2419C104.155 34.2784 104.776 34.6233 104.55 35.0036C104.507 35.0747 104.173 35.1033 104.07 35.1549C103.953 35.2133 103.861 35.3745 103.752 35.4541C103 36.0058 102.097 36.3448 101.342 36.9098C100.722 37.3738 100.144 37.8929 99.4763 38.2911C98.8359 38.6729 98.1667 38.9145 97.5588 39.3374C97.5707 39.3289 96.7679 39.6176 96.9254 39.6702C96.2206 39.4344 96.965 38.6032 97.1678 38.4364ZM106.823 37.993C107.684 37.6502 108.525 37.2341 109.426 37.0037C109.875 36.8886 110.337 36.8022 110.802 36.854C110.881 36.7155 110.986 36.6849 111.118 36.7622C111.221 36.92 111.356 37.0411 111.524 37.1257C111.781 37.3229 112.725 37.5808 112.537 38.0164C112.412 38.3046 111.465 38.3285 111.205 38.3932C110.421 38.5884 109.69 39.0275 108.883 39.1354C108.807 39.1455 108.56 39.0537 108.557 39.0543C108.242 39.123 107.98 39.4499 107.709 39.6066C107.127 39.9437 106.29 40.0003 105.872 40.5823C107.226 41.5005 108.401 40.5898 109.592 39.8965C110.306 39.4814 111.071 39.1818 111.851 38.9156C112.258 38.7767 112.669 38.6321 113.082 38.5101C113.253 38.4478 113.429 38.403 113.609 38.3755C113.777 38.3422 113.897 38.4032 113.969 38.5588C114.469 38.5422 114.511 38.229 114.812 38.8132C115.235 39.6368 114.587 39.5949 113.978 39.6962C113.134 39.8363 112.275 40.1518 111.442 40.3611C111.25 40.4094 109.567 40.7996 109.565 40.8134C109.489 41.3447 114.32 40.8527 114.734 40.7731C115.466 40.6322 116.251 40.2324 117.009 40.3288C117.591 40.4027 118.916 41.2562 117.988 41.8233C117.805 40.9488 117.178 41.671 116.851 41.9661C116.414 42.359 115.79 42.3212 115.191 42.4751C114.373 42.6852 112.279 43.4739 111.698 42.4685C111.882 43.3496 108.543 42.9018 108.084 42.8727C107.637 42.8441 107.059 42.9393 106.627 42.8117C106.345 42.7286 106.188 42.5452 105.923 42.5039C105.857 42.5739 105.779 42.6216 105.689 42.6469C105.554 42.5789 105.433 42.4922 105.324 42.3874C104.43 41.9765 103.047 41.7493 103.544 40.4403C104.012 39.2058 105.687 38.4461 106.823 37.993ZM115.203 38.756C115.225 38.6791 115.248 38.6023 115.27 38.5252C115.273 38.761 115.835 38.8616 115.77 39.1671C115.626 39.8434 114.977 38.8272 114.921 38.7164C115.016 38.7296 115.109 38.7427 115.203 38.756ZM118.636 39.8798C118.701 40.1568 119.449 40.7467 119.263 40.8828C118.969 40.482 118.154 40.6639 118.636 39.8798ZM106.024 65.1603C106.298 64.6174 107.125 65.5419 107.038 64.615C107.488 64.6558 107.207 64.9981 107.746 64.8477C107.948 64.7913 108.085 64.5673 108.331 64.5157C108.397 64.5019 108.68 64.5243 108.778 64.5214C109.102 64.5114 110.373 64.4753 109.499 64.05C109.988 63.7263 110.048 63.8906 110.49 64.1872C110.377 63.5741 111.027 63.9221 111.33 63.9986C111.114 63.6489 111.65 63.2769 111.823 63.0406C111.761 63.4047 111.794 63.8122 112.321 63.5794C112.452 63.5215 112.423 63.2642 112.527 63.2222C112.717 63.1453 112.824 63.2852 112.892 63.2773C112.96 63.2697 113.101 63.3075 113.243 63.2542C113.426 63.1851 113.338 62.9385 113.571 62.9018C113.723 62.878 113.833 63.101 114.019 63.1029C114.114 63.1038 114.272 63.0072 114.345 63.0124C114.357 63.0133 114.448 62.795 114.559 62.7897C114.722 62.7818 114.788 63.2174 114.847 63.302C115.132 63.7057 115.51 63.9689 115.947 64.1842C115.157 64.9083 113.564 64.8316 112.571 65.0757C112.033 65.2081 111.574 65.3989 111.082 65.6448C110.963 65.722 110.861 65.8168 110.775 65.929C110.706 65.8828 110.636 65.8365 110.566 65.7902C110.297 65.8068 110.041 65.6733 109.738 65.7246C108.8 65.8828 108.066 66.5853 107.113 66.7418C106.685 66.8122 106.333 66.9105 106.054 66.5392C105.809 66.2136 105.85 65.5065 106.024 65.1603ZM104.738 60.8333C104.951 61.013 104.695 61.5981 105.106 61.5345C105.398 61.4893 105.34 61.0364 105.569 60.9404C105.871 60.8145 106.052 61.1133 106.336 61.0856C106.863 61.0337 106.833 60.5728 106.387 60.3704C106.851 60.248 106.999 60.7962 107.41 60.7912C107.949 60.7848 107.82 60.1486 108.279 60.0432C108.478 59.9975 108.412 60.2893 108.541 60.3256C108.799 60.398 108.978 60.2736 109.207 60.1641C109.411 60.0662 109.556 59.8771 109.779 59.8129C109.881 59.7836 110.139 59.8373 110.214 59.7829C110.364 59.6734 110.498 59.2468 110.646 59.1904C110.616 59.2019 111.101 59.4448 111.17 59.4677C111.128 59.6478 111.029 59.6692 110.874 59.532C110.874 59.9385 112.004 60.0651 111.772 59.5628C112.383 59.8157 111.928 59.9459 111.867 60.2989C111.843 60.4408 111.76 60.4369 111.785 60.587C111.796 60.6561 112.116 60.5966 112.112 60.6908C112.085 61.2975 110.152 61.484 109.785 61.5375C109.027 61.6483 108.309 61.8346 107.578 62.0641C107.034 62.235 106.096 62.7244 105.516 62.694C104.683 62.6503 104.575 61.5634 104.738 60.8333ZM102.877 54.6427C102.674 53.9679 103.325 52.5739 104.174 52.7481C104.383 52.7908 104.434 52.9637 104.596 53.0404C104.822 53.1477 105.19 53.0913 105.386 53.2021C105.825 53.4508 105.603 54.0844 106.044 54.3133C105.349 54.4818 103.2 55.7154 102.877 54.6427ZM103.681 57.2648C103.98 57.1039 104.466 57.0832 104.67 56.7737C104.772 56.8441 104.964 57.2716 105.146 57.2062C105.231 57.1758 105.319 56.944 105.313 56.9442C105.476 56.9396 105.508 56.7197 105.756 56.7444C105.984 56.7673 106.239 57.0412 106.442 57.1433C106.407 56.4642 106.581 56.3993 107.132 56.0358C107.253 55.9562 107.354 55.6572 107.465 55.5362C107.358 56.2489 107.627 56.2528 108.196 56.3599C108.909 56.4941 109.354 56.8771 109.64 57.5664C109.032 57.4478 108.248 57.5905 108.008 58.244C107.523 57.3575 105.759 58.5808 105.189 58.8313C104.765 59.0173 104.273 59.2673 103.918 58.8339C103.668 58.5286 103.811 58.1614 103.816 57.8903C103.818 57.8051 103.906 57.8001 103.898 57.6733C103.887 57.5114 103.677 57.4467 103.681 57.2648ZM110.172 71.2049C110.011 71.2657 109.185 71.2998 109.179 71.0261C109.175 70.7842 110.638 71.0279 110.172 71.2049ZM108.829 70.3193C108.204 70.7048 107.505 69.3465 107.275 68.9554C107.931 69.0392 108.251 68.4906 108.637 68.0736C109.005 68.879 109.563 68.4534 110.15 68.1844C110.842 67.8672 111.601 67.8648 112.31 67.6102C112.532 67.5308 112.736 67.4126 112.952 67.3217C113.126 67.2566 113.299 67.1899 113.472 67.1215C113.595 67.0109 113.638 66.8747 113.603 66.7132C113.545 66.5775 113.584 66.4918 113.722 66.4564C113.885 66.5051 114.052 66.5335 114.222 66.541C114.495 66.4868 114.888 66.229 114.558 65.951C114.912 65.6298 115.266 65.9491 115.606 66.0898C115.525 65.8592 115.445 65.6285 115.364 65.3979C115.533 65.4697 116.034 66.1701 116.085 66.1663C116.409 66.1419 116.376 65.7071 116.562 65.5316C116.669 65.6641 116.7 66.6524 117.123 66.3195C117.303 66.1771 116.914 65.6923 116.818 65.5819C117.302 65.691 117.724 66.268 117.854 66.716C117.625 66.7492 117.413 66.7031 117.218 66.5774C117.093 67.2012 118.248 66.9484 118.435 67.2743C118.801 67.9124 116.42 68.3555 116.109 68.4147C115.489 68.533 114.756 68.5771 114.187 68.8523C113.641 69.1157 113.512 69.1911 112.875 69.2405C112.148 69.2969 111.439 69.5366 110.735 69.7231C110.124 69.885 109.371 69.9856 108.829 70.3193ZM122.12 47.4811C122.695 47.2744 124.629 46.2021 125.121 46.679C125.069 46.6285 125.476 47.4695 125.472 47.4166C125.507 47.854 125.496 48.03 124.958 48.2396C124.572 48.3897 124.236 48.0708 123.889 48.1974C123.508 48.3366 123.775 48.5829 123.579 48.7549C123.364 48.9434 122.949 49.0249 122.682 49.1075C122.027 49.3097 121.367 49.4788 120.716 49.6967C119.39 50.14 117.985 50.5526 116.623 50.8661C115.604 51.1004 113.876 51.6828 112.938 50.995C112.846 51.386 112.622 51.3325 112.312 51.3895C112.068 51.4341 111.627 51.5548 111.41 51.5611C111.049 51.5716 110.046 51.477 110.184 50.971C110.146 51.1104 110.964 50.6333 110.823 50.6036C111.17 50.6768 111.058 50.5019 111.342 50.4045C111.714 50.2775 112.103 50.2843 112.482 50.1498C113.439 49.8106 114.242 49.3704 115.252 49.1578C117.559 48.6725 119.895 48.282 122.12 47.4811ZM29.6369 99.7588C29.45 99.7638 29.3046 99.2327 29.8732 99.6119C29.7945 99.6609 29.7158 99.7097 29.6369 99.7588ZM25.1445 99.0715C24.8903 99.1366 24.7889 98.9947 24.8407 98.6461C25.1952 98.506 25.2964 98.6478 25.1445 99.0715ZM21.6763 98.3602C21.6113 98.0494 21.8417 97.9793 22.0505 97.8398C22.0295 98.2516 22.0295 98.2516 21.6763 98.3602ZM12.95 95.8026C12.5984 95.7254 12.13 95.3816 12.0495 95.9588C11.9907 95.8251 11.6906 95.1965 11.8194 95.0511C11.8867 94.9749 12.1415 95.327 12.1144 95.2922C12.422 94.6698 12.9524 95.4209 13.2488 95.643C13.1493 95.6963 13.0495 95.7495 12.95 95.8026ZM104.349 27.0256C104.471 26.769 104.614 26.6876 104.778 26.7814C104.52 27.3816 103.645 27.707 104.349 27.0256ZM110.431 21.3914C110.648 21.7979 110.321 21.9697 110.089 22.3076C110.225 21.9432 110.319 21.6906 110.431 21.3914ZM136.861 61.0698C137.643 61.0696 139.309 60.6569 139.781 61.5507C140.093 60.9433 140.447 62.0824 140.718 62.2651C140.749 62.2857 140.944 62.1366 141.034 62.1915C141.171 62.2743 141.289 62.4997 141.367 62.6337C141.604 63.0378 141.705 63.5182 141.836 63.9628C140.47 63.9628 139.07 63.6448 137.705 63.5293C136.809 63.4533 135.931 63.4511 135.034 63.4994C134.856 63.509 134.502 63.4502 134.35 63.4837C134.195 63.5178 133.914 63.8332 133.743 63.7826C134.009 64.2805 137.406 65.4859 137.665 64.9345C137.358 64.7487 136.676 64.606 136.676 64.1569C136.677 63.6539 137.316 63.6548 137.655 63.6696C138.396 63.702 139.637 63.9486 139.941 64.7192C140.071 65.0495 140.111 65.8813 139.968 66.2002C139.876 66.4061 139.719 66.6537 139.472 66.6955C139.37 66.7127 139.224 66.5775 139.208 66.5809C138.7 66.6887 137.759 67.097 137.204 66.5213C136.804 67.0388 134.878 66.4736 134.289 66.2784C133.257 65.937 131.837 65.4682 131.211 64.5059C130.447 63.3331 132 62.3419 132.891 61.8652C134.109 61.2138 135.501 61.0703 136.861 61.0698ZM142.066 63.7814C142.305 63.8491 142.545 63.9169 142.785 63.9846C142.721 64.4049 141.775 64.0723 142.066 63.7814ZM149.312 79.0591C149.386 77.3751 148.899 75.8921 148.618 74.2635C148.548 73.8598 148.619 73.1539 148.312 72.8219C148.019 72.5045 147.366 72.7626 147.34 72.2014C147.051 72.5393 147.08 72.6099 146.725 72.2213C146.789 72.388 146.799 72.5574 146.753 72.7299C146.532 72.6035 145.732 72.1835 145.8 72.7578C145.142 72.6123 145.333 72.201 144.958 71.8871C144.904 71.8425 144.69 72.0009 144.607 71.9334C144.456 71.8112 144.381 71.7002 144.254 71.5428C144.092 71.7382 143.872 71.8794 143.675 72.0339C143.56 71.7837 143.336 71.6001 143.067 71.5393C143.319 72.065 143.94 72.746 143.088 73.0452C142.579 73.2236 141.746 73.0048 141.208 73.0464C139.211 73.2013 137.025 72.7661 135.094 72.2905C133.111 71.8019 131.106 71.1123 129.323 70.1044C128.943 69.8894 128.703 69.635 128.376 69.3685C128.058 69.1093 127.826 69.0684 127.444 68.9026C126.755 68.6044 126.126 68.126 125.602 67.5929C124.476 66.4465 123.429 64.9472 123.743 63.2688C124.056 61.5959 125.206 60.2885 126.436 59.1869C127.889 57.8858 129.53 56.7995 131.271 55.9237C132.05 55.5324 134.042 54.0617 134.811 54.9222C135.302 55.4719 135.026 56.1733 134.354 56.2955C134.188 56.3258 134.015 56.2146 133.848 56.2907C133.606 56.4006 133.691 56.5304 133.592 56.622C133.418 56.7811 133.235 57.0292 132.976 57.1671C132.073 57.6484 131.2 58.0298 130.338 58.616C129.94 58.8861 129.557 59.0022 129.206 59.238C128.857 59.4723 128.778 59.8601 128.309 59.6209C128.476 60.3029 127.473 61.0333 127.08 61.4512C126.472 62.0982 125.742 62.9241 126.026 63.8814C126.582 65.7554 129.095 67.1787 130.703 68.0025C132.709 69.0304 134.922 69.8487 137.157 70.1873C138.268 70.3556 139.416 70.4596 140.535 70.5663C141.406 70.6495 142.743 70.3451 143.37 71.1298C143.39 70.2148 146.248 70.2955 146.856 70.1785C145.636 66.0096 143.242 62.303 140.682 58.84C139.425 57.14 138.191 55.3917 136.759 53.8333C135.191 52.1272 133.399 50.6025 131.697 49.0327C128.359 45.9536 124.583 43.2056 120.741 40.7849C116.908 38.3698 112.938 35.9929 108.739 34.271C103.942 32.3044 98.8928 31.0109 93.8376 29.9093C94.5234 29.0355 95.6388 28.6093 96.5169 27.97C96.8243 27.7462 97.2398 27.2091 97.6391 27.1357C98.0716 27.0561 98.4121 27.5213 98.7199 27.7549C99.6035 28.4252 100.215 28.1405 101.227 28.1002C101.832 28.076 103.266 28.4132 103.521 27.5941C103.861 28.0462 103.369 28.4086 103.117 28.74C103.3 28.9959 103.448 28.7304 103.629 28.6904C103.685 28.6442 103.741 28.5977 103.797 28.5514C103.886 28.4213 103.968 28.4206 104.04 28.5489C104.148 28.7114 104.256 28.6755 104.366 28.4408C104.396 28.422 104.426 28.403 104.456 28.3842C104.587 28.3146 104.713 28.2043 104.835 28.1175C105.754 27.4603 106.574 26.9005 107.589 26.4164C108.442 26.0101 107.983 25.2327 108.545 24.6838C108.673 24.5595 108.887 24.6218 109.023 24.5166C109.156 24.4132 109.176 24.2959 109.273 24.1851C109.506 23.9188 109.228 23.6096 109.824 23.9357L109.609 22.7262C110.777 23.8596 110.773 20.5982 110.933 20.1156C110.912 20.1794 111.037 19.6855 111.037 19.6898C111.072 18.7111 111.205 18.0018 110.059 17.945C110.493 17.672 110.626 18.2051 110.826 17.6532C110.926 17.3767 110.613 16.9014 111.112 17.0797C111.218 16.492 111.114 16.0164 110.983 15.4453C110.848 14.8608 110.927 14.4707 110.933 13.8862C110.94 13.2231 110.63 12.5567 110.53 11.9038C110.453 11.3924 110.533 10.5859 109.872 10.7737C109.779 10.6283 110.105 10.1809 110.092 9.95969C110.071 9.61608 109.699 9.26694 109.593 8.93697C109.438 9.09734 109.219 9.1508 109.007 9.07836C109.206 8.63004 109.019 8.47943 108.829 8.09287C108.72 7.87147 108.786 7.62704 108.553 7.46839C108.419 7.37733 108.191 7.5307 108.087 7.42397C107.862 7.19538 107.945 6.89214 107.791 6.59093C107.597 6.21321 107.154 5.92472 106.849 5.6412C105.135 4.04757 103.273 2.82963 100.992 2.20692C98.6912 1.57869 96.0088 1.35361 93.7158 2.07825C92.7992 2.36785 91.9856 2.33818 91.1606 2.87903C90.8932 3.05453 90.8644 3.00752 90.7286 3.30007C90.6972 3.36827 90.982 3.54985 90.8076 3.66138C90.6181 3.78249 90.4089 3.53621 90.3123 3.33178C89.1189 4.1956 88.0007 5.34718 87.321 6.66762C86.6456 7.97968 86.5836 9.52114 86.3257 10.947C85.1362 9.58806 83.5273 8.9366 81.778 9.5899C80.2534 10.1592 79.0719 11.4105 78.7737 13.0316C78.5917 14.0198 78.7904 15.0206 79.2393 15.9123C79.4334 16.2975 79.6684 16.7241 80.0253 16.9835C80.3075 17.1885 80.7909 17.1597 80.9238 17.5295C81.1275 18.096 79.951 19.3194 79.6456 19.8153C79.0931 20.7127 78.5797 21.6394 78.1889 22.6195C76.7877 20.6402 75.4465 18.4785 73.8532 16.6535C72.3495 14.931 70.557 13.3862 68.7989 11.9303C65.1501 8.90858 61.356 6.0698 57.2743 3.66248C53.4737 1.42089 48.8829 0.176405 44.4535 0.616428C40.1258 1.0465 36.8124 3.7836 34.0242 6.94044C28.6632 13.0102 25.3797 21.6615 25.059 29.7414C24.9626 32.1686 25.1475 34.5641 25.747 36.9183C26.0325 38.0393 25.991 39.1418 26.1569 40.2772C26.3442 41.558 26.6681 42.8342 26.9813 44.0888C28.1744 48.8682 29.6944 53.644 31.4001 58.265C32.287 60.6681 33.3601 63.0174 34.8118 65.1364C35.4822 66.1152 36.3508 66.881 37.0723 67.8104C37.7723 68.7118 37.9572 69.8183 38.1111 70.9243C38.4801 73.5764 38.725 76.2398 38.9469 78.9074C39.0411 80.0379 39.1511 81.1586 39.3008 82.2812C39.4313 83.26 39.103 83.2119 38.2796 83.5443C38.4466 82.6648 34.5124 83.2632 34.1409 83.3233C33.7367 83.3885 33.3086 83.3895 32.9903 83.4414C32.6343 83.4993 32.2859 83.5832 31.8759 83.5714C31.2733 83.5541 30.145 83.4001 29.9149 84.1694C29.7566 83.2776 28.7106 84.2527 29.4845 84.0872C28.6901 84.176 27.8796 84.0282 27.0757 84.103C26.1543 84.1886 25.2251 84.2701 24.3102 84.4087C23.6733 84.5051 23.0655 84.7505 22.4275 84.8216C21.6111 84.9129 20.759 84.9044 19.9347 84.977C16.894 85.2452 13.7423 85.9085 10.7866 86.668C10.117 86.84 9.34777 86.9622 8.70811 87.2383C8.53685 87.3121 8.38274 87.4772 8.21868 87.5406C7.94364 87.6468 7.98125 87.5735 7.737 87.6221C6.27351 87.9147 4.76375 88.3925 3.30045 88.7674C2.4888 88.9756 1.16855 89.1632 0.506466 89.7297C0.209677 89.9833 -0.0496905 90.4333 0.42591 90.7216C0.805837 90.9519 1.3481 90.5843 1.65558 90.3856C1.38165 91.0995 0.865011 91.4553 1.14403 92.2675C1.36432 92.9094 1.86167 93.7004 2.62687 93.2864C2.72936 93.5247 2.77084 93.9989 3.07261 94.0864C3.34377 94.1651 3.5401 93.8215 3.80573 93.9024C3.90085 93.9314 3.86472 94.1111 3.94989 94.1581C4.09662 94.2389 4.24539 94.2732 4.41351 94.3301C4.55803 94.3792 4.79067 94.4798 4.94146 94.4905C5.03713 94.4973 5.26258 94.3336 5.26185 94.3336C5.48158 94.367 5.59974 94.7875 5.75791 94.909C5.96326 95.0667 6.13286 95.1027 6.39001 95.1598C6.9246 95.2785 7.61367 95.4821 7.9665 94.9348C7.88576 95.3256 8.41721 95.2872 8.6517 95.3368C8.6257 95.1309 8.51197 94.9423 8.33647 94.8293C8.86074 94.864 8.6482 95.3851 9.03568 95.5228C9.31182 95.6207 9.28049 95.3718 9.49174 95.3442C9.7701 95.3079 9.98135 95.5099 10.416 95.3235C10.5102 95.7422 10.5447 96.1643 11.0588 96.2268C11.3606 96.2635 12.0642 95.7186 12.0244 96.1721C12.6985 95.9744 12.9544 96.1081 13.3067 96.7022C13.3662 96.3374 13.6544 96.4432 13.9187 96.4207C14.3377 96.385 14.3484 96.4187 14.6732 96.1814C14.7029 96.1599 14.9584 95.5746 15.0719 95.9383C15.123 96.1013 14.7855 96.4847 14.6605 96.5822C14.8157 96.6607 15.3243 96.9356 15.5199 96.8851C15.6891 96.8414 15.6897 96.5522 15.893 96.5372C15.8432 96.7035 15.7936 96.87 15.7437 97.0362C16.1393 97.0938 16.4698 96.829 16.7823 96.6351C17.0801 97.3883 17.9316 96.964 18.3947 97.5308C18.6397 97.8308 18.6511 98.0586 19.1179 98.1369C19.5955 98.2171 20.0126 98.0075 20.4186 98.4015C20.2899 98.157 19.9693 97.9543 20.2879 97.6916C20.5047 97.9992 20.6166 98.3698 20.8665 98.6559C20.901 98.5104 20.9355 98.365 20.9699 98.2193C21.6216 98.9163 22.4419 98.9224 23.2766 99.3088V98.7987C23.8742 99.7109 23.9061 99.1337 24.6201 98.7611C24.5716 99.0293 24.5229 99.2976 24.4744 99.5656C24.9882 99.5269 25.4682 100.136 25.89 99.6185C26.1448 100.046 26.4535 99.8355 26.8711 99.9711C27.1085 100.048 27.2853 100.282 27.5163 100.367C27.8626 100.494 27.9661 100.488 28.2922 100.598C28.5821 100.696 28.7469 100.887 29.1099 100.948C29.3457 100.988 29.5595 100.985 29.7851 100.974C29.8723 100.97 29.8436 100.774 30.0373 100.82C30.3369 100.891 30.5599 101.266 30.7756 101.459C31.1 100.643 32.0085 101.736 32.4476 101.881C32.4896 101.672 32.482 101.42 32.6334 101.248C32.8111 101.638 32.8789 101.965 33.2478 102.216C33.4607 102.36 33.7734 102.464 34.0193 102.517C34.1747 102.55 34.4571 102.51 34.5548 102.558C34.7214 102.64 34.7828 102.858 34.9511 102.878C35.0501 102.89 35.1968 102.63 35.2709 102.65C35.6101 102.743 35.7985 103.155 36.141 103.378C37.1603 104.041 38.4429 104.105 39.5784 104.25C39.8634 104.287 39.9047 104.209 40.1363 104.376C40.2598 104.466 40.2037 104.737 40.3556 104.813C40.928 105.1 40.9284 104.488 41.0484 104.108C41.2377 104.358 41.2703 104.688 41.5293 104.886C41.6707 104.882 41.8123 104.885 41.9535 104.896C42.0331 104.987 42.0855 105.092 42.1098 105.21C42.4527 105.442 42.8411 105.361 43.1952 105.535C43.3114 105.592 43.5171 105.937 43.6601 106.036C43.9162 106.213 44.3121 106.308 44.6047 106.385C45.2182 106.546 46.0979 106.332 46.4629 106.972C46.9475 106.453 46.76 107.073 47.0891 107.204C47.2834 107.28 47.5755 106.975 47.791 107.005C48.1791 107.06 48.3188 107.48 48.4431 107.785C48.6794 107.732 48.5172 107.064 48.5105 106.917C48.8042 106.883 48.8694 107.656 48.9201 107.826C49.3838 107.603 48.6228 106.908 49.1212 106.685C49.0755 107.277 49.5473 107.764 48.7048 107.849C48.8211 108.206 51.5383 108.602 51.7271 108.287C51.7689 108.869 52.1597 108.325 52.3039 108.126C52.3201 108.466 52.2045 108.947 52.5854 109.105C52.8442 109.212 53.4278 108.935 53.5294 108.681C53.6454 109.069 53.8396 109.056 54.0811 109.302C54.247 109.472 54.3564 109.765 54.5304 109.906C54.8506 110.167 55.4462 110.127 55.8193 110.069C56.5493 109.955 56.463 109.815 56.7231 110.574C56.7819 110.286 56.9663 109.683 57.2878 110.131C57.4924 110.416 57.0568 111.042 56.9309 111.292C57.2122 111.138 57.4914 110.955 57.8115 110.888C57.8293 110.987 57.8457 111.196 57.7986 111.287C57.8081 111.269 58.1495 111.498 58.2762 111.561C58.2458 111.546 58.3763 110.976 58.3726 110.994C58.8229 111.272 58.5105 111.804 58.9094 112.078C59.0124 112.149 59.2543 112.066 59.3789 112.109C59.5959 112.184 59.7835 112.388 59.9764 112.507C59.8224 112.3 59.8446 111.954 59.8551 111.715C59.9531 111.77 60.0232 111.972 60.1222 111.988C60.1596 111.994 60.5476 112.046 60.5451 112.044C60.9489 112.327 60.8658 112.362 60.5191 112.702C60.6429 112.897 61.1608 112.559 61.3009 112.503C61.3302 112.579 61.3377 112.855 61.3928 112.905C61.4262 112.987 61.4598 113.068 61.4933 113.15C61.5967 113.073 61.7077 113.047 61.826 113.073C61.9009 113.099 62.4851 113.337 62.5247 113.255C62.397 113.214 62.281 113.151 62.1774 113.065C62.5146 112.762 62.7363 112.601 63.0469 113.039C63.086 113.094 62.9516 113.292 62.9915 113.364C63.1399 113.631 63.4448 113.844 63.6518 114.062C63.7375 113.761 63.538 113.008 64.014 113.035C64.3943 113.057 64.6835 113.978 64.5519 114.265C64.7031 114.099 65.6056 113.935 65.7759 113.987C66.2576 114.133 66.1225 114.578 66.7151 113.925C67.1192 114.204 66.7631 114.31 66.8359 114.65C66.9426 114.672 67.0436 114.646 67.1393 114.571C67.0678 116.015 68.1338 114.912 68.826 115.132C69.0978 115.219 69.1673 115.527 69.4589 115.617C69.6132 115.665 69.7848 115.552 69.9349 115.58C70.055 115.563 70.1745 115.542 70.2932 115.516C70.4436 115.441 70.5142 115.525 70.505 115.769C70.7469 115.895 70.6554 115.944 70.9382 115.968C71.1203 115.984 71.2879 115.794 71.4949 115.827C71.852 115.883 71.8048 116.157 72.033 116.3C72.2384 116.429 72.4699 116.425 72.7228 116.4C72.8517 116.387 73.2135 116.221 73.257 116.22C73.5273 116.217 73.3807 116.159 73.7052 116.391C73.9577 116.572 74.0637 116.69 74.3738 116.773C74.7294 116.868 75.3602 117.077 75.5995 116.82C75.9226 117.304 76.1757 116.949 76.6023 116.981C76.8205 116.997 76.8552 117.082 77.0495 117.116C77.3644 117.171 77.7572 117.124 78.0921 117.231C78.6199 117.401 78.6795 117.486 79.2188 117.509C79.3162 117.471 79.4135 117.432 79.5106 117.395C79.5398 117.557 79.6163 117.689 79.7403 117.792C80.0421 117.855 80.2403 117.703 80.4891 117.536C80.6746 118.114 81.2763 118.164 81.7909 118.24C82.6214 118.363 83.4155 118.43 84.2163 118.703C84.8927 118.933 85.5703 119.192 86.2209 119.487C86.7934 119.747 87.3337 120.135 87.9815 119.953C89.4492 119.54 90.8716 118.033 92.0995 117.168C93.554 116.143 95.1225 115.299 96.6422 114.378C102.692 110.711 109.084 107.608 115.049 103.805C118.306 101.728 121.328 99.2607 124.825 97.5806C124.328 99.638 123.48 101.727 123.633 103.881C123.695 104.749 123.95 105.774 124.624 106.38C125.456 107.129 126.383 106.652 127.179 106.117C128.885 104.97 130.022 103.297 131.299 101.726C132.809 99.8666 133.98 97.8695 135.088 95.7508C135.354 96.1238 135.152 96.7485 135.156 97.162C135.161 97.6895 135.303 98.198 135.548 98.6689C136.18 99.8845 137.381 100.179 138.467 99.3464C140.557 97.7436 141.77 94.889 142.89 92.5903C143.529 93.7786 144.436 95.2743 145.97 94.4256C147.235 93.7253 147.979 92.1604 148.366 90.835C149.496 86.9661 149.138 83.025 149.312 79.0591Z" fill="url(#paint0_linear)"/>
<path fill-rule="evenodd" clip-rule="evenodd" d="M147.392 55.8198C147.248 55.4692 147.184 55.5265 147.45 55.1866C147.656 55.3903 147.491 55.5586 147.392 55.8198ZM153.789 77.0399C153.383 75.8859 153.633 74.6327 153.387 73.4491C153.274 72.906 153.095 72.3792 153.031 71.8263C153.002 71.581 152.784 70.4766 152.933 70.3027C152.475 70.0255 152.473 69.8203 152.367 69.2767C152.53 69.1036 152.51 68.9559 152.306 68.8334C152.172 68.6719 152.039 68.5102 151.905 68.3487C152.489 68.6343 152.144 67.9034 152.084 67.4821C152.037 67.1492 152.005 66.8019 151.894 66.4828C151.758 66.0905 151.454 65.8922 152.086 65.8922C151.878 65.6557 151.567 65.4116 151.463 65.122C151.314 64.7052 151.56 64.1544 151.256 63.7863C151.087 63.5809 150.213 63.5005 150.367 63.057C150.445 62.831 150.799 62.9997 150.908 62.8413C151.339 62.219 150.068 61.9611 150.005 61.6964C149.925 61.3531 150.384 61.2765 150.412 60.9555C150.439 60.6414 149.951 60.1253 149.822 59.8443C149.646 59.8871 149.453 60.1653 149.252 60.0323C149.214 60.0073 149.271 58.9198 149.225 58.7755C149.18 58.6336 149.088 58.2571 149.056 58.1875C148.925 57.9108 148.552 57.776 148.493 57.4492C148.458 57.2541 149.222 56.9588 148.346 56.9496C148.66 56.3947 148.084 56.0576 147.874 55.5834C147.604 54.9738 147.445 54.3154 147.167 53.7026C146.898 53.107 146.597 52.5418 146.208 52.0152C145.856 51.5383 145.704 51.0796 145.423 50.576C145.367 50.5318 145.311 50.4875 145.254 50.4433C145.02 50.4772 144.945 50.3705 145.029 50.1229C144.849 49.8573 144.716 49.5737 144.558 49.2963C144.374 48.9739 144.126 48.711 143.936 48.3975C143.684 47.9818 143.61 47.513 143.325 47.096C142.975 46.583 142.581 46.1306 142.257 45.5984C141.85 44.9317 141.4 44.5173 140.888 44.0009C140.644 43.755 140.615 43.1408 140.317 42.7916C139.992 42.4113 139.671 42.3083 139.445 41.8091C139.152 41.1597 138.722 40.8496 138.304 40.2883C137.958 39.8252 137.789 39.293 137.409 38.8451C137.082 38.4604 136.71 38.1088 136.361 37.744C135.92 37.2833 135.594 36.7235 135.135 36.2855C135.202 36.3487 134.736 35.9797 134.759 35.9915C134.656 35.9389 134.324 35.8967 134.372 35.9253C133.68 35.5181 132.812 34.0277 131.769 34.8174C131.221 35.2327 131.484 35.9944 131.867 36.4081C132.031 36.5858 132.885 37.4618 133.07 37.0924C133.269 37.3748 133.883 38.74 134.393 38.3488C134.341 38.8154 134.612 38.6606 134.79 38.976C134.907 39.1841 134.85 39.2862 134.936 39.611C135.171 40.504 136.069 41.3761 136.548 42.1547C137.738 44.0927 139.052 45.9308 140.244 47.871C141.379 49.7201 142.651 51.4747 143.741 53.3487C144.98 55.4797 146.524 57.4912 147.458 59.7885C147.489 59.8657 147.749 59.9879 147.813 60.1039C147.925 60.3054 147.901 60.6538 147.974 60.882C148.224 61.6732 148.63 62.452 149.093 63.1073C149.499 63.6823 149.528 64.4637 149.808 65.1382C150.202 66.0889 150.618 67.0296 151 67.985C151.596 69.4721 151.999 70.8974 152.411 72.4499C152.678 73.4561 152.89 74.4617 152.975 75.5006C153.053 76.456 153.072 77.4513 153.426 78.3559C153.667 77.9835 153.951 77.5011 153.789 77.0399Z" fill="url(#paint1_linear)"/>
<path fill-rule="evenodd" clip-rule="evenodd" d="M17.5351 97.5128C17.107 97.4264 16.7043 97.311 16.6136 96.8195C16.5514 97.0512 16.4895 97.283 16.4274 97.5147C16.9485 97.6326 17.4698 97.7508 17.991 97.8688C17.8693 97.6544 17.7804 97.5624 17.5351 97.5128Z" fill="url(#paint2_linear)"/>
<path fill-rule="evenodd" clip-rule="evenodd" d="M18.6836 16.856C18.716 16.7174 18.7581 16.5815 18.8099 16.449C18.8451 16.5782 19.0176 16.8577 18.9172 16.9795C18.7892 17.1342 18.6598 17.0466 18.6836 16.856ZM20.782 12.8636C20.9224 12.9255 21.2264 12.9375 21.4008 12.9898C20.9484 13.379 20.8688 13.2645 20.2839 13.2193C20.2579 12.8256 20.4179 12.7034 20.782 12.8636ZM16.8608 22.6112C16.9215 22.6128 16.9823 22.6143 17.0433 22.6158C17.047 22.4443 17.0426 22.2731 17.0297 22.102C17.6465 22.2368 17.2974 21.1589 17.1036 20.9355C17.7053 20.9556 17.9984 19.0506 18.189 18.6836C18.3582 18.3577 18.55 18.2316 18.6737 17.8341C18.7819 17.4863 18.8989 17.1733 19.0551 16.8442C19.4138 16.0877 19.8844 15.4006 19.7976 14.5189C20.1016 15.1805 20.3689 14.52 20.5617 14.2037C20.8723 13.694 21.6301 13.0437 21.7107 12.4383C21.7818 11.9053 21.3859 11.8771 21.6196 11.3829C21.8559 10.8826 22.0502 10.9328 22.4643 10.7728C22.7397 10.6662 22.7944 10.7956 22.9887 10.4479C23.1146 10.2229 23.0702 10.0551 23.2315 9.87059C23.298 9.92847 23.3738 9.95244 23.4586 9.94248C23.5895 9.76976 23.6754 9.5773 23.7161 9.36513C23.8229 9.07866 23.8745 8.81561 24.0352 8.54278C24.1877 8.28433 24.4583 7.59287 24.6017 7.46824C24.754 7.33588 25.6176 7.40316 25.6139 7.40796C25.9706 6.95927 25.316 6.51224 26.2224 6.60681C26.0434 6.27352 26.6722 5.85986 26.8547 5.67441C27.3106 5.21153 27.3469 4.99733 27.4431 4.41518C27.492 4.11839 27.1731 4.15267 27.6006 4.08502C27.7773 4.05718 27.9469 4.28319 28.0745 4.25001C28.6377 4.10401 28.0485 4.13184 28.2039 3.90234C28.2529 3.82952 28.5035 3.53568 28.5011 3.53882C28.4889 3.55357 28.5575 3.28314 28.6143 3.21364C28.7219 3.20442 28.8279 3.18562 28.9321 3.15723C28.985 3.05031 29.0318 2.94081 29.0723 2.82874C29.4799 2.48881 30.0897 2.33673 30.3716 1.96325C30.5539 1.72177 30.4993 1.48526 30.7349 1.24451C30.9593 1.01519 31.256 1.18128 31.3005 0.663278C31.3571 0.00425796 30.6492 -0.289029 30.3596 0.376075C29.5743 -0.591164 26.2919 2.95759 25.9127 3.42121C24.2656 5.43385 22.6468 7.49626 21.2957 9.72183C19.9793 11.8904 18.8989 14.1722 18.0544 16.564C17.6472 17.7173 17.3993 18.8653 17.1506 20.0582C17.0671 20.4577 16.4431 22.2379 16.7029 22.6362C16.7554 22.6279 16.8081 22.6194 16.8608 22.6112Z" fill="url(#paint3_linear)"/>
<path fill-rule="evenodd" clip-rule="evenodd" d="M146.51 71.9668C146.788 71.7817 146.788 71.7817 146.836 71.432C146.464 71.4998 146.464 71.4998 146.51 71.9668Z" fill="url(#paint4_linear)"/>
<path fill-rule="evenodd" clip-rule="evenodd" d="M9.75867 95.4932C9.76217 95.4928 9.76475 95.4938 9.76678 95.4958C9.76088 95.4883 9.7395 95.466 9.75867 95.4932Z" fill="url(#paint5_linear)"/>
<path fill-rule="evenodd" clip-rule="evenodd" d="M9.57153 95.6807C9.65725 95.866 9.79495 95.9121 9.98482 95.8186C10.0597 95.9255 9.33557 95.1515 9.57153 95.6807Z" fill="url(#paint6_linear)"/>
<path fill-rule="evenodd" clip-rule="evenodd" d="M22.0943 11.1243C21.6598 11.9762 22.204 11.3566 22.1762 11.6333C22.1944 11.4515 22.2698 11.1925 22.0943 11.1243Z" fill="url(#paint7_linear)"/>
<path fill-rule="evenodd" clip-rule="evenodd" d="M92.7318 24.3089C92.92 25.8364 95.0097 25.114 95.4798 24.1901C95.8221 23.5174 96.6865 20.8594 95.7565 20.2979C95.0671 19.8816 94.9198 21.6756 94.7498 22.0764C94.465 22.7476 94.2425 22.272 93.6093 22.4442C92.9104 22.6342 92.654 23.6756 92.7318 24.3089Z" fill="url(#paint8_linear)"/>
<path fill-rule="evenodd" clip-rule="evenodd" d="M90.4477 21.5127C91.1947 21.6786 91.9269 21.5931 92.4574 21.0032C92.7512 20.6766 93.1422 20.0286 92.6132 19.7125C92.1337 19.4262 91.5901 20.0966 91.0852 19.958C90.3985 19.7694 90.7521 19.0332 90.5165 18.5469C89.6508 19.0453 89.1678 21.2285 90.4477 21.5127Z" fill="url(#paint9_linear)"/>
<path fill-rule="evenodd" clip-rule="evenodd" d="M91.2229 25.3699C90.5028 25.3685 90.4969 26.254 90.8728 26.6336C91.2325 26.9967 92.142 27.3643 92.6296 27.0819C93.5915 26.5245 91.8056 25.4275 91.2229 25.3699Z" fill="url(#paint10_linear)"/>
<path fill-rule="evenodd" clip-rule="evenodd" d="M49.3282 60.5858C49.482 60.6604 49.9351 61.0446 50.1261 60.8711C49.8566 60.5996 49.5869 60.3281 49.3174 60.0565C49.1684 60.2198 49.0663 60.4586 49.3282 60.5858Z" fill="url(#paint11_linear)"/>
<path fill-rule="evenodd" clip-rule="evenodd" d="M45.9244 21.7337C45.8479 21.7908 45.7712 21.8478 45.6947 21.9048C45.953 22.1199 45.9465 22.1839 46.2068 21.9802C46.1296 21.8784 46.0356 21.7964 45.9244 21.7337Z" fill="url(#paint12_linear)"/>
<path fill-rule="evenodd" clip-rule="evenodd" d="M94.7261 72.4122C94.5814 72.1523 94.308 72.6315 94.1231 72.7095C93.8223 72.8362 93.5755 72.1652 93.6617 72.9694C92.9817 72.6581 92.569 73.3724 92.1304 73.7444C91.5108 74.2701 90.753 74.5553 90.3397 75.3019C92.2851 75.757 94.4225 74.0799 95.8731 72.9783C96.1098 72.7984 97.2929 71.8909 96.491 71.8031C96.1631 71.7674 94.9694 72.8491 94.7261 72.4122Z" fill="url(#paint13_linear)"/>
<path fill-rule="evenodd" clip-rule="evenodd" d="M94.1481 70.8373C94.5293 70.5371 93.7074 70.5097 93.5774 70.4781C93.5886 70.7169 93.5995 70.9554 93.6108 71.1942C93.7947 71.0826 93.9739 70.9635 94.1481 70.8373Z" fill="url(#paint14_linear)"/>
<path fill-rule="evenodd" clip-rule="evenodd" d="M92.7175 71.8385C92.8314 71.7673 93.149 71.5452 92.933 71.3796C92.7378 71.5039 92.5982 71.7067 92.5676 71.938C92.6176 71.9048 92.6675 71.8716 92.7175 71.8385Z" fill="url(#paint15_linear)"/>
<path fill-rule="evenodd" clip-rule="evenodd" d="M61.2112 52.481C60.9676 52.5764 60.8585 52.7274 60.8841 52.9342C61.2584 52.8577 61.187 52.5044 61.2112 52.481Z" fill="url(#paint16_linear)"/>
<defs>
<linearGradient id="paint0_linear" x1="-6.61649" y1="120" x2="174.398" y2="13.5756" gradientUnits="userSpaceOnUse">
<stop offset="0.00209505" stop-color="#05DFFC"/>
<stop offset="1" stop-color="#0BFFC4"/>
</linearGradient>
<linearGradient id="paint1_linear" x1="130.439" y1="78.3559" x2="164.984" y2="70.0367" gradientUnits="userSpaceOnUse">
<stop offset="0.00209505" stop-color="#05DFFC"/>
<stop offset="1" stop-color="#0BFFC4"/>
</linearGradient>
<linearGradient id="paint2_linear" x1="16.3563" y1="97.8688" x2="18.0672" y2="96.6681" gradientUnits="userSpaceOnUse">
<stop offset="0.00209505" stop-color="#05DFFC"/>
<stop offset="1" stop-color="#0BFFC4"/>
</linearGradient>
<linearGradient id="paint3_linear" x1="15.9735" y1="22.6362" x2="37.8817" y2="15.9528" gradientUnits="userSpaceOnUse">
<stop offset="0.00209505" stop-color="#05DFFC"/>
<stop offset="1" stop-color="#0BFFC4"/>
</linearGradient>
<linearGradient id="paint4_linear" x1="146.474" y1="71.9668" x2="146.992" y2="71.8085" gradientUnits="userSpaceOnUse">
<stop offset="0.00209505" stop-color="#05DFFC"/>
<stop offset="1" stop-color="#0BFFC4"/>
</linearGradient>
<linearGradient id="paint5_linear" x1="9.75013" y1="95.4958" x2="9.77134" y2="95.4857" gradientUnits="userSpaceOnUse">
<stop offset="0.00209505" stop-color="#05DFFC"/>
<stop offset="1" stop-color="#0BFFC4"/>
</linearGradient>
<linearGradient id="paint6_linear" x1="9.50286" y1="95.8656" x2="10.0673" y2="95.5322" gradientUnits="userSpaceOnUse">
<stop offset="0.00209505" stop-color="#05DFFC"/>
<stop offset="1" stop-color="#0BFFC4"/>
</linearGradient>
<linearGradient id="paint7_linear" x1="21.9126" y1="11.6333" x2="22.3444" y2="11.5204" gradientUnits="userSpaceOnUse">
<stop offset="0.00209505" stop-color="#05DFFC"/>
<stop offset="1" stop-color="#0BFFC4"/>
</linearGradient>
<linearGradient id="paint8_linear" x1="92.5613" y1="25.1947" x2="97.6563" y2="23.5226" gradientUnits="userSpaceOnUse">
<stop offset="0.00209505" stop-color="#05DFFC"/>
<stop offset="1" stop-color="#0BFFC4"/>
</linearGradient>
<linearGradient id="paint9_linear" x1="89.5187" y1="21.5875" x2="93.7217" y2="19.498" gradientUnits="userSpaceOnUse">
<stop offset="0.00209505" stop-color="#05DFFC"/>
<stop offset="1" stop-color="#0BFFC4"/>
</linearGradient>
<linearGradient id="paint10_linear" x1="90.5221" y1="27.1821" x2="93.2797" y2="25.5461" gradientUnits="userSpaceOnUse">
<stop offset="0.00209505" stop-color="#05DFFC"/>
<stop offset="1" stop-color="#0BFFC4"/>
</linearGradient>
<linearGradient id="paint11_linear" x1="49.1233" y1="60.9157" x2="50.3505" y2="60.2704" gradientUnits="userSpaceOnUse">
<stop offset="0.00209505" stop-color="#05DFFC"/>
<stop offset="1" stop-color="#0BFFC4"/>
</linearGradient>
<linearGradient id="paint12_linear" x1="45.6714" y1="22.1038" x2="46.2585" y2="21.7213" gradientUnits="userSpaceOnUse">
<stop offset="0.00209505" stop-color="#05DFFC"/>
<stop offset="1" stop-color="#0BFFC4"/>
</linearGradient>
<linearGradient id="paint13_linear" x1="90.0476" y1="75.3784" x2="96.163" y2="70.2033" gradientUnits="userSpaceOnUse">
<stop offset="0.00209505" stop-color="#05DFFC"/>
<stop offset="1" stop-color="#0BFFC4"/>
</linearGradient>
<linearGradient id="paint14_linear" x1="93.5469" y1="71.1942" x2="94.4638" y2="70.7896" gradientUnits="userSpaceOnUse">
<stop offset="0.00209505" stop-color="#05DFFC"/>
<stop offset="1" stop-color="#0BFFC4"/>
</linearGradient>
<linearGradient id="paint15_linear" x1="92.5477" y1="71.938" x2="93.1781" y2="71.7047" gradientUnits="userSpaceOnUse">
<stop offset="0.00209505" stop-color="#05DFFC"/>
<stop offset="1" stop-color="#0BFFC4"/>
</linearGradient>
<linearGradient id="paint16_linear" x1="60.8655" y1="52.9342" x2="61.3485" y2="52.7683" gradientUnits="userSpaceOnUse">
<stop offset="0.00209505" stop-color="#05DFFC"/>
<stop offset="1" stop-color="#0BFFC4"/>
</linearGradient>
</defs>
</svg>
