<svg width="456" height="400" viewBox="0 0 456 400" fill="none" xmlns="http://www.w3.org/2000/svg">
<path fill-rule="evenodd" clip-rule="evenodd" d="M263.39 24.6918C261.628 29.6538 259.868 34.6166 258.106 39.5788C256.976 42.7587 255.848 45.938 254.719 49.118C254.318 50.2454 254.096 51.4019 253.322 52.1846C251.497 54.0275 248.221 55.2003 246.028 56.4967C244.559 57.3655 243.089 58.2342 241.619 59.103C240.862 59.5513 239.182 60.1141 238.651 60.858C238.067 61.6777 238.343 63.1831 238.343 64.3166V74.1029V92.5426C245.933 91.5327 253.523 90.5234 261.113 89.5135C251.001 101.931 240.889 114.348 230.777 126.765C228.285 129.825 225.259 132.77 223.402 136.331C219.45 143.909 215.587 151.543 211.681 159.148C208.045 166.227 204.408 173.307 200.772 180.385L233.487 178.904C241.956 178.52 250.658 179.097 258.818 176.542C265.546 174.436 272.273 172.331 279 170.225C279.895 169.945 282.682 169.628 283.316 168.862C283.91 168.144 283.898 165.432 284.065 164.513C287.241 147.145 291.283 128.004 300.551 113.054C307.195 102.336 316.161 92.9527 324.372 83.6069C327.576 79.9593 330.837 76.3553 333.928 72.5968C334.72 71.6342 335.864 70.5419 336.387 69.3727C336.726 68.6172 337.198 67.1778 336.988 66.5072C336.897 66.2164 334.784 65.1732 334.482 64.966C332.341 63.5018 330.218 62.0066 328.092 60.5187C322.116 56.3374 316.145 52.1458 310.135 48.0202C305.45 44.8034 300.777 41.3926 295.835 38.6283C290.712 35.7628 285.07 33.7461 279.699 31.4821C274.272 29.194 268.834 26.9321 263.39 24.6918Z" fill="url(#paint0_linear)"/>
<path fill-rule="evenodd" clip-rule="evenodd" d="M447.597 289.785C444.991 292.399 440.245 295.907 436.493 294.311C434.609 293.511 433 291.752 431.284 290.618C429.267 289.285 427.372 287.952 425.662 286.175C422.252 282.63 419.67 277.451 415.642 274.676C414.288 273.743 411.645 273.543 410.706 272.053C410.285 271.385 410.246 270.372 410.324 269.599C410.492 267.936 411.336 268.034 409.926 266.812H412.117C412.159 265.912 411.314 265.837 410.684 265.953C410.977 264.526 411.275 258.938 408.83 261.47C406.71 263.665 407.77 267.307 406.269 269.684C405.12 271.504 402.07 270.031 401.658 268.028C401.473 267.128 402.405 265.723 402.516 264.841C402.759 262.885 401.938 261.194 400.746 259.712C398.131 261.567 399.614 265.405 398.123 267.841C396.775 270.046 393.771 269.017 391.718 268.629C389.257 268.164 386.473 268.635 384.118 268.016C380.562 267.082 381.89 262.639 381.539 259.771C381.161 256.699 378.244 252.435 379.12 249.336C380.062 246.008 385.566 245.289 388.197 244.482C394.21 242.636 402.787 242.281 407.258 237.113C410.813 241.333 413.673 246.165 417.402 250.228C421.43 254.616 425.733 258.667 429.6 263.232C433.624 267.982 437.779 272.642 441.657 277.53C443.349 279.662 444.835 281.96 446.586 284.042C448.142 285.892 449.783 287.594 447.597 289.785ZM268.872 207.714C270.719 206.669 270.954 207.324 270.954 209.478C270.422 208.444 269.895 208.167 268.872 207.714ZM253.206 249.58V245.784C254.987 245.734 253.892 248.981 253.206 249.58ZM252.77 255.233C252.77 253.552 252.727 251.951 253.183 250.316C253.422 252.098 253.878 253.64 252.77 255.233ZM260.429 370.714C262.065 370.877 264.586 369.678 265.962 371.044C267.376 372.447 267.262 376.533 267.597 378.429C268.15 381.563 268.64 384.707 269.107 387.856C269.412 389.921 269.79 392.018 267.597 392.808C264.356 393.974 259.724 392.309 256.346 392.158C249.672 391.859 243.001 391.443 236.321 391.299C229.847 391.16 223.358 391.27 216.913 391.987C214.002 392.31 211.155 392.882 208.274 393.399C206.755 393.673 202.685 394.815 201.313 393.452C198.732 390.887 203.023 384.899 204.869 383.207C208.294 380.069 213.165 377.805 217.46 376.442C219.756 375.713 223.582 373.668 225.39 375.956C226.777 377.711 226.722 380.053 228.71 381.383C233.316 384.464 230.621 375.626 227.743 374.538C229.675 369.724 233.359 376.521 234.887 378.154C235.431 378.735 237.199 380.65 237.967 379.687C238.542 378.966 237.393 376.383 237.181 375.68C236.857 374.613 236.039 372.989 236.274 371.831C236.7 369.736 239.461 369.166 241.115 368.991C243.679 368.721 246.195 369.586 248.73 369.875C252.618 370.319 256.536 370.325 260.429 370.714ZM234.68 173.394C229.618 173.823 224.524 172.999 219.473 173.674C214.695 174.312 210.192 176.179 205.688 177.894C212.384 161.179 221.048 145.963 231.609 131.709C236.867 124.609 242.524 117.559 248.206 110.84C250.85 107.714 253.585 104.692 256.315 101.653C258.75 98.943 260.495 94.34 263.418 92.316C265.912 90.5882 270.271 91.8205 273.036 91.9277C276.16 92.0489 279.963 92.3512 283.01 91.2443C285.218 90.4423 285.826 88.3019 283.061 88.231C279.801 88.1468 276.595 88.5085 273.292 88.1832C264.734 87.3417 256.485 85.9586 247.858 86.7432C245.882 86.9225 243.28 87.8185 241.341 87.5495C239.946 87.355 240.863 88.1014 239.894 86.9104C239.522 86.4548 239.075 85.3837 238.965 84.7785C238.347 81.3793 240.101 76.5219 240.521 73.0997C240.909 69.9325 240.565 66.4515 241.292 63.3673C241.953 60.5605 243.969 60.1861 246.453 59.8863C253.245 59.0654 260.178 58.6286 267.002 58.0101C282.574 56.5985 298.641 54.4691 314.108 57.9574C319.693 59.2169 326.503 61.1645 331.492 64.2833C333.052 65.258 334.626 66.406 334.059 68.4258C333.47 70.5225 330.584 72.7374 329.155 74.1186C318.59 84.3254 308.386 94.7362 300.964 107.833C291.5 124.533 286.069 142.57 282.882 161.707C282.197 165.824 281.56 167.979 277.58 169.164C273.307 170.437 269.183 171.264 264.752 171.651C254.737 172.526 244.691 172.544 234.68 173.394ZM238.073 62.7972C237.305 68.8765 236.266 74.9425 236.164 81.0697C236.125 83.3839 235.919 84.5435 233.607 85.0596C230.881 85.6678 228.109 86.121 225.37 86.7522C212.153 89.8007 199.185 93.5446 186.254 97.7586C173.686 101.855 161.326 106.464 148.476 109.498C142.948 110.804 136.48 111.683 131.446 114.574C126.03 117.684 126.743 122.783 126.257 128.384C125.607 135.867 123.522 143.112 122.789 150.592C122.438 154.166 122.119 157.762 122.172 161.359C122.217 164.425 122.629 167.815 120.693 170.395C116.807 164.868 114.966 157.915 114.2 151.14C113.828 147.847 113.975 144.527 113.869 141.219C113.783 138.555 113.839 134.318 112.208 132.094C108.664 127.259 104.055 146.633 103.617 148.702C102.879 152.184 102.272 155.696 101.537 159.178C101.212 160.722 100.794 166.334 98.8503 166.893C94.8228 168.052 95.7069 156.008 95.6431 154.174C95.5156 150.473 95.4291 146.767 95.5105 143.063C95.5697 140.388 96.0558 137.487 95.7672 134.811C95.0585 128.243 91.5877 135.163 90.612 137.608C88.1466 143.781 87.0314 150.388 84.8204 156.659C84.4527 157.703 83.5886 161.214 82.2195 161.28C80.6962 161.352 80.7081 157.725 80.621 156.665C80.1155 150.523 78.4083 144.424 78.9235 138.218C79.4438 131.951 81.5079 125.509 84.4288 120.059C90.6041 108.535 101.756 101.918 112.437 95.8909C124.661 88.9944 137.567 83.5457 150.748 79.1069C166.601 73.7685 182.878 69.449 199.253 66.3751C207.584 64.8115 216.044 63.6932 224.46 62.7966C227.418 62.4816 230.377 62.2974 233.297 61.6983C234.399 61.4717 238.375 60.3952 238.073 62.7972ZM246.588 43.1234C242.411 43.1586 238.145 41.0037 234.076 40.1132C229.231 39.0518 224.5 37.516 219.665 36.408C210.195 34.2386 200.72 32.1231 191.259 29.9058C187.152 28.9432 183.025 28.1053 178.934 27.0714C174.557 25.9652 169.828 24.7318 165.348 25.9234C158.557 27.7299 155.689 35.6362 153.195 41.8064C151.434 46.1646 150.054 51.0226 147.308 54.815C146.33 56.1672 144.939 57.7799 143.166 57.3419C139.872 56.5289 140.395 51.8895 140.815 49.3251C141.423 45.6036 142.284 41.9258 142.973 38.2212C143.251 36.7261 145.404 26.9405 141.56 28.4555C138.709 29.5793 137.2 36.9811 136.121 39.6249C135.319 41.5895 134.469 43.5414 133.569 45.4576C132.368 48.0136 128.941 56.5537 125.147 55.4523C119.717 53.876 124.926 38.6853 125.851 35.4835C126.358 33.7261 131.877 20.3978 127.219 21.487C125.235 21.9517 123.303 25.8731 122.291 27.4985C120.497 30.3814 118.709 33.285 117.021 36.239C115.284 39.2771 114.397 42.7351 112.675 45.729C111.768 47.3048 109.919 49.4045 108.113 47.9457C105.298 45.6733 106.967 37.7687 107.46 34.7796C108.377 29.2225 110.655 23.5256 113.781 18.9826C118.478 12.1563 127.34 9.95053 134.793 8.62441C144.413 6.91238 154.167 7.38068 163.827 8.3936C174.691 9.53313 185.39 10.7532 196.098 13.0832C206.891 15.4313 217.689 17.7607 228.316 20.8661C233.322 22.3291 238.399 23.6261 243.334 25.3436C248.58 27.1689 253.7 29.4406 259.093 30.7558C257.196 35.7931 255.299 40.8304 253.402 45.8684C251.587 43.957 249.109 43.1016 246.588 43.1234ZM339.561 57.0044C341.224 56.0363 343.061 55.5796 343.668 53.4398C344.205 51.5491 343.288 49.4069 342.85 47.5919C341.624 42.5104 341.301 37.2465 342.386 32.1049C343.423 33.7897 347.305 40.2701 349.667 36.3468C351.091 33.9805 347.275 30.5765 346.16 28.9129C348.605 27.3077 352.096 22.9991 354.913 25.5975C356.733 27.2774 357.504 28.8947 359.957 29.7114C362.935 30.7031 365.738 30.4759 368.779 30.2021C370.908 30.0106 371.421 29.7083 372.253 31.4531C372.906 32.8246 373.243 34.5221 373.625 35.9948C374.376 38.8985 376.116 44.6198 374.055 47.3399C372.251 49.7226 365.245 47.6798 364.272 50.7555C363.742 52.433 366.274 52.4929 367.242 53.3229C368.44 54.3504 369.431 55.9854 370.082 57.4461C370.564 58.5262 371.298 60.3109 370.477 61.4153C369.343 62.9432 367.241 61.7843 366.327 60.6738C365.113 59.1987 364.719 57.1819 363.707 55.5753C361.848 52.6274 361.737 54.9725 361.231 57.0892C360.706 59.2883 359.462 59.1369 357.558 59.4192C354.217 59.9154 350.841 60.6151 347.589 61.568C345.921 62.0563 344.306 62.6785 342.719 63.4054C341.696 63.8731 339.923 65.2901 338.813 65.3035C336.756 65.3283 335.33 61.6674 334.268 60.1401C336.031 59.0927 337.789 58.0355 339.561 57.0044ZM450.013 281.169C444.876 274.607 440.427 267.478 435.358 260.858C430.36 254.329 424.577 248.621 418.967 242.707C416.32 239.916 413.783 236.854 410.86 234.382C408.68 232.536 407.003 232.508 404.38 233.325C396.928 235.648 389.341 238.443 382.289 241.909C375.723 245.137 369.741 249.281 362.62 251.081C355.351 252.919 347.793 253.509 340.343 253.053C332.702 252.586 325.494 250.894 318.227 248.407C311.345 246.052 304.169 243.995 298.283 239.327C292.112 234.433 287.344 227.394 282.927 220.774C280.69 217.422 278.47 213.903 276.964 210.104C275.656 206.808 274.801 202.917 272.455 200.231C271.879 201.099 271.163 201.843 270.871 202.863C270.738 203.326 271.522 203.312 271.442 203.68C271.29 204.374 270.422 205.081 269.918 205.459C268.106 206.816 268.095 205.736 268.57 208.273C268.847 209.753 268.323 213.09 266.057 212C266.891 213.063 265.565 214.405 265.132 215.281C264.834 214.917 264.464 214.79 264.021 214.9C264.85 216.657 264.36 216.703 263.557 218.098C263.41 218.354 262.89 219.688 262.965 219.575C262.144 220.82 261.196 221.133 260.717 222.683C260.324 223.955 260.424 225.355 259.986 226.626C259.456 225.846 258.926 225.067 258.396 224.287C258.504 224.901 258.721 225.808 258.972 226.364C259.13 226.712 259.809 227.524 259.8 227.713C259.763 228.422 258.932 228.252 258.695 228.863C258.25 230.01 258.893 230.179 258.651 231.298C258.373 232.582 257.627 232.069 257.272 233.163C257.205 233.371 257.729 234.189 257.646 234.637C257.529 235.271 256.989 235.625 256.799 236.189C256.314 237.622 256.49 238.671 255.817 240.046C255.556 240.579 255.176 240.934 254.993 241.54C254.831 242.073 255.178 243.208 254.867 243.685C253.366 245.986 253.577 242.022 253.691 241.039C254.646 232.783 257.713 224.263 260.519 216.547C261.914 212.713 263.271 208.76 265.02 205.088C265.724 203.609 266.536 202.083 267.699 200.952C269.17 199.521 271.257 198.949 272.589 197.351C272.379 197.603 274.033 195.937 273.768 196.484C274.005 195.995 273.592 195.332 273.739 194.858C273.921 194.27 274.267 194.146 274.652 193.632C275.343 192.707 276.165 192.247 275.079 191.069C276.691 190.69 277.462 190.133 277.784 188.296C278.019 186.951 277.544 187.039 278.373 186.143C279.205 185.243 279.626 185.946 280.15 184.387C280.777 182.522 281.193 179.985 281.569 178.033C281.897 176.329 281.101 173.823 282.451 172.62C284.16 171.096 285.69 171.741 285.383 168.677C285.085 165.69 285.957 163.88 286.833 161.053C288.583 155.41 289.259 149.452 290.792 143.742C294.066 131.555 299.849 120.567 306.068 109.84C311.814 99.9281 319.847 91.483 327.604 83.35C329.728 81.1224 331.829 78.8627 333.736 76.4207C335.379 74.3179 336.129 71.4549 337.708 69.4587C338.667 68.2465 340.453 67.7279 341.793 67.0851C344.026 66.0129 346.688 64.614 349.209 64.8309C348.208 68.4252 347.881 72.6253 350.837 75.3206C354.424 78.5901 357.675 75.1933 360.963 73.3293C366.957 69.9313 375.528 73.0506 380.754 67.9575C381.999 66.7447 382.346 64.8067 383.639 63.6738C384.589 62.8432 385.94 62.6324 387.009 62.0133C390.256 60.1322 391.832 56.6888 390.568 52.8849C389.412 49.4075 387.617 48.2014 391.614 46.4391C394.859 45.0093 396.092 42.8551 394.624 39.0197C393.223 35.363 390.658 34.9419 388.23 32.549C385.879 30.2311 388.58 27.5336 390.342 25.7937C392.612 23.5492 393.047 21.5264 390.414 19.1922C387.656 16.7484 383.719 16.8338 380.505 18.0424C376.87 19.4085 374.475 21.6797 372.937 25.36C371.371 29.1068 367.488 28.0611 364.343 27.0169C361.336 26.0185 360.553 23.8642 358.578 21.5446C356.382 18.9644 351.906 21.1708 349.316 22.3497C342.936 25.2515 336.595 29.8313 336.342 37.9437C336.191 42.7812 338.113 46.8928 339.113 51.4334C340.027 55.5856 333.759 55.2585 332.674 59.275C321.094 52.7516 308.199 50.7555 295.255 50.3114C281.498 49.8389 267.543 49.4602 253.903 51.7696C257.069 45.8993 258.741 39.4619 261.496 33.431C262.289 31.6948 262.63 31.8432 264.38 32.3678C267.742 33.3753 271.078 34.5027 274.433 35.5405C286.688 39.3317 298.702 43.8995 310.551 48.9023C311.703 49.3888 314.274 50.7391 315.284 49.2706C316.448 47.5774 313.753 45.4897 312.663 44.638C307.892 40.9128 301.979 38.6519 296.635 36.0385C284.952 30.3263 272.016 27.6148 259.826 23.3723C233.509 14.2118 206.284 7.25467 178.936 2.65958C172.262 1.53822 165.517 1.37404 158.814 0.541656C152.877 -0.195618 146.928 -0.178654 140.992 0.582852C130.027 1.99015 117.315 5.02649 111.122 15.7082C105.531 25.3527 101.799 36.196 103.226 47.6361C103.654 51.0723 105.022 55.1416 109.006 54.2559C111.77 53.6416 113.237 51.1426 114.52 48.7036C116.459 45.019 118.374 41.3345 120.475 37.7487C121.254 43.1253 118.422 48.4122 118.868 53.8893C119.17 57.606 121.1 63.4781 125.634 62.4258C131.849 60.984 134.407 50.6519 137.395 45.6951C137.546 49.5129 136.289 53.2757 136.673 57.102C137.053 60.8816 139.828 64.4499 143.726 63.9319C147.402 63.4436 149.791 59.252 151.353 56.0963C153.526 51.7048 155.086 46.9964 157.209 42.5758C159.198 38.432 161.554 33.4989 166.303 32.7204C170.541 32.025 175.398 33.6346 179.584 34.2986C191.196 36.1402 202.574 39.2759 214.06 41.8094C226.374 44.5253 238.98 46.1749 250.915 50.5574C246.718 56.6361 235.736 55.3227 229.485 55.9752C220.037 56.9614 210.469 57.7035 201.075 59.1587C191.797 60.5957 182.714 63.1468 173.508 64.9987C164.351 66.841 155.21 68.6863 146.35 71.8281C129.899 77.6614 113.173 85.0439 98.679 95.2221C91.935 99.9584 85.9441 105.371 81.7783 112.847C77.5858 120.369 75.5712 128.876 74.8027 137.528C74.3245 142.917 75.1368 147.579 76.1177 152.823C76.8281 156.62 77.0581 162.977 79.9186 165.757C85.3783 171.063 89.9113 149.54 90.9194 146.94C91.6452 151.2 90.4583 175.2 99.2186 173.248C103.128 172.378 104.015 166.667 104.664 163.227C105.846 156.956 106.906 150.559 108.929 144.52C110.227 152.657 110.769 161.135 113.566 168.907C115.424 174.069 120.726 183.227 124.422 174.391C127.194 167.764 126.243 160.158 126.575 153.122C126.944 145.325 129.047 137.805 129.792 130.084C130.08 127.093 129.819 123.723 132.643 122.091C135.067 120.69 138.613 120.234 141.26 119.452C149.1 117.135 156.992 115.006 164.795 112.548C172.602 110.088 180.301 107.215 188.003 104.41C195.37 101.729 202.891 100.204 210.348 97.9071C214.587 96.6009 218.775 95.2348 223.073 94.1444C225.074 93.6373 227.098 93.2423 229.094 92.7171C230.574 92.3281 232.523 90.8603 234.044 90.8863C235.609 90.9136 236.197 92.3239 237.993 92.4348C239.925 92.5535 241.891 92.0998 243.812 91.9428C248.494 91.5606 253.471 90.9426 258.143 91.6333C255.335 95.1773 251.543 97.6272 248.22 100.563C244.387 103.949 240.678 107.605 237.404 111.603C230.817 119.648 224.591 128.152 218.807 136.868C213.101 145.466 208.507 154.875 204.513 164.488C202.523 169.278 200.591 174.173 199.216 179.208C198.652 181.277 198.191 183.353 197.171 185.234C196.236 186.959 194.918 188.446 196.023 190.53C196.784 190.023 197.468 189.393 198.156 188.784C197.361 194.746 195.645 200.513 194.762 206.457C193.893 212.312 193.928 218.335 193.984 224.249C194.103 236.634 194.968 248.739 197.329 260.887C199.716 273.171 202.783 285.362 206.651 297.212C210.374 308.622 214.11 320.587 219.306 331.341C224.857 342.827 231.459 354.904 239.493 364.626C234.245 366.914 227.567 366.486 222.01 367.408C216.201 368.371 211.176 370.189 206.226 373.609C201.218 377.071 198.499 381.527 197.807 387.839C197.315 392.331 195.854 398.55 201.391 399.73C205.375 400.579 209.827 399.185 213.818 398.84C220.8 398.238 227.791 397.862 234.788 397.537C241.766 397.213 248.747 396.928 255.727 396.697C259.011 396.589 262.296 396.535 265.578 396.409C267.049 396.353 267.941 396.329 269.26 396.782C270.303 397.14 270.227 397.883 271.388 396.964C273.261 395.482 272.876 390.808 272.823 388.753C272.744 385.581 272.461 382.374 271.88 379.262C271.535 377.413 267.348 365.495 270.604 364.994C266.821 360.57 265.31 354.253 263.611 348.709C261.482 341.762 259.613 334.836 258.146 327.691C255.012 312.43 253.627 297.003 253.627 281.388C268.154 290.917 283.523 296.078 300.633 296.654C317.643 297.226 336.331 295.739 352.484 289.717C359.964 286.928 366.664 283.265 373.077 278.331C375.376 276.562 377.838 272.557 380.855 272.625C384.456 272.708 388.488 274.158 392.064 274.778C398.901 275.964 407.826 276.634 413.616 281.135C416.76 283.58 419.014 287.002 421.82 289.819C423.955 291.963 426.778 293.127 428.897 295.27C431.183 297.582 430.275 300.603 434.065 300.791C437.306 300.95 440.858 299.563 443.653 297.934C449.228 294.685 455.165 287.751 450.013 281.169Z" fill="white"/>
<path fill-rule="evenodd" clip-rule="evenodd" d="M396.425 126.634C404.584 132.801 413.942 137.015 422.469 142.569C424.603 143.96 431.252 146.846 431.187 149.425C431.15 150.933 429.152 152.824 428.277 153.869C426.778 155.659 425.368 157.468 423.985 159.362C417.653 168.034 411.691 176.788 404.829 185.025C403.796 186.264 400.684 192.179 399.679 189.241C399.224 187.909 399.599 186.412 398.412 185.17C397.801 184.53 395.44 184.178 396.128 182.806C396.586 183.025 397.045 183.245 397.504 183.464C397.148 182.367 397.174 181.166 396.64 180.129C396.308 179.485 395.66 179.18 395.435 178.455C395.124 177.453 395.651 176.289 395.563 175.256C395.476 174.226 394.974 173.253 394.675 172.281C392.899 166.521 392.262 160.714 391.353 154.771C390.454 148.89 389.053 143.194 388.503 137.248C387.922 130.967 387.209 124.7 386.259 118.47C387.955 118.723 389.259 120.684 390.458 121.792C392.344 123.535 394.391 125.096 396.425 126.634ZM390.028 187.437C389.639 187.112 389.335 186.712 389.115 186.238C393.114 184.13 390.701 187.727 390.028 187.437ZM387.597 182.941C385.854 183.452 384.601 183.556 383.257 182.792C383.13 182.72 383.277 182.162 383.047 182.048C382.846 181.948 382.539 182.071 382.367 181.978C381.782 181.661 380.757 182.356 380.657 181.143C382.882 180.418 385.07 179.081 387.418 178.856C390.683 178.543 390.532 182.079 387.597 182.941ZM379.959 175.95C377.581 176.542 375.622 177.924 373.095 177.563C370.723 177.225 368.661 175.916 366.79 174.407C371.471 172.997 376.38 172.743 381.057 171.378C382.58 170.934 384.581 169.763 386.222 170.235C388.045 170.76 388.16 172.577 388.707 174.231C385.789 174.79 382.848 175.231 379.959 175.95ZM365.084 168.932C362.799 169.513 360.464 170.783 358.553 168.591C358.245 168.237 357.975 168.59 358.011 167.5C358.049 166.351 359.03 165.611 359.873 165.206C361.855 164.255 364.633 164.87 366.739 164.73C370.097 164.508 373.514 163.765 376.836 163.193C379.136 162.797 381.511 161.919 383.862 162.092C385.677 162.226 387.866 163.872 385.221 165.073C382.813 166.167 379.201 165.999 376.592 166.473C372.734 167.173 368.891 167.964 365.084 168.932ZM362.852 157.492C363 157.652 363.148 157.813 363.296 157.973C363.272 157.967 364.172 157.191 364.411 157.169C365.569 157.062 366.735 157.146 367.895 157.077C370.568 156.916 373.262 156.421 375.888 155.875C378.026 155.43 380.205 154.664 382.406 154.856C384.312 155.022 384.512 155.437 384.637 157.395C379.772 157.395 374.761 157.286 369.98 158.382C366.867 159.095 363.437 161.219 361.878 157.39C362.203 157.424 362.527 157.458 362.852 157.492ZM365.894 149.205C367.1 150.183 370.389 148.557 371.834 148.394C373.405 148.217 374.882 148.034 376.403 147.618C377.752 147.248 382.216 145.403 383.251 147.168C384.837 149.871 378.413 150.367 377.395 150.501C373.124 151.063 368.692 151.561 364.536 152.753C364.989 151.571 365.441 150.388 365.894 149.205ZM371.753 140.021C372.064 141.271 381.724 136.666 381.899 140.013C382.035 142.581 372.343 143.86 370.6 143.635C371.008 142.452 372.094 141.394 371.753 140.021ZM374.996 132.166C375.201 129.645 375.519 129.66 377.418 129.422C378.867 129.241 380.858 128.337 380.481 131.085C380.159 133.438 374.789 134.71 374.996 132.166ZM378.448 123.492C378.905 122.139 379.934 123.961 379.955 124.649C380.013 126.48 378.708 126.084 377.452 126.084C377.802 125.229 378.134 124.364 378.448 123.492ZM394.346 113.333C394.09 113.005 392.652 112.88 392.242 112.72C391.236 112.328 391.379 111.491 390.091 112.316C390.027 112.247 390.149 111.627 390.079 111.598C390.044 111.584 389.142 111.222 388.848 111.022C388.141 110.539 387.503 110.068 386.853 109.462C386.162 108.82 385.47 107.887 384.68 107.375C384.347 107.159 384.075 106.853 383.674 106.787C382.633 106.616 382.931 107.388 382.021 107.541C381.46 107.636 381.052 106.939 380.319 107.24C379.685 107.499 379.317 108.445 379.035 109.007C378.009 111.056 377.217 113.26 376.212 115.33C371.074 125.916 365.234 136.099 360.257 146.783C357.86 151.93 355.359 157.113 353.671 162.583C352.455 166.528 349.708 172.291 352.071 176.233C353.79 179.099 357.231 180.337 359.976 181.722C364.107 183.806 367.916 186.53 372.092 188.55C377.073 190.959 381.909 193.479 386.764 196.17C388.834 197.317 390.702 198.97 392.766 200.057C394.028 200.721 395.977 199.587 396.388 201.111C397.97 199.072 400.531 200.431 402.361 198.995C403.437 198.151 404.224 196.487 405.122 195.447C406.469 193.888 407.93 192.441 409.305 190.909C414.759 184.824 419.795 178.486 424.757 171.95C429.497 165.708 435.034 159.811 439.037 152.978C440.627 150.266 440.915 147.422 439.866 144.426C439.1 142.24 437.254 138.939 434.618 140.387C435.618 138.62 431.762 136.734 430.592 136.388C430.574 136.383 430.344 137.74 430.018 137.707C430.134 137.719 429.037 134.7 428.556 134.313C427.126 133.161 425.386 131.817 423.826 130.869C422.395 130 420.884 129.569 419.498 128.596C417.818 127.417 416.275 126.019 414.588 124.848C412.96 123.718 411.144 122.381 409.344 121.604C407.784 120.93 406.382 120.798 404.978 119.693C403.24 118.325 401.725 117.398 399.721 116.456C397.988 115.641 395.586 114.929 394.346 113.333Z" fill="url(#paint1_linear)"/>
<path fill-rule="evenodd" clip-rule="evenodd" d="M157.731 277.05C158.05 276.253 158.368 275.457 158.686 274.661C159.08 276.049 159.191 276.74 157.731 277.05ZM158.155 280.73C157.465 280.861 157.737 278.556 157.737 278.154C158.929 278.873 157.942 279.734 158.155 280.73ZM157.079 274.08C157.667 273.71 158.256 273.34 158.845 272.97C158.025 274.586 158.346 273.576 158.685 274.656C158.066 274.845 157.465 274.624 157.079 274.08ZM153.59 286.712C151.384 295.232 144.376 301.951 136.974 305.431C132.72 307.43 128.539 307.931 123.945 307.708C122.174 307.622 120.089 307.009 118.384 307.123C117.071 307.211 117.131 307.272 116.043 308.454C115.562 307.512 115.911 306.85 114.946 306.301C113.742 305.617 113.242 306.414 112.645 307.362C111.863 306.5 111.543 306.05 110.531 305.538C110.563 305.554 109.561 305.514 109.602 305.527C109.421 305.468 108.332 304.722 107.991 304.587C106.592 304.028 104.974 303.799 103.683 302.997C102.554 302.297 101.624 300.333 100.331 301.842C100.33 299.32 97.1372 298.274 95.6407 296.952C93.3022 294.888 91.443 291.831 90.2772 288.874C89.0339 285.72 88.6189 282.697 88.0371 279.448C87.6307 277.177 84.9688 273.895 86.5673 271.604C86.9481 272.565 86.7694 273.548 87.4018 274.42C87.9711 273.252 88.2842 271.946 88.5415 270.668C88.6679 270.043 89.3999 268.206 89.3168 267.661C89.1477 266.545 87.8498 266.484 88.5694 265.116C90.062 266.845 91.2665 263.809 90.1388 262.6C89.5821 263.268 89.3777 264.027 89.121 264.854C87.6535 261.702 91.7151 262.717 90.8265 259.871C92.3088 259.568 93.161 259.17 93.7246 257.611C94.3513 255.877 93.8902 255.499 95.3134 254.353C95.8029 253.959 97.1873 253.393 97.4407 252.744C97.9308 251.492 96.6835 251.121 97.7759 249.947C98.1448 250.636 99.5828 252 100.37 250.702C100.528 250.443 99.8657 250.26 100.347 249.664C101.061 248.782 101.859 247.917 103.065 248.102C102.11 245.561 108.213 245.359 109.776 244.76C111.343 244.159 112.672 243.765 114.333 243.626C115.993 243.486 116.075 242.969 117.48 241.906C117.599 243.427 117.943 243.092 118.959 243.361C119.203 242.915 119.454 242.865 119.71 243.211C119.965 243.469 120.277 243.59 120.645 243.575C121.203 243.606 121.836 243.529 122.42 243.541C123.793 243.57 125.208 243.448 126.555 243.479C126.902 243.417 127.226 243.289 127.53 243.093C127.657 243.348 127.785 243.603 127.911 243.858C128.624 243.953 128.68 244.904 129.557 243.864C129.816 245.186 130.562 244.498 131.35 244.857C132.068 245.184 132.183 245.708 132.846 246.073C133.282 246.449 133.749 246.499 134.249 246.223C134.725 246.598 135.207 246.962 135.697 247.316C136.599 247.858 137.663 248.19 138.613 248.618C139.246 248.896 139.874 249.185 140.497 249.484C140.516 250.285 140.854 250.568 141.51 250.332C142.102 250.86 142.269 250.839 142.844 251.737C144.146 253.774 145.302 255.355 146.947 257.175C154.098 265.087 156.294 276.273 153.59 286.712ZM155.785 253.069C152.557 248.468 147.987 243.2 143.881 240.295C141.8 238.821 138.878 236.177 136.333 235.398C135.73 235.213 135.105 235.201 134.512 235.007C134.054 234.858 133.805 234.357 133.282 234.267C132.917 234.204 132.876 235.075 132.488 234.995C131.676 234.826 131.162 233.969 130.588 233.433C129.357 235.691 128.689 231.893 126.881 234.446C124.729 230.856 119.674 231.641 116.238 231.822C115.219 231.875 114.74 232.261 113.837 232.547C112.996 232.813 112.913 232.745 111.995 232.737C109.708 232.719 107.678 233.024 105.565 234.093C102.013 235.888 98.7539 238.685 95.3811 240.849C91.6115 243.266 88.2136 246.344 85.3297 249.88C74.9044 262.666 72.1168 281.33 80.4296 296.153C93.6335 319.695 127.693 322.211 146.992 306.237C161.903 293.895 167.577 269.871 155.785 253.069Z" fill="white"/>
<path fill-rule="evenodd" clip-rule="evenodd" d="M319.212 186.819C318.841 187.76 315.381 187.443 315.305 186.334C315.192 184.676 319.856 185.184 319.212 186.819ZM322.888 186.204C324.849 186.373 328.071 187.791 329.961 186.934C332.845 185.627 329.816 183.62 328.269 183.021C326.694 182.411 324.349 182.735 323.539 180.983C322.93 179.665 324.435 175.987 322.568 176.578C320.609 177.198 321.179 182.468 318.104 180.691C316.638 179.844 317.236 174.681 314.78 177.319C314.107 178.04 314.049 179.365 313.158 179.903C312.25 180.453 311.11 179.88 310.151 179.928C307.612 180.055 306.803 182.583 309.376 183.585C310.328 183.957 313.918 184.41 311.743 186.066C310.373 187.109 307.329 184.92 306.153 186.736C304.535 189.231 308.867 189.287 310.031 190.034C312.003 191.297 310.374 194.249 310.531 196.352C310.772 199.564 312.525 198.892 313.162 196.174C313.703 193.868 313.033 190.548 316.3 191.465C321.62 192.957 313.342 200.145 317.239 201.984C319.724 203.157 320.075 196.817 320.268 195.726C320.983 191.697 323.11 192.637 326.332 192.76C330.095 192.905 331.004 189.942 327.018 189.093C325.746 188.822 323.997 189.164 322.893 188.302C322.239 187.793 321.341 186.07 322.888 186.204Z" fill="white"/>
<path fill-rule="evenodd" clip-rule="evenodd" d="M183.917 317.843C180.871 316.682 175.775 316.933 175.022 321.12C174.706 322.873 175.321 324.726 176.458 326C177.777 327.476 179.877 327.613 179.765 325.042C179.687 323.263 178.096 321.717 180.894 321.359C182.634 321.136 185.209 322.521 185.296 324.568C185.491 329.18 177.989 329.542 175.224 328.744C169.736 327.162 171.227 321.045 174.995 318.253C175.969 317.532 178.762 316.421 178.89 314.923C179.059 312.935 176.75 313.341 175.619 313.603C167.3 315.53 165.487 330.36 174.179 333.156C178.126 334.425 183.685 333.115 186.064 329.311C188.294 325.744 188.325 319.522 183.917 317.843Z" fill="white"/>
<path fill-rule="evenodd" clip-rule="evenodd" d="M17.6225 180.858C15.0221 182.19 12.4218 183.523 9.82199 184.855C8.96242 182.897 7.51025 177.55 5.33 176.867C1.80062 175.761 4.04804 181.591 4.65714 182.923C5.15752 184.018 6.31823 185.714 6.03645 187.019C5.65846 188.777 3.32793 189.4 2.10802 190.307C-0.910746 192.552 -0.886843 197.267 3.48504 195.269C5.95902 194.138 9.02219 191.002 10.9184 194.563C11.7939 196.206 13.8683 205.385 16.0348 199.382C17.3754 195.665 10.9229 191.804 14.1039 188.66C15.128 187.648 16.3269 187.563 17.3498 186.981C19.8204 185.576 18.4274 182.98 17.6225 180.858Z" fill="url(#paint2_linear)"/>
<path fill-rule="evenodd" clip-rule="evenodd" d="M454.845 79.8581C453.295 79.2547 451.377 78.0764 449.654 78.4781C447.823 78.9046 447.086 80.8565 445.754 82.0299C442.134 85.2207 440.026 80.4651 438.037 77.8589C436.158 75.3981 433.866 74.8008 431.216 76.3129C430.16 76.9157 425.711 79.6776 426.487 81.4471C427.045 82.7206 429.243 81.5774 429.992 81.2993C431.62 80.6965 433.131 80.1689 434.796 81.0479C437.918 82.6957 438.728 87.2145 442.506 87.919C446.412 88.6478 446.54 84.6919 449.328 83.2028C451.197 82.205 452.499 83.9716 454.301 83.6196C456.019 83.2846 456.814 80.6239 454.845 79.8581Z" fill="white"/>
<path fill-rule="evenodd" clip-rule="evenodd" d="M423.308 95.8012C424.69 96.1205 425.591 93.2689 426.456 92.5456C427.891 91.3467 430.378 91.105 431.838 92.3118C434.691 94.6672 433.708 99.7524 437.769 101.078C441.4 102.263 443.11 97.1746 446.165 95.9079C447.942 95.1712 449.892 94.689 449.199 92.0458C448.72 90.2181 447.31 89.7486 445.776 90.4507C443.14 91.6563 442.246 96.5676 439.121 96.6554C435.888 96.7463 435.537 91.7865 434.15 89.6262C432.034 86.3336 427.684 85.5382 425.212 88.6866C424.466 89.6365 420.677 95.1948 423.308 95.8012Z" fill="white"/>
<path fill-rule="evenodd" clip-rule="evenodd" d="M359.406 39.5758C361.328 40.9752 365.158 40.9268 366.928 39.1911C368.73 37.4252 366.325 37.1538 364.857 37.2077C363.728 37.2495 361.615 37.845 362.258 35.7701C362.829 33.929 365.968 34.8662 366.23 32.8452C363.868 32.3945 361.266 32.5569 359.519 34.5324C358.256 35.9603 357.607 38.2654 359.406 39.5758Z" fill="white"/>
<defs>
<linearGradient id="paint0_linear" x1="194.578" y1="180.385" x2="384.8" y2="101.982" gradientUnits="userSpaceOnUse">
<stop offset="0.00209505" stop-color="#05DFFC"/>
<stop offset="1" stop-color="#0BFFC4"/>
</linearGradient>
<linearGradient id="paint1_linear" x1="347.081" y1="201.111" x2="468.784" y2="146.838" gradientUnits="userSpaceOnUse">
<stop offset="0.00209505" stop-color="#05DFFC"/>
<stop offset="1" stop-color="#0BFFC4"/>
</linearGradient>
<linearGradient id="paint2_linear" x1="-0.852183" y1="201.395" x2="26.2879" y2="191.681" gradientUnits="userSpaceOnUse">
<stop offset="0.00209505" stop-color="#05DFFC"/>
<stop offset="1" stop-color="#0BFFC4"/>
</linearGradient>
</defs>
</svg>
