<svg width="18" height="16" viewBox="0 0 18 16" fill="none" xmlns="http://www.w3.org/2000/svg">
<path d="M1.35 0H16.65C16.8754 0 17.0916 0.0895533 17.251 0.248959C17.4104 0.408365 17.5 0.624566 17.5 0.85V14.45C17.5 14.6754 17.4104 14.8916 17.251 15.051C17.0916 15.2104 16.8754 15.3 16.65 15.3H1.35C1.12457 15.3 0.908365 15.2104 0.748959 15.051C0.589553 14.8916 0.5 14.6754 0.5 14.45V0.85C0.5 0.624566 0.589553 0.408365 0.748959 0.248959C0.908365 0.0895533 1.12457 0 1.35 0ZM15.8 3.6023L9.0612 9.6373L2.2 3.5836V13.6H15.8V3.6023ZM2.63435 1.7L9.05185 7.3627L15.3767 1.7H2.63435Z" fill="white"/>
</svg>
