<svg width="17" height="16" viewBox="0 0 17 16" fill="none" xmlns="http://www.w3.org/2000/svg">
<path fill-rule="evenodd" clip-rule="evenodd" d="M8.19792 0C3.67146 0 0 3.67146 0 8.19792C0 11.8191 2.36382 14.887 5.58263 15.9935C5.98499 16.0438 6.13587 15.7923 6.13587 15.5911C6.13587 15.39 6.13587 14.887 6.13587 14.1829C3.87264 14.6859 3.3697 13.0764 3.3697 13.0764C3.01764 12.1209 2.46441 11.8694 2.46441 11.8694C1.71 11.3664 2.5147 11.3664 2.5147 11.3664C3.3194 11.4167 3.77205 12.2214 3.77205 12.2214C4.52646 13.4788 5.68322 13.1267 6.13587 12.9256C6.18616 12.3723 6.43763 12.0203 6.63881 11.8191C4.82822 11.6179 2.91705 10.9138 2.91705 7.74528C2.91705 6.83998 3.21882 6.13587 3.77205 5.53234C3.72176 5.38146 3.41999 4.52646 3.87264 3.41999C3.87264 3.41999 4.57675 3.21882 6.13587 4.27499C6.78969 4.07381 7.49381 4.02352 8.19792 4.02352C8.90204 4.02352 9.60616 4.12411 10.26 4.27499C11.8191 3.21882 12.5232 3.41999 12.5232 3.41999C12.9759 4.52646 12.6741 5.38146 12.6238 5.58263C13.1267 6.13587 13.4788 6.89028 13.4788 7.79557C13.4788 10.9641 11.5676 11.6179 9.75704 11.8191C10.0588 12.0706 10.3103 12.5735 10.3103 13.3279C10.3103 14.4344 10.3103 15.2894 10.3103 15.5911C10.3103 15.7923 10.4612 16.0438 10.8635 15.9935C14.1326 14.887 16.4461 11.8191 16.4461 8.19792C16.3958 3.67146 12.7244 0 8.19792 0Z" fill="white"/>
</svg>
