<svg width="17" height="16" viewBox="0 0 17 16" fill="none" xmlns="http://www.w3.org/2000/svg">
<path fill-rule="evenodd" clip-rule="evenodd" d="M11.5689 4.36578C10.7429 3.57798 9.64054 3.1488 8.49999 3.16644C6.41292 3.16644 4.64037 4.57448 4.00836 6.47048C3.67325 7.46404 3.67325 8.53996 4.00836 9.53353H4.01129C4.64623 11.4266 6.41585 12.8347 8.50293 12.8347C9.58028 12.8347 10.5052 12.5591 11.222 12.0724V12.0704C12.0657 11.5119 12.6418 10.6329 12.8212 9.63937H8.5V6.55872H16.0459C16.1399 7.09372 16.184 7.64047 16.184 8.18429C16.184 10.6175 15.3144 12.6747 13.8014 14.068L13.803 14.0693C12.4772 15.2921 10.6576 16.0005 8.49999 16.0005C5.47519 16.0005 2.70907 14.2956 1.35099 11.5942C0.216333 9.33364 0.216336 6.6704 1.351 4.40989C2.70908 1.7055 5.47519 0.000539111 8.49999 0.000539111C10.4871 -0.0229773 12.4067 0.72367 13.8529 2.08174L11.5689 4.36578Z" fill="white"/>
</svg>
