<svg width="16" height="17" viewBox="0 0 16 17" fill="none" xmlns="http://www.w3.org/2000/svg">
<g opacity="0.4">
<path fill-rule="evenodd" clip-rule="evenodd" d="M6.5 2C3.73858 2 1.5 4.23858 1.5 7C1.5 9.76142 3.73858 12 6.5 12C8.05249 12 9.43943 11.293 10.3573 10.1816C11.0714 9.31696 11.5 8.2092 11.5 7C11.5 4.23858 9.26142 2 6.5 2ZM0.5 7C0.5 3.68629 3.18629 1 6.5 1C9.81371 1 12.5 3.68629 12.5 7C12.5 8.28613 12.0948 9.47867 11.4055 10.4556L15.5964 14.6464C15.7917 14.8417 15.7917 15.1583 15.5964 15.3536C15.4011 15.5488 15.0845 15.5488 14.8893 15.3536L10.7605 11.2247C9.67379 12.3204 8.16608 13 6.5 13C3.18629 13 0.5 10.3137 0.5 7Z" fill="white"/>
</g>
</svg>
