<svg width="14" height="12" viewBox="0 0 14 12" fill="none" xmlns="http://www.w3.org/2000/svg">
<path d="M11.9375 1.00675C10.4323 -0.258869 8.10677 -0.068765 6.66667 1.39738C5.22656 -0.068765 2.90104 -0.261473 1.39584 1.00675C-0.562497 2.65519 -0.276038 5.34269 1.11979 6.76717L5.6875 11.4208C5.94792 11.6864 6.29687 11.8349 6.66667 11.8349C7.03906 11.8349 7.38542 11.689 7.64583 11.4234L12.2135 6.76977C13.6068 5.34529 13.8984 2.6578 11.9375 1.00675ZM11.3229 5.88956L6.75521 10.5432C6.69271 10.6057 6.64062 10.6057 6.57812 10.5432L2.01042 5.88956C1.0599 4.92081 0.86719 3.08748 2.20052 1.96509C3.21354 1.11353 4.77604 1.24113 5.75521 2.23852L6.66667 3.16821L7.57812 2.23852C8.5625 1.23592 10.125 1.11353 11.1328 1.96248C12.4635 3.08488 12.2656 4.92863 11.3229 5.88956Z" fill="#787688"/>
</svg>
