<svg width="13" height="14" viewBox="0 0 13 14" fill="none" xmlns="http://www.w3.org/2000/svg">
<path d="M8.99967 8.24967C8.25228 8.24967 7.8929 8.66634 6.66634 8.66634C5.43978 8.66634 5.08301 8.24967 4.33301 8.24967C2.40072 8.24967 0.833008 9.81738 0.833008 11.7497V12.4163C0.833008 13.1064 1.3929 13.6663 2.08301 13.6663H11.2497C11.9398 13.6663 12.4997 13.1064 12.4997 12.4163V11.7497C12.4997 9.81738 10.932 8.24967 8.99967 8.24967ZM11.2497 12.4163H2.08301V11.7497C2.08301 10.5101 3.09342 9.49967 4.33301 9.49967C4.71322 9.49967 5.3304 9.91634 6.66634 9.91634C8.0127 9.91634 8.61686 9.49967 8.99967 9.49967C10.2393 9.49967 11.2497 10.5101 11.2497 11.7497V12.4163ZM6.66634 7.83301C8.73665 7.83301 10.4163 6.15332 10.4163 4.08301C10.4163 2.0127 8.73665 0.333008 6.66634 0.333008C4.59603 0.333008 2.91634 2.0127 2.91634 4.08301C2.91634 6.15332 4.59603 7.83301 6.66634 7.83301ZM6.66634 1.58301C8.04395 1.58301 9.16634 2.7054 9.16634 4.08301C9.16634 5.46061 8.04395 6.58301 6.66634 6.58301C5.28874 6.58301 4.16634 5.46061 4.16634 4.08301C4.16634 2.7054 5.28874 1.58301 6.66634 1.58301Z" fill="#787688"/>
</svg>
