<svg width="17" height="16" viewBox="0 0 17 16" fill="none" xmlns="http://www.w3.org/2000/svg">
<path d="M15.8471 5.12934L11.4777 4.49233L9.52482 0.532715C9.17492 -0.173079 8.16108 -0.18205 7.80819 0.532715L5.85529 4.49233L1.48596 5.12934C0.702406 5.24299 0.388388 6.20897 0.956611 6.76224L4.11773 9.8426L3.37006 14.194C3.23549 14.9805 4.0639 15.5697 4.75773 15.2018L8.6665 13.1473L12.5753 15.2018C13.2691 15.5667 14.0975 14.9805 13.9629 14.194L13.2153 9.8426L16.3764 6.76224C16.9446 6.20897 16.6306 5.24299 15.8471 5.12934ZM11.6751 9.34018L12.3839 13.4792L8.6665 11.5263L4.94913 13.4792L5.65791 9.34018L2.64932 6.40934L6.80632 5.80523L8.6665 2.03701L10.5267 5.80523L14.6837 6.40934L11.6751 9.34018Z" fill="#787688"/>
</svg>
