<svg width="11" height="14" viewBox="0 0 11 14" fill="none" xmlns="http://www.w3.org/2000/svg">
<path d="M10.2498 1.58301H10.354C10.5266 1.58301 10.6665 1.44309 10.6665 1.27051V0.645508C10.6665 0.47293 10.5266 0.333008 10.354 0.333008H0.979004C0.806426 0.333008 0.666504 0.47293 0.666504 0.645508V1.27051C0.666504 1.44309 0.806426 1.58301 0.979004 1.58301H1.08317C1.08317 3.68103 1.9214 5.9009 3.6139 6.99967C1.91387 8.10335 1.08317 10.3304 1.08317 12.4163H0.979004C0.806426 12.4163 0.666504 12.5563 0.666504 12.7288V13.3538C0.666504 13.5264 0.806426 13.6663 0.979004 13.6663H10.354C10.5266 13.6663 10.6665 13.5264 10.6665 13.3538V12.7288C10.6665 12.5563 10.5266 12.4163 10.354 12.4163H10.2498C10.2498 10.3183 9.41161 8.09845 7.71911 6.99967C9.41916 5.896 10.2498 3.66895 10.2498 1.58301ZM2.33317 1.58301H8.99984C8.99984 4.22936 7.50747 6.37467 5.6665 6.37467C3.82554 6.37467 2.33317 4.22939 2.33317 1.58301ZM8.99984 12.4163H2.33317C2.33317 9.76999 3.82557 7.62467 5.6665 7.62467C7.50744 7.62467 8.99984 9.76999 8.99984 12.4163Z" fill="#787688"/>
</svg>
