<svg width="24" height="19" viewBox="0 0 24 19" fill="none" xmlns="http://www.w3.org/2000/svg">
<path fill-rule="evenodd" clip-rule="evenodd" d="M18.4596 3.76456C17.9455 4.08177 17.3438 4.47664 16.7073 4.9063C15.7212 5.57198 14.6868 6.29716 13.8001 6.91882C13.4499 7.16427 13.1228 7.39359 12.8308 7.59673C10.3268 9.33863 8.11834 9.67942 6.34055 8.83447C5.4487 8.41059 4.80115 7.74844 4.34815 7.0497L2.36192 8.33955C1.69763 8.77093 0.807991 8.5843 0.374859 7.92268C-0.0582736 7.26107 0.129117 6.37502 0.793407 5.94363L4.18599 3.74051L5.8732 2.64484L6.36303 4.59067C6.53183 5.26121 6.96895 5.96394 7.57736 6.25311C8.07057 6.48752 9.15343 6.66606 11.1864 5.25186C11.4633 5.05922 11.7804 4.83694 12.1239 4.59613C13.0164 3.97041 14.0875 3.21958 15.0961 2.53869C15.7965 2.06588 16.4838 1.61515 17.0779 1.25295C17.5464 0.967249 18.0369 0.686189 18.4524 0.509151C18.786 0.328298 19.1746 0.289794 19.5307 0.390227C19.8759 0.484038 20.1814 0.704781 20.3755 1.01819C20.647 1.38925 20.8473 1.85224 20.9999 2.27996C21.2037 2.85113 21.3898 3.55865 21.5422 4.3753C21.8478 6.0117 22.0322 8.16084 21.9217 10.6737C21.8556 12.1766 21.6838 13.8136 21.3677 15.5532L22.6588 16.0344C23.4016 16.3112 23.7784 17.1352 23.5005 17.875C23.2226 18.6147 22.3952 18.99 21.6524 18.7132L19.2195 17.8065L18.0588 17.374L18.3187 16.1671C18.6608 14.5792 18.8708 13.0774 18.9819 11.6887C17.8767 11.343 16.3995 10.747 14.7775 9.73663C14.1052 9.31781 13.901 8.43545 14.3215 7.7658C14.742 7.09616 15.628 6.89283 16.3003 7.31164C17.3317 7.95407 18.2858 8.39512 19.0775 8.69512C19.0503 7.19502 18.9081 5.91168 18.7189 4.89822C18.6375 4.46276 18.5489 4.08415 18.4596 3.76456Z" fill="url(#paint0_linear)"/>
<defs>
<linearGradient id="paint0_linear" x1="-0.924323" y1="18.8043" x2="27.2855" y2="1.93591" gradientUnits="userSpaceOnUse">
<stop offset="0.00209505" stop-color="#05DFFC"/>
<stop offset="1" stop-color="#0BFFC4"/>
</linearGradient>
</defs>
</svg>
